{
.appVersion = "3091";
.formatVersion = 3;
axes = (
{
name = Weight;
tag = wght;
}
);
customParameters = (
{
name = vendorID;
value = PfEd;
},
{
name = panose;
value = (
0,
0,
0,
0,
0,
0,
0,
0,
0,
0
);
},
{
name = unicodeRanges;
value = (
0,
1,
2,
3,
5,
11,
31,
33,
35,
37,
38,
46,
60,
62
);
},
{
name = codePageRanges;
value = (
"1252",
"1255",
"862"
);
},
{
name = fsType;
value = (
2
);
},
{
name = blueScale;
value = 0;
},
{
disabled = 1;
name = glyphOrder;
value = (
.notdef,
NULL,
CR,
space,
exclam,
quotedbl,
numbersign,
dollar,
percent,
ampersand,
quotesingle,
parenleft,
parenright,
asterisk,
plus,
comma,
hyphen,
period,
slash,
one,
two,
three,
four,
five,
six,
seven,
eight,
nine,
colon,
semicolon,
less,
equal,
greater,
question,
at,
bracketleft,
ltr94,
ltr95,
braceleft,
bar,
asciitilde,
zero,
A,
B,
C,
D,
E,
F,
G,
H,
I,
J,
K,
L,
M,
N,
O,
P,
Q,
R,
S,
T,
U,
V,
W,
X,
Y,
Z,
backslash,
bracketright,
grave,
a,
b,
c,
d,
e,
f,
g,
h,
i,
j,
k,
l,
m,
n,
o,
p,
q,
r,
s,
t,
u,
v,
w,
x,
y,
z,
braceright,
dieresis,
copyright,
uni05D0,
uni05D1,
uni05D2,
uni05D3,
uni05D4,
uni05D5,
uni05D6,
uni05D7,
uni05D8,
uni05D9,
uni05DB,
uni05DC,
uni05DD,
uni05DE,
uni05DF,
uni05E0,
uni05E1,
uni05E2,
uni05E3,
uni05E4,
uni05E5,
uni05E6,
uni05E7,
uni05E8,
uni05E9,
uni05EA,
uni05DA,
uni20AA
);
}
);
date = "2021-05-31 15:39:47 +0000";
familyName = Helium;
fontMaster = (
{
axesValues = (
200
);
iconName = Light;
id = "0A901A10-6B10-40AA-AC10-6ECA400C9626";
metricValues = (
{
pos = 782;
},
{
pos = 742;
},
{
over = 5;
pos = 518;
},
{
over = -5;
},
{
pos = -218;
},
{
over = -5;
}
);
name = Light;
},
{
axesValues = (
400
);
iconName = SemiLight;
id = m01;
metricValues = (
{
pos = 782;
},
{
pos = 742;
},
{
over = 5;
pos = 518;
},
{
over = -5;
},
{
pos = -218;
},
{
over = -5;
}
);
name = Regular;
},
{
axesValues = (
500
);
id = "75DB7DBE-742D-4351-BF75-A4D495193B35";
metricValues = (
{
pos = 782;
},
{
pos = 742;
},
{
pos = 518;
},
{
over = -5;
},
{
pos = -218;
},
{
over = -5;
}
);
name = Medium;
},
{

glyphs = (
{
glyphname = A;
lastChange = "2021-06-21 21:48:47 +0000";
layers = (
{
hints = (
{
horizontal = 1;
origin = (0,7);
target = up;
type = BottomGhost;
},
{
horizontal = 1;
origin = (0,1);
target = (1,2);
type = Stem;
}
);
layerId = m01;
shapes = (
{
closed = 1;
nodes = (
(84,0,l),
(172,223,l),
(470,223,l),
(557,0,l),
(622,0,l),
(353,683,l),
(289,683,l),
(20,0,l)
);
},
{
closed = 1;
nodes = (
(321,602,l),
(446,283,l),
(195,283,l)
);
}
);
width = 642;
},
{
hints = (
{
horizontal = 1;
place = (0, 21);
target = up;
type = BottomGhost;
},
{
horizontal = 1;
place = (239, 28);
place = (239, 28);
type = Stem;
},
{
horizontal = 1;
place = (645, 38);
place = (645, 38);
type = Stem;
},
{
place = (20, 567);
place = (20, 567);
type = Stem;
}
);
layerId = "0A901A10-6B10-40AA-AC10-6ECA400C9626";
shapes = (
{
closed = 1;
nodes = (
(50,0,l),
(144,239,l),
(463,239,l),
(557,0,l),
(587,0,l),
(319,683,l),
(289,683,l),
(20,0,l)
);
},
{
closed = 1;
nodes = (
(304,645,l),
(452,267,l),
(155,267,l)
);
}
);
width = 607;
},
{
hints = (
{
horizontal = 1;
place = (0, 21);
target = up;
type = BottomGhost;
},
{
horizontal = 1;
place = (213, 93);
place = (213, 93);
type = Stem;
},
{
place = (20, 630);
place = (20, 630);
type = Stem;
}
);
layerId = "75DB7DBE-742D-4351-BF75-A4D495193B35";
shapes = (
{
closed = 1;
nodes = (
(110,0,l),
(196,213,l),
(474,213,l),
(560,0,l),
(650,0,l),
(373,688,l),
(297,688,l),
(20,0,l)
);
},
{
closed = 1;
nodes = (
(335,558,l),
(436,306,l),
(233,306,l)
);
}
);
width = 670;
},
{
hints = (
{
horizontal = 1;
place = (0, 21);
target = up;
type = BottomGhost;
},
{
horizontal = 1;
place = (198, 110);
place = (198, 110);
type = Stem;
},
{
place = (20, 655);
place = (20, 655);
type = Stem;
}
);
layerId = "4BD00FE4-3084-423F-A840-AB4EC9D41C86";
shapes = (
{
closed = 1;
nodes = (
(138,0,l),
(216,198,l),
(479,198,l),
(557,0,l),
(675,0,l),
(407,683,l),
(289,683,l),
(20,0,l)
);
},
{
closed = 1;
nodes = (
(348,533,l),
(436,308,l),
(259,308,l)
);
}
);
width = 695;
},
{
hints = (
{
horizontal = 1;
place = (0, 21);
target = up;
type = BottomGhost;
},
{
horizontal = 1;
place = (173, 160);
place = (173, 160);
type = Stem;
},
{
place = (20, 709);
place = (20, 709);
type = Stem;
}
);
layerId = "88F21F75-214F-41EE-AE9C-B4AA79D6697C";
shapes = (
{
closed = 1;
nodes = (
(192,0,l),
(260,173,l),
(489,173,l),
(557,0,l),
(729,0,l),
(460,683,l),
(289,683,l),
(20,0,l)
);
},
{
closed = 1;
nodes = (
(374,464,l),
(426,333,l),
(323,333,l)
);
}
);
width = 749;
}
);
note = A;
unicode = 65;
},
{
glyphname = B;
lastChange = "2021-06-21 21:48:47 +0000";
layers = (
{
hints = (
{
horizontal = 1;
origin = (0,14);
target = (1,8);
type = Stem;
},
{
horizontal = 1;
origin = (1,0);
target = (2,8);
type = Stem;
},
{
horizontal = 1;
origin = (2,0);
target = (0,13);
type = Stem;
},
{
origin = (0,14);
target = (1,8);
type = Stem;
},
{
origin = (1,4);
target = (0,3);
type = Stem;
},
{
origin = (2,4);
target = (0,9);
type = Stem;
}
);
layerId = m01;
shapes = (
{
closed = 1;
nodes = (
(341,0,ls),
(460,0,o),
(575,71,o),
(575,196,cs),
(575,272,o),
(532,334,o),
(466,366,c),
(514,398,o),
(545,451,o),
(545,513,cs),
(545,623,o),
(445,683,o),
(341,683,cs),
(50,683,l),
(50,0,l)
);
},
{
closed = 1;
nodes = (
(110,332,l),
(345,332,ls),
(463,332,o),
(515,265,o),
(515,199,cs),
(515,132,o),
(461,60,o),
(341,60,cs),
(110,60,l)
);
},
{
closed = 1;
nodes = (
(110,623,l),
(341,623,ls),
(440,623,o),
(485,566,o),
(485,509,cs),
(485,454,o),
(441,392,o),
(345,392,cs),
(110,392,l)
);
}
);
width = 605;
},
{
hints = (
{
horizontal = 1;
place = (0, 28);
place = (0, 28);
type = Stem;
},
{
horizontal = 1;
place = (350, 28);
place = (350, 28);
type = Stem;
},
{
horizontal = 1;
place = (655, 28);
place = (655, 28);
type = Stem;
},
{
place = (50, 28);
place = (50, 28);
type = Stem;
},
{
place = (493, 28);
place = (493, 28);
type = Stem;
},
{
place = (525, 28);
place = (525, 28);
type = Stem;
}
);
layerId = "0A901A10-6B10-40AA-AC10-6ECA400C9626";
shapes = (
{
closed = 1;
nodes = (
(335,0,ls),
(478,0,o),
(553,96,o),
(553,193,cs),
(553,276,o),
(497,341,o),
(419,366,c),
(481,392,o),
(521,451,o),
(521,521,cs),
(521,625,o),
(433,683,o),
(335,683,cs),
(50,683,l),
(50,0,l)
);
},
{
closed = 1;
nodes = (
(78,350,l),
(339,350,ls),
(468,350,o),
(525,269,o),
(525,191,cs),
(525,110,o),
(460,28,o),
(335,28,cs),
(78,28,l)
);
},
{
closed = 1;
nodes = (
(78,655,l),
(335,655,ls),
(444,655,o),
(493,587,o),
(493,519,cs),
(493,450,o),
(440,378,o),
(339,378,cs),
(78,378,l)
);
}
);
width = 582;
},
{
hints = (
{
horizontal = 1;
place = (0, 93);
place = (0, 93);
type = Stem;
},
{
horizontal = 1;
place = (317, 93);
place = (317, 93);
type = Stem;
},
{
horizontal = 1;
place = (594, 94);
place = (594, 94);
type = Stem;
},
{
place = (50, 82);
place = (50, 82);
type = Stem;
},
{
place = (475, 82);
place = (475, 82);
type = Stem;
},
{
place = (505, 82);
place = (505, 82);
type = Stem;
}
);
layerId = "75DB7DBE-742D-4351-BF75-A4D495193B35";
shapes = (
{
closed = 1;
nodes = (
(346,0,ls),
(469,0,o),
(587,74,o),
(587,206,cs),
(587,289,o),
(540,342,o),
(497,370,c),
(528,399,o),
(557,444,o),
(557,507,cs),
(557,623,o),
(456,688,o),
(346,688,cs),
(50,688,l),
(50,0,l)
);
},
{
closed = 1;
nodes = (
(132,317,l),
(350,317,ls),
(418,317,o),
(505,286,o),
(505,207,cs),
(505,127,o),
(415,93,o),
(346,93,cs),
(132,93,l)
);
},
{
closed = 1;
nodes = (
(132,594,l),
(346,594,ls),
(402,594,o),
(475,569,o),
(475,503,cs),
(475,440,o),
(406,410,o),
(350,410,cs),
(132,410,l)
);
}
);
width = 617;
},
{
hints = (
{
horizontal = 1;
place = (0, 110);
place = (0, 110);
type = Stem;
},
{
horizontal = 1;
place = (305, 110);
place = (305, 110);
type = Stem;
},
{
horizontal = 1;
place = (572, 110);
place = (572, 110);
type = Stem;
},
{
place = (50, 110);
place = (50, 110);
type = Stem;
},
{
place = (488, 110);
place = (488, 110);
type = Stem;
},
{
place = (519, 110);
place = (519, 110);
type = Stem;
}
);
layerId = "4BD00FE4-3084-423F-A840-AB4EC9D41C86";
shapes = (
{
closed = 1;
nodes = (
(368,0,ls),
(492,0,o),
(629,69,o),
(629,206,cs),
(629,272,o),
(596,330,o),
(542,367,c),
(578,402,o),
(598,447,o),
(598,498,cs),
(598,620,o),
(479,682,o),
(368,682,cs),
(50,682,l),
(50,0,l)
);
},
{
closed = 1;
nodes = (
(160,305,l),
(372,305,ls),
(429,305,o),
(519,282,o),
(519,209,cs),
(519,135,o),
(429,110,o),
(368,110,cs),
(160,110,l)
);
},
{
closed = 1;
nodes = (
(160,572,l),
(368,572,ls),
(451,572,o),
(488,533,o),
(488,492,cs),
(488,437,o),
(419,415,o),
(372,415,cs),
(160,415,l)
);
}
);
width = 658;
},
{
hints = (
{
horizontal = 1;
place = (0, 160);
place = (0, 160);
type = Stem;
},
{
horizontal = 1;
place = (279, 160);
place = (279, 160);
type = Stem;
},
{
horizontal = 1;
place = (523, 160);
place = (523, 160);
type = Stem;
},
{
place = (50, 160);
place = (50, 160);
type = Stem;
},
{
place = (450, 160);
place = (450, 160);
type = Stem;
},
{
place = (478, 160);
place = (478, 160);
type = Stem;
}
);
layerId = "88F21F75-214F-41EE-AE9C-B4AA79D6697C";
shapes = (
{
closed = 1;
nodes = (
(370,0,ls),
(501,0,o),
(638,76,o),
(638,218,cs),
(638,277,o),
(614,331,o),
(572,370,c),
(596,403,o),
(610,442,o),
(610,485,cs),
(610,614,o),
(489,683,o),
(370,683,cs),
(50,683,l),
(50,0,l)
);
},
{
closed = 1;
nodes = (
(210,279,l),
(374,279,ls),
(445,279,o),
(478,249,o),
(478,222,cs),
(478,191,o),
(441,160,o),
(370,160,cs),
(210,160,l)
);
},
{
closed = 1;
nodes = (
(210,523,l),
(370,523,ls),
(425,523,o),
(450,502,o),
(450,480,cs),
(450,449,o),
(398,439,o),
(374,439,cs),
(210,439,l)
);
}
);
width = 667;
}
);
note = B;
unicode = 66;
},
{
glyphname = C;
lastChange = "2021-06-21 21:48:47 +0000";
layers = (
{
hints = (
{
horizontal = 1;
origin = (0,25);
target = (0,6);
type = Stem;
},
{
horizontal = 1;
origin = (0,12);
target = (0,19);
type = Stem;
},
{
origin = (0,22);
target = (0,9);
type = Stem;
}
);
layerId = m01;
shapes = (
{
closed = 1;
nodes = (
(469,-5,o),
(578,81,o),
(616,218,c),
(553,218,l),
(518,115,o),
(438,55,o),
(326,55,cs),
(190,55,o),
(80,184,o),
(80,342,cs),
(80,499,o),
(190,628,o),
(326,628,cs),
(438,628,o),
(518,568,o),
(553,465,c),
(616,465,l),
(579,599,o),
(472,688,o),
(334,688,cs),
(143,688,o),
(20,518,o),
(20,341,cs),
(20,163,o),
(143,-5,o),
(332,-5,cs)
);
}
);
width = 636;
},
{
hints = (
{
horizontal = 1;
place = (-4, 28);
place = (-4, 28);
type = Stem;
},
{
horizontal = 1;
place = (661, 28);
place = (661, 28);
type = Stem;
},
{
place = (20, 28);
place = (20, 28);
type = Stem;
}
);
layerId = "0A901A10-6B10-40AA-AC10-6ECA400C9626";
shapes = (
{
closed = 1;
nodes = (
(457,-4,o),
(557,94,o),
(588,234,c),
(559,234,l),
(527,103,o),
(436,24,o),
(310,24,cs),
(165,24,o),
(48,167,o),
(48,342,cs),
(48,518,o),
(165,661,o),
(310,661,cs),
(436,661,o),
(527,581,o),
(559,451,c),
(588,451,l),
(558,588,o),
(460,689,o),
(318,689,cs),
(131,689,o),
(20,511,o),
(20,341,cs),
(20,171,o),
(130,-4,o),
(317,-4,cs)
);
}
);
width = 608;
},
{
hints = (
{
horizontal = 1;
place = (-5, 93);
place = (-5, 93);
type = Stem;
},
{
horizontal = 1;
place = (599, 93);
place = (599, 93);
type = Stem;
},
{
place = (20, 82);
place = (20, 82);
type = Stem;
}
);
layerId = "75DB7DBE-742D-4351-BF75-A4D495193B35";
shapes = (
{
closed = 1;
nodes = (
(441,-5,o),
(577,50,o),
(631,244,c),
(545,244,l),
(508,122,o),
(412,88,o),
(342,88,cs),
(230,88,o),
(112,178,o),
(112,344,cs),
(112,510,o),
(230,599,o),
(342,599,cs),
(412,599,o),
(505,565,o),
(545,444,c),
(631,444,l),
(577,636,o),
(442,692,o),
(334,692,cs),
(146,692,o),
(20,520,o),
(20,343,cs),
(20,163,o),
(148,-5,o),
(334,-5,cs)
);
}
);
width = 651;
},
{
hints = (
{
horizontal = 1;
place = (-5, 110);
place = (-5, 110);
type = Stem;
},
{
horizontal = 1;
place = (578, 110);
place = (578, 110);
type = Stem;
},
{
place = (20, 110);
place = (20, 110);
type = Stem;
}
);
layerId = "4BD00FE4-3084-423F-A840-AB4EC9D41C86";
shapes = (
{
closed = 1;
nodes = (
(498,-5,o),
(621,76,o),
(664,218,c),
(547,218,l),
(512,146,o),
(444,105,o),
(351,105,cs),
(229,105,o),
(130,211,o),
(130,341,cs),
(130,472,o),
(229,578,o),
(351,578,cs),
(444,578,o),
(512,537,o),
(547,465,c),
(664,465,l),
(622,604,o),
(501,688,o),
(359,688,cs),
(163,688,o),
(20,529,o),
(20,340,cs),
(20,152,o),
(164,-5,o),
(358,-5,cs)
);
}
);
width = 684;
},
{
hints = (
{
horizontal = 1;
place = (-5, 160);
place = (-5, 160);
type = Stem;
},
{
horizontal = 1;
place = (528, 160);
place = (528, 160);
type = Stem;
},
{
place = (20, 160);
place = (20, 160);
type = Stem;
}
);
layerId = "88F21F75-214F-41EE-AE9C-B4AA79D6697C";
shapes = (
{
closed = 1;
nodes = (
(505,-5,o),
(633,84,o),
(683,218,c),
(500,218,l),
(467,179,o),
(418,155,o),
(362,155,cs),
(260,155,o),
(180,236,o),
(180,340,cs),
(180,444,o),
(262,528,o),
(362,528,cs),
(416,528,o),
(465,504,o),
(498,465,c),
(682,465,l),
(632,597,o),
(505,688,o),
(362,688,cs),
(173,688,o),
(20,531,o),
(20,340,cs),
(20,150,o),
(171,-5,o),
(361,-5,cs)
);
}
);
width = 703;
}
);
note = C;
unicode = 67;
},
{
glyphname = D;
lastChange = "2021-06-21 21:48:47 +0000";
layers = (
{
hints = (
{
horizontal = 1;
origin = (0,8);
target = (1,8);
type = Stem;
},
{
horizontal = 1;
origin = (1,0);
target = (0,7);
type = Stem;
},
{
origin = (0,8);
target = (1,8);
type = Stem;
},
{
origin = (1,4);
target = (0,3);
type = Stem;
}
);
layerId = m01;
shapes = (
{
closed = 1;
nodes = (
(262,0,ls),
(465,0,o),
(610,143,o),
(610,343,cs),
(610,542,o),
(465,684,o),
(262,684,cs),
(50,684,l),
(50,0,l)
);
},
{
closed = 1;
nodes = (
(110,624,l),
(262,624,ls),
(460,624,o),
(550,478,o),
(550,337,cs),
(550,173,o),
(428,60,o),
(262,60,cs),
(110,60,l)
);
}
);
width = 630;
},
{
hints = (
{
horizontal = 1;
place = (0, 60);
place = (0, 60);
type = Stem;
},
{
horizontal = 1;
place = (624, 60);
place = (624, 60);
type = Stem;
},
{
place = (43, 60);
place = (43, 60);
type = Stem;
},
{
place = (543, 60);
place = (543, 60);
type = Stem;
}
);
layerId = "0A901A10-6B10-40AA-AC10-6ECA400C9626";
shapes = (
{
closed = 1;
nodes = (
(246,0,ls),
(447,0,o),
(578,149,o),
(578,342,cs),
(578,535,o),
(446,683,o),
(246,683,cs),
(50,683,l),
(50,0,l)
);
},
{
closed = 1;
nodes = (
(78,655,l),
(246,655,ls),
(455,655,o),
(550,492,o),
(550,337,cs),
(550,161,o),
(428,28,o),
(246,28,cs),
(78,28,l)
);
}
);
width = 598;
},
{
hints = (
{
horizontal = 1;
place = (0, 60);
place = (0, 60);
type = Stem;
},
{
horizontal = 1;
place = (624, 60);
place = (624, 60);
type = Stem;
},
{
place = (62, 60);
place = (62, 60);
type = Stem;
},
{
place = (562, 60);
place = (562, 60);
type = Stem;
}
);
layerId = "75DB7DBE-742D-4351-BF75-A4D495193B35";
shapes = (
{
closed = 1;
nodes = (
(269,0,ls),
(471,0,o),
(620,142,o),
(620,345,cs),
(620,550,o),
(469,689,o),
(269,689,cs),
(50,689,l),
(50,0,l)
);
},
{
closed = 1;
nodes = (
(132,595,l),
(269,595,ls),
(430,595,o),
(538,491,o),
(538,340,cs),
(538,155,o),
(374,93,o),
(269,93,cs),
(132,93,l)
);
}
);
width = 640;
},
{
hints = (
{
horizontal = 1;
place = (0, 60);
place = (0, 60);
type = Stem;
},
{
horizontal = 1;
place = (624, 60);
place = (624, 60);
type = Stem;
},
{
place = (90, 60);
place = (90, 60);
type = Stem;
},
{
place = (590, 60);
place = (590, 60);
type = Stem;
}
);
layerId = "4BD00FE4-3084-423F-A840-AB4EC9D41C86";
shapes = (
{
closed = 1;
nodes = (
(287,0,ls),
(491,0,o),
(660,132,o),
(660,342,cs),
(660,550,o),
(492,682,o),
(287,682,cs),
(50,682,l),
(50,0,l)
);
},
{
closed = 1;
nodes = (
(160,572,l),
(287,572,ls),
(468,572,o),
(550,452,o),
(550,335,cs),
(550,190,o),
(426,110,o),
(287,110,cs),
(160,110,l)
);
}
);
width = 680;
},
{
hints = (
{
horizontal = 1;
place = (0, 60);
place = (0, 60);
type = Stem;
},
{
horizontal = 1;
place = (624, 60);
place = (624, 60);
type = Stem;
},
{
place = (108, 60);
place = (108, 60);
type = Stem;
},
{
place = (608, 60);
place = (608, 60);
type = Stem;
}
);
layerId = "88F21F75-214F-41EE-AE9C-B4AA79D6697C";
shapes = (
{
closed = 1;
nodes = (
(296,0,ls),
(499,0,o),
(666,134,o),
(666,342,cs),
(666,551,o),
(496,682,o),
(296,682,cs),
(50,682,l),
(50,0,l)
);
},
{
closed = 1;
nodes = (
(210,522,l),
(296,522,ls),
(441,522,o),
(506,431,o),
(506,341,cs),
(506,251,o),
(441,160,o),
(296,160,cs),
(210,160,l)
);
}
);
width = 686;
}
);
note = D;
unicode = 68;
},
{
glyphname = E;
lastChange = "2021-06-21 21:48:47 +0000";
layers = (
{
hints = (
{
horizontal = 1;
origin = (0,11);
target = (0,2);
type = Stem;
},
{
horizontal = 1;
origin = (0,3);
target = (0,6);
type = Stem;
},
{
horizontal = 1;
origin = (0,7);
target = (0,10);
type = Stem;
},
{
origin = (0,11);
target = (0,2);
type = Stem;
}
);
layerId = m01;
shapes = (
{
closed = 1;
nodes = (
(524,0,l),
(524,60,l),
(110,60,l),
(110,328,l),
(476,328,l),
(476,388,l),
(110,388,l),
(110,623,l),
(516,623,l),
(516,683,l),
(50,683,l),
(50,0,l)
);
}
);
width = 544;
},
{
hints = (
{
horizontal = 1;
place = (0, 60);
place = (0, 60);
type = Stem;
},
{
horizontal = 1;
place = (328, 60);
place = (328, 60);
type = Stem;
},
{
horizontal = 1;
place = (623, 60);
place = (623, 60);
type = Stem;
},
{
place = (52, 60);
place = (52, 60);
type = Stem;
}
);
layerId = "0A901A10-6B10-40AA-AC10-6ECA400C9626";
shapes = (
{
closed = 1;
nodes = (
(508,0,l),
(508,28,l),
(79,28,l),
(79,345,l),
(460,345,l),
(460,373,l),
(79,373,l),
(79,655,l),
(500,655,l),
(500,683,l),
(50,683,l),
(50,0,l)
);
}
);
width = 527;
},
{
hints = (
{
horizontal = 1;
place = (0, 60);
place = (0, 60);
type = Stem;
},
{
horizontal = 1;
place = (328, 60);
place = (328, 60);
type = Stem;
},
{
horizontal = 1;
place = (623, 60);
place = (623, 60);
type = Stem;
},
{
place = (62, 60);
place = (62, 60);
type = Stem;
}
);
layerId = "75DB7DBE-742D-4351-BF75-A4D495193B35";
shapes = (
{
closed = 1;
nodes = (
(537,0,l),
(537,83,l),
(132,83,l),
(132,313,l),
(489,313,l),
(489,396,l),
(132,396,l),
(132,604,l),
(529,604,l),
(529,688,l),
(50,688,l),
(50,0,l)
);
}
);
width = 557;
},
{
hints = (
{
horizontal = 1;
place = (0, 60);
place = (0, 60);
type = Stem;
},
{
horizontal = 1;
place = (328, 60);
place = (328, 60);
type = Stem;
},
{
horizontal = 1;
place = (623, 60);
place = (623, 60);
type = Stem;
},
{
place = (78, 60);
place = (78, 60);
type = Stem;
}
);
layerId = "4BD00FE4-3084-423F-A840-AB4EC9D41C86";
shapes = (
{
closed = 1;
nodes = (
(549,0,l),
(549,110,l),
(160,110,l),
(160,301,l),
(501,301,l),
(501,411,l),
(160,411,l),
(160,572,l),
(541,572,l),
(541,682,l),
(50,682,l),
(50,0,l)
);
}
);
width = 568;
},
{
hints = (
{
horizontal = 1;
place = (0, 60);
place = (0, 60);
type = Stem;
},
{
horizontal = 1;
place = (328, 60);
place = (328, 60);
type = Stem;
},
{
horizontal = 1;
place = (623, 60);
place = (623, 60);
type = Stem;
},
{
place = (90, 60);
place = (90, 60);
type = Stem;
}
);
layerId = "88F21F75-214F-41EE-AE9C-B4AA79D6697C";
shapes = (
{
closed = 1;
nodes = (
(543,0,l),
(543,160,l),
(210,160,l),
(210,274,l),
(503,274,l),
(503,434,l),
(210,434,l),
(210,522,l),
(536,522,l),
(536,682,l),
(50,682,l),
(50,0,l)
);
}
);
width = 562;
}
);
note = E;
unicode = 69;
},
{
glyphname = F;
lastChange = "2021-06-21 21:48:47 +0000";
layers = (
{
hints = (
{
horizontal = 1;
origin = (0,9);
target = up;
type = BottomGhost;
},
{
horizontal = 1;
origin = (0,1);
target = (0,4);
type = Stem;
},
{
horizontal = 1;
origin = (0,5);
target = (0,8);
type = Stem;
},
{
origin = (0,9);
target = (0,0);
type = Stem;
}
);
layerId = m01;
shapes = (
{
closed = 1;
nodes = (
(110,0,l),
(110,328,l),
(452,328,l),
(452,388,l),
(110,388,l),
(110,622,l),
(492,622,l),
(492,682,l),
(50,682,l),
(50,0,l)
);
}
);
width = 512;
},
{
hints = (
{
horizontal = 1;
place = (0, 21);
target = up;
type = BottomGhost;
},
{
horizontal = 1;
place = (345, 28);
place = (345, 28);
type = Stem;
},
{
horizontal = 1;
place = (655, 28);
place = (655, 28);
type = Stem;
},
{
place = (50, 29);
place = (50, 29);
type = Stem;
}
);
layerId = "0A901A10-6B10-40AA-AC10-6ECA400C9626";
shapes = (
{
closed = 1;
nodes = (
(79,0,l),
(79,345,l),
(460,345,l),
(460,373,l),
(79,373,l),
(79,655,l),
(500,655,l),
(500,683,l),
(50,683,l),
(50,0,l)
);
}
);
width = 519;
},
{
hints = (
{
horizontal = 1;
place = (0, 21);
target = up;
type = BottomGhost;
},
{
horizontal = 1;
place = (313, 93);
place = (313, 93);
type = Stem;
},
{
horizontal = 1;
place = (594, 93);
place = (594, 93);
type = Stem;
},
{
place = (50, 82);
place = (50, 82);
type = Stem;
}
);
layerId = "75DB7DBE-742D-4351-BF75-A4D495193B35";
shapes = (
{
closed = 1;
nodes = (
(132,0,l),
(132,323,l),
(466,323,l),
(466,406,l),
(132,406,l),
(132,604,l),
(505,604,l),
(505,687,l),
(50,687,l),
(50,0,l)
);
}
);
width = 525;
},
{
hints = (
{
horizontal = 1;
place = (0, 21);
target = up;
type = BottomGhost;
},
{
horizontal = 1;
place = (289, 110);
place = (289, 110);
type = Stem;
},
{
horizontal = 1;
place = (572, 110);
place = (572, 110);
type = Stem;
},
{
place = (50, 110);
place = (50, 110);
type = Stem;
}
);
layerId = "4BD00FE4-3084-423F-A840-AB4EC9D41C86";
shapes = (
{
closed = 1;
nodes = (
(160,0,l),
(160,289,l),
(477,289,l),
(477,399,l),
(160,399,l),
(160,572,l),
(517,572,l),
(517,682,l),
(50,682,l),
(50,0,l)
);
}
);
width = 536;
},
{
hints = (
{
horizontal = 1;
place = (0, 21);
target = up;
type = BottomGhost;
},
{
horizontal = 1;
place = (249, 160);
place = (249, 160);
type = Stem;
},
{
horizontal = 1;
place = (520, 160);
place = (520, 160);
type = Stem;
},
{
place = (50, 160);
place = (50, 160);
type = Stem;
}
);
layerId = "88F21F75-214F-41EE-AE9C-B4AA79D6697C";
shapes = (
{
closed = 1;
nodes = (
(210,0,l),
(210,249,l),
(502,249,l),
(502,409,l),
(210,409,l),
(210,520,l),
(542,520,l),
(542,680,l),
(50,680,l),
(50,0,l)
);
}
);
width = 561;
}
);
note = F;
unicode = 70;
},
{
glyphname = G;
lastChange = "2021-06-21 21:49:56 +0000";
layers = (
{
hints = (
{
horizontal = 1;
origin = (0,29);
target = (0,10);
type = Stem;
},
{
horizontal = 1;
origin = (0,5);
target = (0,4);
type = Stem;
},
{
horizontal = 1;
origin = (0,16);
target = (0,23);
type = Stem;
},
{
origin = (0,26);
target = (0,13);
type = Stem;
}
);
layerId = m01;
shapes = (
{
closed = 1;
nodes = (
(524,-5,o),
(635,135,o),
(641,318,cs),
(642,349,l),
(351,349,l),
(351,289,l),
(601,289,l),
(580,308,l),
(569,152,o),
(476,55,o),
(336,55,cs),
(200,55,o),
(90,184,o),
(90,342,cs),
(90,499,o),
(200,628,o),
(336,628,cs),
(441,628,o),
(520,574,o),
(558,480,c),
(621,480,l),
(580,607,o),
(474,688,o),
(343,688,cs),
(153,688,o),
(30,518,o),
(30,341,cs),
(30,161,o),
(154,-5,o),
(346,-5,cs)
);
}
);
width = 672;
},
{
hints = (
{
horizontal = 1;
place = (-4, 28);
place = (-4, 28);
type = Stem;
},
{
horizontal = 1;
place = (305, 28);
place = (305, 28);
type = Stem;
},
{
horizontal = 1;
place = (661, 28);
place = (661, 28);
type = Stem;
},
{
place = (30, 28);
place = (30, 28);
type = Stem;
},
{
place = (580, 29);
place = (580, 29);
type = Stem;
}
);
layerId = "0A901A10-6B10-40AA-AC10-6ECA400C9626";
shapes = (
{
closed = 1;
nodes = (
(505,-4,o),
(602,145,o),
(608,317,cs),
(609,333,l),
(335,333,l),
(335,305,l),
(603,305,l),
(581,324,l),
(575,139,o),
(474,24,o),
(320,24,cs),
(175,24,o),
(58,167,o),
(58,342,cs),
(58,518,o),
(175,661,o),
(320,661,cs),
(436,661,o),
(523,596,o),
(561,482,c),
(590,482,l),
(553,604,o),
(456,689,o),
(327,689,cs),
(140,689,o),
(30,511,o),
(30,341,cs),
(30,170,o),
(141,-4,o),
(330,-4,cs)
);
}
);
width = 638;
},
{
hints = (
{
horizontal = 1;
place = (-5, 93);
place = (-5, 93);
type = Stem;
},
{
horizontal = 1;
place = (276, 93);
place = (276, 93);
type = Stem;
},
{
horizontal = 1;
place = (599, 93);
place = (599, 93);
type = Stem;
},
{
place = (30, 82);
place = (30, 82);
type = Stem;
}
);
layerId = "75DB7DBE-742D-4351-BF75-A4D495193B35";
shapes = (
{
closed = 1;
nodes = (
(553,-5,o),
(645,159,o),
(651,340,cs),
(652,369,l),
(343,369,l),
(343,286,l),
(586,286,l),
(566,297,l),
(547,142,o),
(439,88,o),
(340,88,cs),
(240,88,o),
(112,178,o),
(112,344,cs),
(112,510,o),
(240,599,o),
(340,599,cs),
(418,599,o),
(498,563,o),
(551,458,c),
(638,458,l),
(582,641,o),
(448,692,o),
(344,692,cs),
(155,692,o),
(30,520,o),
(30,342,cs),
(30,160,o),
(160,-5,o),
(357,-5,cs)
);
}
);
width = 682;
},
{
hints = (
{
horizontal = 1;
place = (-5, 110);
place = (-5, 110);
type = Stem;
},
{
horizontal = 1;
place = (266, 110);
place = (266, 110);
type = Stem;
},
{
horizontal = 1;
place = (578, 110);
place = (578, 110);
type = Stem;
},
{
place = (30, 110);
place = (30, 110);
type = Stem;
}
);
layerId = "4BD00FE4-3084-423F-A840-AB4EC9D41C86";
shapes = (
{
closed = 1;
nodes = (
(553,-5,o),
(682,126,o),
(691,331,cs),
(693,376,l),
(376,376,l),
(376,266,l),
(618,266,l),
(579,299,l),
(565,177,o),
(483,105,o),
(361,105,cs),
(239,105,o),
(140,211,o),
(140,341,cs),
(140,472,o),
(239,578,o),
(370,578,cs),
(441,578,o),
(504,547,o),
(542,490,c),
(665,490,l),
(616,616,o),
(499,688,o),
(368,688,cs),
(173,688,o),
(30,529,o),
(30,340,cs),
(30,150,o),
(175,-5,o),
(371,-5,cs)
);
}
);
width = 722;
},
{
hints = (
{
horizontal = 1;
place = (-5, 160);
place = (-5, 160);
type = Stem;
},
{
horizontal = 1;
place = (243, 160);
place = (243, 160);
type = Stem;
},
{
horizontal = 1;
place = (528, 160);
place = (528, 160);
type = Stem;
},
{
place = (30, 160);
place = (30, 160);
type = Stem;
},
{
place = (376, 319);
place = (376, 319);
type = Stem;
}
);
layerId = "88F21F75-214F-41EE-AE9C-B4AA79D6697C";
shapes = (
{
closed = 1;
nodes = (
(553,-5,o),
(683,128,o),
(693,325,cs),
(697,403,l),
(376,403,l),
(376,243,l),
(560,243,l),
(528,278,l),
(502,191,o),
(449,155,o),
(377,155,cs),
(267,155,o),
(190,239,o),
(190,342,cs),
(190,444,o),
(267,528,o),
(366,528,cs),
(392,528,o),
(438,522,o),
(475,493,c),
(666,493,l),
(616,617,o),
(499,688,o),
(368,688,cs),
(174,688,o),
(30,530,o),
(30,340,cs),
(30,150,o),
(176,-5,o),
(372,-5,cs)
);
}
);
width = 726;
}
);
note = G;
unicode = 71;
},
{
glyphname = H;
lastChange = "2021-06-21 21:48:47 +0000";
layers = (
{
hints = (
{
horizontal = 1;
origin = (0,11);
target = up;
type = BottomGhost;
},
{
horizontal = 1;
origin = (0,1);
target = (0,8);
type = Stem;
},
{
origin = (0,11);
target = (0,0);
type = Stem;
},
{
origin = (0,3);
target = (0,4);
type = Stem;
}
);
layerId = m01;
shapes = (
{
closed = 1;
nodes = (
(110,0,l),
(110,332,l),
(525,332,l),
(525,0,l),
(585,0,l),
(585,683,l),
(525,683,l),
(525,392,l),
(110,392,l),
(110,683,l),
(50,683,l),
(50,0,l)
);
}
);
width = 635;
},
{
hints = (
{
horizontal = 1;
place = (0, 21);
target = up;
type = BottomGhost;
},
{
horizontal = 1;
place = (348, 28);
place = (348, 28);
type = Stem;
},
{
place = (50, 28);
place = (50, 28);
type = Stem;
},
{
place = (525, 28);
place = (525, 28);
type = Stem;
}
);
layerId = "0A901A10-6B10-40AA-AC10-6ECA400C9626";
shapes = (
{
closed = 1;
nodes = (
(78,0,l),
(78,348,l),
(525,348,l),
(525,0,l),
(553,0,l),
(553,683,l),
(525,683,l),
(525,376,l),
(78,376,l),
(78,683,l),
(50,683,l),
(50,0,l)
);
}
);
width = 602;
},
{
hints = (
{
horizontal = 1;
place = (0, 21);
target = up;
type = BottomGhost;
},
{
horizontal = 1;
place = (317, 93);
place = (317, 93);
type = Stem;
},
{
place = (50, 82);
place = (50, 82);
type = Stem;
},
{
place = (514, 82);
place = (514, 82);
type = Stem;
}
);
layerId = "75DB7DBE-742D-4351-BF75-A4D495193B35";
shapes = (
{
closed = 1;
nodes = (
(132,0,l),
(132,327,l),
(514,327,l),
(514,0,l),
(596,0,l),
(596,688,l),
(514,688,l),
(514,410,l),
(132,410,l),
(132,688,l),
(50,688,l),
(50,0,l)
);
}
);
width = 646;
},
{
hints = (
{
horizontal = 1;
place = (0, 21);
target = up;
type = BottomGhost;
},
{
horizontal = 1;
place = (307, 110);
place = (307, 110);
type = Stem;
},
{
place = (50, 110);
place = (50, 110);
type = Stem;
},
{
place = (525, 110);
place = (525, 110);
type = Stem;
}
);
layerId = "4BD00FE4-3084-423F-A840-AB4EC9D41C86";
shapes = (
{
closed = 1;
nodes = (
(160,0,l),
(160,307,l),
(525,307,l),
(525,0,l),
(635,0,l),
(635,683,l),
(525,683,l),
(525,417,l),
(160,417,l),
(160,683,l),
(50,683,l),
(50,0,l)
);
}
);
width = 684;
},
{
hints = (
{
horizontal = 1;
place = (0, 21);
target = up;
type = BottomGhost;
},
{
horizontal = 1;
place = (282, 160);
place = (282, 160);
type = Stem;
},
{
place = (50, 160);
place = (50, 160);
type = Stem;
},
{
place = (525, 160);
place = (525, 160);
type = Stem;
}
);
layerId = "88F21F75-214F-41EE-AE9C-B4AA79D6697C";
shapes = (
{
closed = 1;
nodes = (
(210,0,l),
(210,282,l),
(525,282,l),
(525,0,l),
(685,0,l),
(685,683,l),
(525,683,l),
(525,442,l),
(210,442,l),
(210,683,l),
(50,683,l),
(50,0,l)
);
}
);
width = 734;
}
);
note = H;
unicode = 72;
},
{
glyphname = I;
lastChange = "2021-06-21 21:48:47 +0000";
layers = (
{
hints = (
{
horizontal = 1;
origin = (0,3);
target = up;
type = BottomGhost;
},
{
origin = (0,3);
target = (0,0);
type = Stem;
}
);
layerId = m01;
shapes = (
{
closed = 1;
nodes = (
(110,0,l),
(110,683,l),
(50,683,l),
(50,0,l)
);
}
);
width = 160;
},
{
hints = (
{
horizontal = 1;
place = (0, 21);
target = up;
type = BottomGhost;
},
{
horizontal = 1;
place = (683, -20);
target = down;
type = TopGhost;
},
{
place = (35, 60);
place = (35, 60);
type = Stem;
}
);
layerId = "0A901A10-6B10-40AA-AC10-6ECA400C9626";
shapes = (
{
closed = 1;
nodes = (
(81,0,l),
(81,684,l),
(50,684,l),
(50,0,l)
);
}
);
width = 131;
},
{
hints = (
{
horizontal = 1;
place = (0, 21);
target = up;
type = BottomGhost;
},
{
horizontal = 1;
place = (683, -20);
target = down;
type = TopGhost;
},
{
place = (62, 60);
place = (62, 60);
type = Stem;
}
);
layerId = "75DB7DBE-742D-4351-BF75-A4D495193B35";
shapes = (
{
closed = 1;
nodes = (
(132,0,l),
(132,688,l),
(50,688,l),
(50,0,l)
);
}
);
width = 182;
},
{
hints = (
{
horizontal = 1;
place = (0, 21);
target = up;
type = BottomGhost;
},
{
horizontal = 1;
place = (683, -20);
target = down;
type = TopGhost;
},
{
place = (75, 60);
place = (75, 60);
type = Stem;
}
);
layerId = "4BD00FE4-3084-423F-A840-AB4EC9D41C86";
shapes = (
{
closed = 1;
nodes = (
(160,0,l),
(160,683,l),
(50,683,l),
(50,0,l)
);
}
);
width = 210;
},
{
hints = (
{
horizontal = 1;
place = (0, 21);
target = up;
type = BottomGhost;
},
{
horizontal = 1;
place = (683, -20);
target = down;
type = TopGhost;
},
{
place = (100, 60);
place = (100, 60);
type = Stem;
}
);
layerId = "88F21F75-214F-41EE-AE9C-B4AA79D6697C";
shapes = (
{
closed = 1;
nodes = (
(210,0,l),
(210,683,l),
(50,683,l),
(50,0,l)
);
}
);
width = 260;
}
);
note = I;
unicode = 73;
},
{
glyphname = J;
lastChange = "2021-06-21 21:48:47 +0000";
layers = (
{
hints = (
{
horizontal = 1;
origin = (0,17);
target = (0,8);
type = Stem;
},
{
origin = (0,14);
target = (0,11);
type = Stem;
},
{
origin = (0,5);
target = (0,2);
type = Stem;
}
);
layerId = m01;
shapes = (
{
closed = 1;
nodes = (
(342,-5,o),
(433,85,o),
(433,196,cs),
(433,684,l),
(373,684,l),
(373,196,ls),
(373,118,o),
(309,55,o),
(231,55,cs),
(153,55,o),
(90,118,o),
(90,196,cs),
(90,227,l),
(30,227,l),
(30,196,ls),
(30,85,o),
(120,-5,o),
(231,-5,cs)
);
}
);
width = 473;
},
{
hints = (
{
horizontal = 1;
place = (-5, 60);
place = (-5, 60);
type = Stem;
},
{
horizontal = 1;
place = (694, -20);
target = down;
type = TopGhost;
},
{
place = (5, 60);
place = (5, 60);
type = Stem;
},
{
place = (348, 60);
place = (348, 60);
type = Stem;
}
);
layerId = "0A901A10-6B10-40AA-AC10-6ECA400C9626";
shapes = (
{
closed = 1;
nodes = (
(317,-4,o),
(401,79,o),
(401,181,cs),
(401,684,l),
(373,684,l),
(373,181,ls),
(373,95,o),
(302,24,o),
(215,24,cs),
(129,24,o),
(58,95,o),
(58,181,cs),
(58,212,l),
(30,212,l),
(30,181,ls),
(30,79,o),
(113,-4,o),
(215,-4,cs)
);
}
);
width = 441;
},
{
hints = (
{
horizontal = 1;
place = (-5, 60);
place = (-5, 60);
type = Stem;
},
{
horizontal = 1;
place = (694, -20);
target = down;
type = TopGhost;
},
{
place = (42, 60);
place = (42, 60);
type = Stem;
},
{
place = (384, 60);
place = (384, 60);
type = Stem;
}
);
layerId = "75DB7DBE-742D-4351-BF75-A4D495193B35";
shapes = (
{
closed = 1;
nodes = (
(308,-5,o),
(447,49,o),
(447,205,cs),
(447,689,l),
(365,689,l),
(365,205,ls),
(365,128,o),
(290,88,o),
(238,88,cs),
(187,88,o),
(112,128,o),
(112,205,cs),
(112,252,l),
(30,252,l),
(30,205,ls),
(30,49,o),
(169,-5,o),
(238,-5,cs)
);
}
);
width = 487;
},
{
hints = (
{
horizontal = 1;
place = (-5, 60);
place = (-5, 60);
type = Stem;
},
{
horizontal = 1;
place = (694, -20);
target = down;
type = TopGhost;
},
{
place = (50, 60);
place = (50, 60);
type = Stem;
},
{
place = (393, 60);
place = (393, 60);
type = Stem;
}
);
layerId = "4BD00FE4-3084-423F-A840-AB4EC9D41C86";
shapes = (
{
closed = 1;
nodes = (
(381,-4,o),
(483,97,o),
(483,222,cs),
(483,684,l),
(373,684,l),
(373,222,ls),
(373,158,o),
(320,106,o),
(256,106,cs),
(192,106,o),
(140,158,o),
(140,222,cs),
(140,253,l),
(30,253,l),
(30,222,ls),
(30,97,o),
(131,-4,o),
(256,-4,cs)
);
}
);
width = 523;
},
{
hints = (
{
horizontal = 1;
place = (-5, 60);
place = (-5, 60);
type = Stem;
},
{
horizontal = 1;
place = (694, -20);
target = down;
type = TopGhost;
},
{
place = (70, 60);
place = (70, 60);
type = Stem;
},
{
place = (413, 60);
place = (413, 60);
type = Stem;
}
);
layerId = "88F21F75-214F-41EE-AE9C-B4AA79D6697C";
shapes = (
{
closed = 1;
nodes = (
(418,-5,o),
(533,103,o),
(533,240,cs),
(533,683,l),
(373,683,l),
(373,240,ls),
(373,193,o),
(332,155,o),
(281,155,cs),
(231,155,o),
(190,193,o),
(190,240,cs),
(190,269,l),
(30,269,l),
(30,240,ls),
(30,102,o),
(146,-5,o),
(281,-5,cs)
);
}
);
width = 573;
}
);
note = J;
unicode = 74;
},
{
glyphname = K;
lastChange = "2021-06-21 21:48:47 +0000";
layers = (
{
hints = (
{
horizontal = 1;
origin = (0,11);
target = up;
type = BottomGhost;
},
{
origin = (0,11);
target = (0,0);
type = Stem;
}
);
layerId = m01;
shapes = (
{
closed = 1;
nodes = (
(110,0,l),
(110,237,l),
(245,360,l),
(543,0,l),
(621,0,l),
(289,400,l),
(599,683,l),
(510,683,l),
(110,318,l),
(110,683,l),
(50,683,l),
(50,0,l)
);
}
);
width = 641;
},
{
hints = (
{
horizontal = 1;
place = (0, 21);
target = up;
type = BottomGhost;
},
{
place = (50, 28);
place = (50, 28);
type = Stem;
}
);
layerId = "0A901A10-6B10-40AA-AC10-6ECA400C9626";
shapes = (
{
closed = 1;
nodes = (
(78,0,l),
(78,244,l),
(230,383,l),
(547,0,l),
(584,0,l),
(251,402,l),
(560,683,l),
(518,683,l),
(78,282,l),
(78,683,l),
(50,683,l),
(50,0,l)
);
}
);
width = 604;
},
{
hints = (
{
horizontal = 1;
place = (0, 21);
target = up;
type = BottomGhost;
},
{
place = (50, 82);
place = (50, 82);
type = Stem;
}
);
layerId = "75DB7DBE-742D-4351-BF75-A4D495193B35";
shapes = (
{
closed = 1;
nodes = (
(132,0,l),
(132,234,l),
(251,340,l),
(539,0,l),
(654,0,l),
(316,398,l),
(642,688,l),
(508,688,l),
(132,353,l),
(132,688,l),
(50,688,l),
(50,0,l)
);
}
);
width = 674;
},
{
hints = (
{
horizontal = 1;
place = (0, 21);
target = up;
type = BottomGhost;
},
{
place = (50, 110);
place = (50, 110);
type = Stem;
}
);
layerId = "4BD00FE4-3084-423F-A840-AB4EC9D41C86";
shapes = (
{
closed = 1;
nodes = (
(160,0,l),
(160,226,l),
(267,323,l),
(535,0,l),
(678,0,l),
(348,398,l),
(661,683,l),
(498,683,l),
(160,375,l),
(160,683,l),
(50,683,l),
(50,0,l)
);
}
);
width = 698;
},
{
hints = (
{
horizontal = 1;
place = (0, 21);
target = up;
type = BottomGhost;
},
{
place = (50, 160);
place = (50, 160);
type = Stem;
}
);
layerId = "88F21F75-214F-41EE-AE9C-B4AA79D6697C";
shapes = (
{
closed = 1;
nodes = (
(210,0,l),
(210,216,l),
(284,288,l),
(498,0,l),
(697,0,l),
(399,400,l),
(691,683,l),
(461,683,l),
(210,439,l),
(210,683,l),
(50,683,l),
(50,0,l)
);
}
);
width = 717;
}
);
note = K;
unicode = 75;
},
{
glyphname = L;
lastChange = "2021-06-21 21:48:47 +0000";
layers = (
{
hints = (
{
horizontal = 1;
origin = (0,5);
target = (0,2);
type = Stem;
},
{
origin = (0,5);
target = (0,2);
type = Stem;
}
);
layerId = m01;
shapes = (
{
closed = 1;
nodes = (
(490,0,l),
(490,60,l),
(110,60,l),
(110,683,l),
(50,683,l),
(50,0,l)
);
}
);
width = 510;
},
{
hints = (
{
horizontal = 1;
place = (0, 28);
place = (0, 28);
type = Stem;
},
{
place = (50, 28);
place = (50, 28);
type = Stem;
}
);
layerId = "0A901A10-6B10-40AA-AC10-6ECA400C9626";
shapes = (
{
closed = 1;
nodes = (
(474,0,l),
(474,28,l),
(78,28,l),
(78,683,l),
(50,683,l),
(50,0,l)
);
}
);
width = 493;
},
{
hints = (
{
horizontal = 1;
place = (0, 93);
place = (0, 93);
type = Stem;
},
{
place = (50, 82);
place = (50, 82);
type = Stem;
}
);
layerId = "75DB7DBE-742D-4351-BF75-A4D495193B35";
shapes = (
{
closed = 1;
nodes = (
(504,0,l),
(504,93,l),
(132,93,l),
(132,688,l),
(50,688,l),
(50,0,l)
);
}
);
width = 524;
},
{
hints = (
{
horizontal = 1;
place = (0, 110);
place = (0, 110);
type = Stem;
},
{
place = (50, 110);
place = (50, 110);
type = Stem;
}
);
layerId = "4BD00FE4-3084-423F-A840-AB4EC9D41C86";
shapes = (
{
closed = 1;
nodes = (
(515,0,l),
(515,110,l),
(160,110,l),
(160,683,l),
(50,683,l),
(50,0,l)
);
}
);
width = 534;
},
{
hints = (
{
horizontal = 1;
place = (0, 160);
place = (0, 160);
type = Stem;
},
{
place = (50, 160);
place = (50, 160);
type = Stem;
}
);
layerId = "88F21F75-214F-41EE-AE9C-B4AA79D6697C";
shapes = (
{
closed = 1;
nodes = (
(540,0,l),
(540,160,l),
(210,160,l),
(210,683,l),
(50,683,l),
(50,0,l)
);
}
);
width = 559;
}
);
note = L;
unicode = 76;
},
{
glyphname = M;
lastChange = "2021-06-21 21:48:47 +0000";
layers = (
{
hints = (
{
horizontal = 1;
origin = (0,12);
target = up;
type = BottomGhost;
},
{
horizontal = 1;
origin = (0,12);
target = (0,9);
type = Stem;
},
{
origin = (0,12);
target = (0,0);
type = Stem;
},
{
origin = (0,5);
target = (0,6);
type = Stem;
}
);
layerId = m01;
shapes = (
{
closed = 1;
nodes = (
(110,0,l),
(110,546,l),
(361,0,l),
(426,0,l),
(677,546,l),
(677,0,l),
(737,0,l),
(737,683,l),
(674,683,l),
(394,72,l),
(113,683,l),
(50,683,l),
(50,0,l)
);
}
);
width = 787;
},
{
hints = (
{
horizontal = 1;
place = (0, 34);
place = (0, 34);
type = Stem;
},
{
place = (50, 28);
place = (50, 28);
type = Stem;
},
{
place = (677, 28);
place = (677, 28);
type = Stem;
}
);
layerId = "0A901A10-6B10-40AA-AC10-6ECA400C9626";
shapes = (
{
closed = 1;
nodes = (
(78,0,l),
(78,619,l),
(362,0,l),
(393,0,l),
(677,619,l),
(677,0,l),
(705,0,l),
(705,683,l),
(676,683,l),
(378,34,l),
(79,683,l),
(50,683,l),
(50,0,l)
);
}
);
width = 754;
},
{
hints = (
{
horizontal = 1;
place = (0, 118);
place = (0, 118);
type = Stem;
},
{
place = (50, 82);
place = (50, 82);
type = Stem;
},
{
place = (663, 82);
place = (663, 82);
type = Stem;
}
);
layerId = "75DB7DBE-742D-4351-BF75-A4D495193B35";
shapes = (
{
closed = 1;
nodes = (
(132,0,l),
(132,483,l),
(359,0,l),
(435,0,l),
(663,483,l),
(663,0,l),
(745,0,l),
(745,688,l),
(665,688,l),
(397,118,l),
(129,688,l),
(50,688,l),
(50,0,l)
);
}
);
width = 795;
},
{
hints = (
{
horizontal = 1;
place = (0, 132);
place = (0, 132);
type = Stem;
},
{
place = (50, 110);
place = (50, 110);
type = Stem;
},
{
place = (677, 110);
place = (677, 110);
type = Stem;
}
);
layerId = "4BD00FE4-3084-423F-A840-AB4EC9D41C86";
shapes = (
{
closed = 1;
nodes = (
(160,0,l),
(160,432,l),
(358,0,l),
(479,0,l),
(677,432,l),
(677,0,l),
(787,0,l),
(787,683,l),
(672,683,l),
(419,132,l),
(166,683,l),
(50,683,l),
(50,0,l)
);
}
);
width = 836;
},
{
hints = (
{
horizontal = 1;
place = (0, 21);
target = up;
type = BottomGhost;
},
{
place = (50, 160);
place = (50, 160);
type = Stem;
},
{
place = (677, 160);
place = (677, 160);
type = Stem;
}
);
layerId = "88F21F75-214F-41EE-AE9C-B4AA79D6697C";
shapes = (
{
closed = 1;
nodes = (
(210,0,l),
(210,317,l),
(356,0,l),
(531,0,l),
(677,317,l),
(677,0,l),
(837,0,l),
(837,683,l),
(669,683,l),
(444,192,l),
(218,683,l),
(50,683,l),
(50,0,l)
);
}
);
width = 886;
}
);
note = M;
unicode = 77;
},
{
glyphname = N;
lastChange = "2021-06-21 21:48:47 +0000";
layers = (
{
hints = (
{
horizontal = 1;
origin = (0,9);
target = up;
type = BottomGhost;
},
{
horizontal = 1;
origin = (0,9);
target = (0,6);
type = Stem;
},
{
origin = (0,9);
target = (0,0);
type = Stem;
},
{
origin = (0,6);
target = (0,3);
type = Stem;
}
);
layerId = m01;
shapes = (
{
closed = 1;
nodes = (
(110,0,l),
(110,585,l),
(508,0,l),
(574,0,l),
(574,683,l),
(514,683,l),
(514,98,l),
(116,683,l),
(50,683,l),
(50,0,l)
);
}
);
width = 624;
},
{
hints = (
{
horizontal = 1;
place = (0, 46);
place = (0, 46);
type = Stem;
},
{
place = (50, 28);
place = (50, 28);
type = Stem;
},
{
place = (514, 28);
place = (514, 28);
type = Stem;
}
);
layerId = "0A901A10-6B10-40AA-AC10-6ECA400C9626";
shapes = (
{
closed = 1;
nodes = (
(78,0,l),
(78,637,l),
(511,0,l),
(542,0,l),
(542,683,l),
(514,683,l),
(514,46,l),
(81,683,l),
(50,683,l),
(50,0,l)
);
}
);
width = 591;
},
{
hints = (
{
horizontal = 1;
place = (0, 21);
target = up;
type = BottomGhost;
},
{
place = (50, 82);
place = (50, 82);
type = Stem;
},
{
place = (504, 82);
place = (504, 82);
type = Stem;
}
);
layerId = "75DB7DBE-742D-4351-BF75-A4D495193B35";
shapes = (
{
closed = 1;
nodes = (
(132,0,l),
(132,535,l),
(504,0,l),
(586,0,l),
(586,688,l),
(504,688,l),
(504,152,l),
(131,688,l),
(50,688,l),
(50,0,l)
);
}
);
width = 636;
},
{
hints = (
{
horizontal = 1;
place = (0, 21);
target = up;
type = BottomGhost;
},
{
place = (50, 110);
place = (50, 110);
type = Stem;
},
{
place = (514, 110);
place = (514, 110);
type = Stem;
}
);
layerId = "4BD00FE4-3084-423F-A840-AB4EC9D41C86";
shapes = (
{
closed = 1;
nodes = (
(160,0,l),
(160,504,l),
(503,0,l),
(624,0,l),
(624,683,l),
(514,683,l),
(514,179,l),
(172,683,l),
(50,683,l),
(50,0,l)
);
}
);
width = 673;
},
{
hints = (
{
horizontal = 1;
place = (0, 21);
target = up;
type = BottomGhost;
},
{
place = (50, 160);
place = (50, 160);
type = Stem;
},
{
place = (514, 160);
place = (514, 160);
type = Stem;
}
);
layerId = "88F21F75-214F-41EE-AE9C-B4AA79D6697C";
shapes = (
{
closed = 1;
nodes = (
(210,0,l),
(210,423,l),
(497,0,l),
(674,0,l),
(674,683,l),
(514,683,l),
(514,260,l),
(227,683,l),
(50,683,l),
(50,0,l)
);
}
);
width = 723;
}
);
note = N;
unicode = 78;
},
{
glyphname = O;
lastChange = "2021-06-21 21:48:47 +0000";
layers = (
{
hints = (
{
horizontal = 1;
origin = (0,11);
target = (1,11);
type = Stem;
},
{
horizontal = 1;
origin = (1,5);
target = (0,5);
type = Stem;
},
{
origin = (0,8);
target = (1,2);
type = Stem;
},
{
origin = (1,8);
target = (0,2);
type = Stem;
}
);
layerId = m01;
shapes = (
{
closed = 1;
nodes = (
(524,-5,o),
(654,161,o),
(654,340,cs),
(654,520,o),
(522,688,o),
(336,688,cs),
(150,688,o),
(20,520,o),
(20,340,cs),
(20,159,o),
(152,-5,o),
(337,-5,cs)
);
},
{
closed = 1;
nodes = (
(195,55,o),
(80,183,o),
(80,340,cs),
(80,499,o),
(195,628,o),
(337,628,cs),
(479,628,o),
(594,499,o),
(594,340,cs),
(594,183,o),
(479,55,o),
(337,55,cs)
);
}
);
width = 674;
},
{
hints = (
{
horizontal = 1;
place = (-5, 28);
place = (-5, 28);
type = Stem;
},
{
horizontal = 1;
place = (660, 28);
place = (660, 28);
type = Stem;
},
{
place = (20, 28);
place = (20, 28);
type = Stem;
},
{
place = (612, 28);
place = (612, 28);
type = Stem;
}
);
layerId = "0A901A10-6B10-40AA-AC10-6ECA400C9626";
shapes = (
{
closed = 1;
nodes = (
(516,-5,o),
(640,164,o),
(640,339,cs),
(640,516,o),
(514,688,o),
(329,688,cs),
(145,688,o),
(20,516,o),
(20,339,cs),
(20,161,o),
(146,-5,o),
(330,-5,cs)
);
},
{
closed = 1;
nodes = (
(174,23,o),
(48,165,o),
(48,341,cs),
(48,516,o),
(174,660,o),
(330,660,cs),
(485,660,o),
(612,516,o),
(612,341,cs),
(612,165,o),
(485,23,o),
(330,23,cs)
);
}
);
width = 660;
},
{
hints = (
{
horizontal = 1;
place = (-5, 93);
place = (-5, 93);
type = Stem;
},
{
horizontal = 1;
place = (599, 93);
place = (599, 93);
type = Stem;
},
{
place = (20, 82);
place = (20, 82);
type = Stem;
},
{
place = (581, 82);
place = (581, 82);
type = Stem;
}
);
layerId = "75DB7DBE-742D-4351-BF75-A4D495193B35";
shapes = (
{
closed = 1;
nodes = (
(532,-5,o),
(663,164,o),
(663,342,cs),
(663,523,o),
(528,692,o),
(341,692,cs),
(153,692,o),
(20,523,o),
(20,343,cs),
(20,163,o),
(152,-5,o),
(341,-5,cs)
);
},
{
closed = 1;
nodes = (
(205,88,o),
(102,210,o),
(102,342,cs),
(102,474,o),
(202,599,o),
(341,599,cs),
(481,599,o),
(581,474,o),
(581,342,cs),
(581,210,o),
(478,88,o),
(341,88,cs)
);
}
);
width = 683;
},
{
hints = (
{
horizontal = 1;
place = (-5, 110);
place = (-5, 110);
type = Stem;
},
{
horizontal = 1;
place = (578, 110);
place = (578, 110);
type = Stem;
},
{
place = (20, 110);
place = (20, 110);
type = Stem;
},
{
place = (594, 110);
place = (594, 110);
type = Stem;
}
);
layerId = "4BD00FE4-3084-423F-A840-AB4EC9D41C86";
shapes = (
{
closed = 1;
nodes = (
(553,-5,o),
(704,150,o),
(704,340,cs),
(704,530,o),
(551,688,o),
(362,688,cs),
(169,688,o),
(20,528,o),
(20,340,cs),
(20,149,o),
(173,-5,o),
(362,-5,cs)
);
},
{
closed = 1;
nodes = (
(130,471,o),
(234,578,o),
(362,578,cs),
(490,578,o),
(594,471,o),
(594,340,cs),
(594,208,o),
(492,105,o),
(362,105,cs),
(232,105,o),
(130,208,o),
(130,340,cs)
);
}
);
width = 724;
},
{
hints = (
{
horizontal = 1;
place = (-5, 160);
place = (-5, 160);
type = Stem;
},
{
horizontal = 1;
place = (528, 160);
place = (528, 160);
type = Stem;
},
{
place = (20, 160);
place = (20, 160);
type = Stem;
},
{
place = (545, 160);
place = (545, 160);
type = Stem;
}
);
layerId = "88F21F75-214F-41EE-AE9C-B4AA79D6697C";
shapes = (
{
closed = 1;
nodes = (
(553,-5,o),
(705,150,o),
(705,340,cs),
(705,531,o),
(552,688,o),
(362,688,cs),
(170,688,o),
(20,528,o),
(20,340,cs),
(20,149,o),
(173,-5,o),
(362,-5,cs)
);
},
{
closed = 1;
nodes = (
(180,444,o),
(262,528,o),
(362,528,cs),
(463,528,o),
(545,444,o),
(545,340,cs),
(545,236,o),
(465,155,o),
(362,155,cs),
(260,155,o),
(180,236,o),
(180,340,cs)
);
}
);
width = 725;
}
);
note = O;
unicode = 79;
},
{
glyphname = P;
lastChange = "2021-06-21 21:48:47 +0000";
layers = (
{
hints = (
{
horizontal = 1;
origin = (0,10);
target = up;
type = BottomGhost;
},
{
horizontal = 1;
origin = (0,1);
target = (1,8);
type = Stem;
},
{
horizontal = 1;
origin = (1,0);
target = (0,9);
type = Stem;
},
{
origin = (0,10);
target = (0,0);
type = Stem;
},
{
origin = (1,4);
target = (0,5);
type = Stem;
}
);
layerId = m01;
shapes = (
{
closed = 1;
nodes = (
(110,0,l),
(110,278,l),
(351,278,ls),
(469,278,o),
(553,367,o),
(553,484,cs),
(553,601,o),
(469,684,o),
(351,684,cs),
(50,684,l),
(50,0,l)
);
},
{
closed = 1;
nodes = (
(110,624,l),
(351,624,ls),
(449,624,o),
(493,554,o),
(493,484,cs),
(493,414,o),
(448,338,o),
(351,338,cs),
(110,338,l)
);
}
);
width = 573;
},
{
hints = (
{
horizontal = 1;
place = (0, 21);
target = up;
type = BottomGhost;
},
{
horizontal = 1;
place = (309, 28);
place = (309, 28);
type = Stem;
},
{
horizontal = 1;
place = (655, 28);
place = (655, 28);
type = Stem;
},
{
place = (50, 28);
place = (50, 28);
type = Stem;
},
{
place = (493, 28);
place = (493, 28);
type = Stem;
}
);
layerId = "0A901A10-6B10-40AA-AC10-6ECA400C9626";
shapes = (
{
closed = 1;
nodes = (
(78,0,l),
(78,309,l),
(335,309,ls),
(444,309,o),
(521,391,o),
(521,499,cs),
(521,608,o),
(444,683,o),
(335,683,cs),
(50,683,l),
(50,0,l)
);
},
{
closed = 1;
nodes = (
(78,655,l),
(335,655,ls),
(444,655,o),
(493,577,o),
(493,499,cs),
(493,418,o),
(438,337,o),
(335,337,cs),
(78,337,l)
);
}
);
width = 541;
},
{
hints = (
{
horizontal = 1;
place = (0, 21);
target = up;
type = BottomGhost;
},
{
horizontal = 1;
place = (265, 93);
place = (265, 93);
type = Stem;
},
{
horizontal = 1;
place = (595, 94);
place = (595, 94);
type = Stem;
},
{
place = (50, 82);
place = (50, 82);
type = Stem;
},
{
place = (483, 82);
place = (483, 82);
type = Stem;
}
);
layerId = "75DB7DBE-742D-4351-BF75-A4D495193B35";
shapes = (
{
closed = 1;
nodes = (
(132,0,l),
(132,265,l),
(355,265,ls),
(430,265,o),
(565,315,o),
(565,480,cs),
(565,645,o),
(428,689,o),
(355,689,cs),
(50,689,l),
(50,0,l)
);
},
{
closed = 1;
nodes = (
(132,595,l),
(355,595,ls),
(411,595,o),
(483,565,o),
(483,479,cs),
(483,393,o),
(412,358,o),
(355,358,cs),
(132,358,l)
);
}
);
width = 585;
},
{
hints = (
{
horizontal = 1;
place = (0, 21);
target = up;
type = BottomGhost;
},
{
horizontal = 1;
place = (310, 110);
place = (310, 110);
type = Stem;
},
{
horizontal = 1;
place = (614, 110);
place = (614, 110);
type = Stem;
},
{
place = (50, 110);
place = (50, 110);
type = Stem;
},
{
place = (493, 110);
place = (493, 110);
type = Stem;
}
);
layerId = "4BD00FE4-3084-423F-A840-AB4EC9D41C86";
shapes = (
{
closed = 1;
nodes = (
(160,0,l),
(160,310,l),
(376,310,ls),
(499,310,o),
(603,394,o),
(603,520,cs),
(603,648,o),
(498,724,o),
(376,724,cs),
(50,724,l),
(50,0,l)
);
},
{
closed = 1;
nodes = (
(160,614,l),
(376,614,ls),
(462,614,o),
(493,563,o),
(493,519,cs),
(493,470,o),
(456,420,o),
(376,420,cs),
(160,420,l)
);
}
);
width = 623;
},
{
hints = (
{
horizontal = 1;
place = (0, 21);
target = up;
type = BottomGhost;
},
{
horizontal = 1;
place = (219, 160);
place = (219, 160);
type = Stem;
},
{
horizontal = 1;
place = (523, 160);
place = (523, 160);
type = Stem;
},
{
place = (50, 160);
place = (50, 160);
type = Stem;
},
{
place = (493, 160);
place = (493, 160);
type = Stem;
}
);
layerId = "88F21F75-214F-41EE-AE9C-B4AA79D6697C";
shapes = (
{
closed = 1;
nodes = (
(210,0,l),
(210,219,l),
(401,219,ls),
(538,219,o),
(653,314,o),
(653,455,cs),
(653,596,o),
(537,683,o),
(401,683,cs),
(50,683,l),
(50,0,l)
);
},
{
closed = 1;
nodes = (
(210,523,l),
(401,523,ls),
(445,523,o),
(493,505,o),
(493,455,cs),
(493,419,o),
(469,379,o),
(401,379,cs),
(210,379,l)
);
}
);
width = 673;
}
);
note = P;
unicode = 80;
},
{
glyphname = Q;
lastChange = "2021-06-22 18:05:37 +0000";
layers = (
{
hints = (
{
horizontal = 1;
origin = (0,17);
target = (1,17);
type = Stem;
},
{
horizontal = 1;
origin = (1,5);
target = (0,11);
type = Stem;
},
{
origin = (0,14);
target = (1,2);
type = Stem;
},
{
origin = (1,8);
target = (0,8);
type = Stem;
}
);
layerId = m01;
shapes = (
{
closed = 1;
nodes = (
(404,-5,o),
(469,18,o),
(522,59,c),
(615,-11,l),
(651,37,l),
(566,101,l),
(623,165,o),
(654,250,o),
(654,338,cs),
(654,519,o),
(524,688,o),
(338,688,cs),
(151,688,o),
(20,520,o),
(20,340,cs),
(20,161,o),
(150,-5,o),
(335,-5,cs)
);
},
{
closed = 1;
nodes = (
(195,55,o),
(80,183,o),
(80,340,cs),
(80,499,o),
(195,628,o),
(337,628,cs),
(479,628,o),
(594,499,o),
(594,340,cs),
(594,261,o),
(565,189,o),
(517,137,c),
(420,211,l),
(384,163,l),
(471,97,l),
(432,70,o),
(386,55,o),
(337,55,cs)
);
}
);
width = 684;
},
{
hints = (
{
horizontal = 1;
place = (-5, 28);
place = (-5, 28);
type = Stem;
},
{
horizontal = 1;
place = (660, 28);
place = (660, 28);
type = Stem;
},
{
place = (20, 28);
place = (20, 28);
type = Stem;
},
{
place = (612, 28);
place = (612, 28);
type = Stem;
}
);
layerId = "0A901A10-6B10-40AA-AC10-6ECA400C9626";
shapes = (
{
closed = 1;
nodes = (
(402,-5,o),
(470,22,o),
(525,71,c),
(617,2,l),
(634,24,l),
(545,91,l),
(608,160,o),
(640,247,o),
(640,338,cs),
(640,516,o),
(515,688,o),
(331,688,cs),
(146,688,o),
(20,516,o),
(20,339,cs),
(20,164,o),
(144,-5,o),
(329,-5,cs)
);
},
{
closed = 1;
nodes = (
(174,23,o),
(48,165,o),
(48,341,cs),
(48,516,o),
(174,660,o),
(330,660,cs),
(485,660,o),
(612,516,o),
(612,340,cs),
(612,248,o),
(577,166,o),
(522,108,c),
(404,198,l),
(387,175,l),
(502,89,l),
(454,48,o),
(395,23,o),
(330,23,cs)
);
}
);
width = 670;
},
{
hints = (
{
horizontal = 1;
place = (-5, 93);
place = (-5, 93);
type = Stem;
},
{
horizontal = 1;
place = (599, 93);
place = (599, 93);
type = Stem;
},
{
place = (20, 82);
place = (20, 82);
type = Stem;
},
{
place = (581, 82);
place = (581, 82);
type = Stem;
}
);
layerId = "75DB7DBE-742D-4351-BF75-A4D495193B35";
shapes = (
{
closed = 1;
nodes = (
(401,-5,o),
(465,13,o),
(522,54,c),
(615,-14,l),
(669,57,l),
(587,118,l),
(630,173,o),
(663,249,o),
(663,340,cs),
(663,521,o),
(532,692,o),
(342,692,cs),
(152,692,o),
(20,521,o),
(20,342,cs),
(20,162,o),
(153,-5,o),
(339,-5,cs)
);
},
{
closed = 1;
nodes = (
(203,88,o),
(102,211,o),
(102,343,cs),
(102,476,o),
(204,599,o),
(341,599,cs),
(480,599,o),
(581,474,o),
(581,341,cs),
(581,273,o),
(554,212,o),
(517,170,c),
(421,240,l),
(366,169,l),
(443,112,l),
(410,96,o),
(376,88,o),
(341,88,cs)
);
}
);
width = 699;
},
{
hints = (
{
horizontal = 1;
place = (-4, 110);
place = (-4, 110);
type = Stem;
},
{
horizontal = 1;
place = (579, 110);
place = (579, 110);
type = Stem;
},
{
place = (20, 110);
place = (20, 110);
type = Stem;
},
{
place = (594, 110);
place = (594, 110);
type = Stem;
}
);
layerId = "4BD00FE4-3084-423F-A840-AB4EC9D41C86";
shapes = (
{
closed = 1;
nodes = (
(421,-4,o),
(480,11,o),
(531,41,c),
(625,-30,l),
(691,58,l),
(619,112,l),
(674,175,o),
(704,256,o),
(704,341,cs),
(704,529,o),
(554,689,o),
(362,689,cs),
(172,689,o),
(20,531,o),
(20,341,cs),
(20,151,o),
(171,-4,o),
(362,-4,cs)
);
},
{
closed = 1;
nodes = (
(232,106,o),
(130,209,o),
(130,341,cs),
(130,472,o),
(234,579,o),
(362,579,cs),
(490,579,o),
(594,472,o),
(594,341,cs),
(594,277,o),
(570,220,o),
(531,178,c),
(460,232,l),
(394,144,l),
(431,116,l),
(409,110,o),
(386,106,o),
(362,106,cs)
);
}
);
width = 734;
},
{
hints = (
{
horizontal = 1;
place = (-5, 160);
place = (-5, 160);
type = Stem;
},
{
horizontal = 1;
place = (528, 160);
place = (528, 160);
type = Stem;
},
{
place = (20, 160);
place = (20, 160);
type = Stem;
},
{
place = (545, 160);
place = (545, 160);
type = Stem;
}
);
layerId = "88F21F75-214F-41EE-AE9C-B4AA79D6697C";
shapes = (
{
closed = 1;
nodes = (
(422,-5,o),
(478,10,o),
(527,37,c),
(635,-42,l),
(712,68,l),
(632,127,l),
(678,185,o),
(705,260,o),
(705,340,cs),
(705,531,o),
(552,688,o),
(362,688,cs),
(170,688,o),
(20,528,o),
(20,340,cs),
(20,149,o),
(173,-5,o),
(362,-5,cs)
);
},
{
closed = 1;
nodes = (
(260,155,o),
(180,236,o),
(180,340,cs),
(180,444,o),
(262,528,o),
(362,528,cs),
(463,528,o),
(545,444,o),
(545,340,cs),
(545,294,o),
(529,253,o),
(503,221,c),
(424,279,l),
(347,169,l),
(366,155,l),
(361,155,o),
(355,155,o),
(350,155,cs)
);
}
);
width = 736;
}
);
note = Q;
unicode = 81;
},
{
glyphname = R;
lastChange = "2021-06-21 21:48:47 +0000";
layers = (
{
hints = (
{
horizontal = 1;
origin = (0,13);
target = up;
type = BottomGhost;
},
{
horizontal = 1;
origin = (0,1);
target = (1,8);
type = Stem;
},
{
horizontal = 1;
origin = (1,0);
target = (0,12);
type = Stem;
},
{
horizontal = 1;
origin = (0,5);
target = (1,8);
type = Stem;
},
{
origin = (0,13);
target = (0,0);
type = Stem;
},
{
origin = (1,4);
target = (0,8);
type = Stem;
}
);
layerId = m01;
shapes = (
{
closed = 1;
nodes = (
(110,0,l),
(110,277,l),
(390,277,l),
(521,0,l),
(588,0,l),
(449,294,l),
(524,331,o),
(566,404,o),
(566,484,cs),
(566,601,o),
(482,683,o),
(364,683,cs),
(50,683,l),
(50,0,l)
);
},
{
closed = 1;
nodes = (
(110,623,l),
(364,623,ls),
(462,623,o),
(506,553,o),
(506,483,cs),
(506,413,o),
(462,337,o),
(364,337,cs),
(110,337,l)
);
}
);
width = 618;
},
{
hints = (
{
horizontal = 1;
place = (0, 21);
target = up;
type = BottomGhost;
},
{
horizontal = 1;
place = (309, 28);
place = (309, 28);
type = Stem;
},
{
horizontal = 1;
place = (655, 28);
place = (655, 28);
type = Stem;
},
{
place = (50, 28);
place = (50, 28);
type = Stem;
},
{
place = (506, 28);
place = (506, 28);
type = Stem;
}
);
layerId = "0A901A10-6B10-40AA-AC10-6ECA400C9626";
shapes = (
{
closed = 1;
nodes = (
(78,0,l),
(78,312,l),
(384,312,l),
(531,0,l),
(561,0,l),
(412,319,l),
(486,343,o),
(534,414,o),
(534,500,cs),
(534,608,o),
(457,683,o),
(348,683,cs),
(50,683,l),
(50,0,l)
);
},
{
closed = 1;
nodes = (
(78,655,l),
(348,655,ls),
(442,655,o),
(506,592,o),
(506,499,cs),
(506,405,o),
(440,337,o),
(367,337,cs),
(78,337,l)
);
}
);
width = 591;
},
{
hints = (
{
horizontal = 1;
place = (0, 21);
target = up;
type = BottomGhost;
},
{
horizontal = 1;
place = (264, 93);
place = (264, 93);
type = Stem;
},
{
horizontal = 1;
place = (594, 94);
place = (594, 94);
type = Stem;
},
{
place = (50, 82);
place = (50, 82);
type = Stem;
},
{
place = (496, 82);
place = (496, 82);
type = Stem;
}
);
layerId = "75DB7DBE-742D-4351-BF75-A4D495193B35";
shapes = (
{
closed = 1;
nodes = (
(132,0,l),
(132,264,l),
(389,264,l),
(516,0,l),
(610,0,l),
(471,288,l),
(524,316,o),
(578,381,o),
(578,483,cs),
(578,644,o),
(441,688,o),
(369,688,cs),
(50,688,l),
(50,0,l)
);
},
{
closed = 1;
nodes = (
(132,594,l),
(369,594,ls),
(424,594,o),
(496,564,o),
(496,478,cs),
(496,392,o),
(425,357,o),
(369,357,cs),
(132,357,l)
);
}
);
width = 640;
},
{
hints = (
{
horizontal = 1;
place = (0, 21);
target = up;
type = BottomGhost;
},
{
horizontal = 1;
place = (266, 110);
place = (266, 110);
type = Stem;
},
{
horizontal = 1;
place = (570, 110);
place = (570, 110);
type = Stem;
},
{
place = (50, 110);
place = (50, 110);
type = Stem;
},
{
place = (493, 110);
place = (493, 110);
type = Stem;
}
);
layerId = "4BD00FE4-3084-423F-A840-AB4EC9D41C86";
shapes = (
{
closed = 1;
nodes = (
(160,0,l),
(160,266,l),
(380,266,l),
(506,0,l),
(627,0,l),
(490,292,l),
(560,328,o),
(603,399,o),
(603,479,cs),
(603,604,o),
(497,680,o),
(376,680,cs),
(50,680,l),
(50,0,l)
);
},
{
closed = 1;
nodes = (
(160,570,l),
(376,570,ls),
(462,570,o),
(493,519,o),
(493,475,cs),
(493,426,o),
(456,376,o),
(376,376,cs),
(160,376,l)
);
}
);
width = 657;
},
{
hints = (
{
horizontal = 1;
place = (0, 21);
target = up;
type = BottomGhost;
},
{
horizontal = 1;
place = (217, 160);
place = (217, 160);
type = Stem;
},
{
horizontal = 1;
place = (521, 160);
place = (521, 160);
type = Stem;
},
{
place = (50, 160);
place = (50, 160);
type = Stem;
},
{
place = (493, 160);
place = (493, 160);
type = Stem;
}
);
layerId = "88F21F75-214F-41EE-AE9C-B4AA79D6697C";
shapes = (
{
closed = 1;
nodes = (
(210,0,l),
(210,217,l),
(401,217,l),
(503,0,l),
(680,0,l),
(556,264,l),
(617,308,o),
(653,379,o),
(653,455,cs),
(653,594,o),
(536,681,o),
(401,681,cs),
(50,681,l),
(50,0,l)
);
},
{
closed = 1;
nodes = (
(210,521,l),
(401,521,ls),
(445,521,o),
(493,503,o),
(493,453,cs),
(493,417,o),
(469,377,o),
(401,377,cs),
(210,377,l)
);
}
);
width = 710;
}
);
note = R;
unicode = 82;
},
{
glyphname = S;
lastChange = "2021-06-22 18:34:04 +0000";
layers = (
{
hints = (
{
horizontal = 1;
origin = (0,37);
target = (0,30);
type = Stem;
},
{
horizontal = 1;
place = (330.88, 62.48);
place = (330.88, 62.48);
type = Stem;
},
{
horizontal = 1;
origin = (0,11);
target = (0,18);
type = Stem;
},
{
origin = (0,34);
target = (0,33);
type = Stem;
},
{
origin = (0,27);
target = (0,2);
type = Stem;
},
{
origin = (0,21);
target = (0,8);
type = Stem;
},
{
origin = (0,14);
target = (0,15);
type = Stem;
}
);
layerId = m01;
shapes = (
{
closed = 1;
nodes = (
(430,-5,o),
(553,58,o),
(553,193,cs),
(553,334,o),
(422,364,o),
(304,390,cs),
(204,412,o),
(114,434,o),
(114,514,cs),
(114,584,o),
(184,628,o),
(285,628,cs),
(354,628,o),
(474,607,o),
(474,467,c),
(534,467,l),
(534,618,o),
(422,688,o),
(288,688,cs),
(180,688,o),
(54,642,o),
(54,515,cs),
(54,386,o),
(185,355,o),
(293,331,cs),
(396,308,o),
(493,285,o),
(493,191,cs),
(493,92,o),
(390,55,o),
(304,55,cs),
(203,55,o),
(90,106,o),
(90,219,c),
(29,219,l),
(29,84,o),
(160,-5,o),
(306,-5,cs)
);
}
);
width = 583;
},
{
hints = (
{
horizontal = 1;
place = (-5, 28);
place = (-5, 28);
type = Stem;
},
{
horizontal = 1;
place = (660, 28);
place = (660, 28);
type = Stem;
},
{
place = (30, 28);
place = (30, 28);
type = Stem;
},
{
place = (493, 28);
place = (493, 28);
type = Stem;
},
{
place = (54, 28);
place = (54, 28);
type = Stem;
},
{
place = (474, 28);
place = (474, 28);
type = Stem;
}
);
layerId = "0A901A10-6B10-40AA-AC10-6ECA400C9626";
shapes = (
{
closed = 1;
nodes = (
(407,-5,o),
(521,56,o),
(521,185,cs),
(521,314,o),
(399,346,o),
(284,376,cs),
(180,403,o),
(82,429,o),
(82,523,cs),
(82,606,o),
(158,660,o),
(267,660,cs),
(329,660,o),
(474,642,o),
(474,474,c),
(502,474,l),
(502,617,o),
(402,688,o),
(272,688,cs),
(168,688,o),
(54,643,o),
(54,525,cs),
(54,407,o),
(167,377,o),
(278,349,cs),
(387,322,o),
(493,295,o),
(493,183,cs),
(493,74,o),
(392,23,o),
(289,23,cs),
(174,23,o),
(58,88,o),
(58,213,c),
(30,213,l),
(30,71,o),
(158,-5,o),
(289,-5,cs)
);
}
);
width = 550;
},
{
hints = (
{
horizontal = 1;
place = (-5, 93);
place = (-5, 93);
type = Stem;
},
{
horizontal = 1;
place = (599, 93);
place = (599, 93);
type = Stem;
},
{
place = (30, 82);
place = (30, 82);
type = Stem;
},
{
place = (464, 82);
place = (464, 82);
type = Stem;
},
{
place = (482, 83);
place = (482, 83);
type = Stem;
},
{
place = (54, 82);
place = (54, 82);
type = Stem;
}
);
layerId = "75DB7DBE-742D-4351-BF75-A4D495193B35";
shapes = (
{
closed = 1;
nodes = (
(461,-5,o),
(565,78,o),
(565,198,cs),
(565,302,o),
(500,357,o),
(313,403,cs),
(186,434,o),
(146,459,o),
(146,507,cs),
(146,561,o),
(210,599,o),
(300,599,cs),
(402,599,o),
(464,548,o),
(464,464,c),
(546,464,l),
(546,600,o),
(442,692,o),
(288,692,cs),
(149,692,o),
(54,618,o),
(54,510,cs),
(54,411,o),
(116,361,o),
(292,318,cs),
(428,285,o),
(472,255,o),
(472,197,cs),
(472,134,o),
(404,88,o),
(309,88,cs),
(198,88,o),
(112,149,o),
(112,227,c),
(30,227,l),
(30,93,o),
(148,-5,o),
(311,-5,cs)
);
}
);
width = 595;
},
{
associatedMasterId = "75DB7DBE-742D-4351-BF75-A4D495193B35";
hints = (
{
horizontal = 1;
place = (-5, 93);
place = (-5, 93);
type = Stem;
},
{
horizontal = 1;
place = (599, 93);
place = (599, 93);
type = Stem;
},
{
place = (30, 82);
place = (30, 82);
type = Stem;
},
{
place = (464, 82);
place = (464, 82);
type = Stem;
},
{
place = (482, 83);
place = (482, 83);
type = Stem;
},
{
place = (54, 82);
place = (54, 82);
type = Stem;
}
);
layerId = "037D61F8-C30D-4EDC-A75A-56FC3626886F";
name = "21 Jun 21, 18:21";
shapes = (
{
closed = 1;
nodes = (
(435,-5,o),
(565,57,o),
(565,198,cs),
(565,339,o),
(432,373,o),
(313,403,cs),
(224,425,o),
(146,445,o),
(146,507,cs),
(146,569,o),
(223,599,o),
(300,599,cs),
(384,599,o),
(464,563,o),
(464,464,c),
(546,464,l),
(546,658,o),
(377,692,o),
(288,692,cs),
(181,692,o),
(54,643,o),
(54,510,cs),
(54,377,o),
(177,346,o),
(292,318,cs),
(386,295,o),
(472,273,o),
(472,197,cs),
(472,116,o),
(377,88,o),
(309,88,cs),
(228,88,o),
(112,128,o),
(112,227,c),
(30,227,l),
(30,75,o),
(170,-5,o),
(311,-5,cs)
);
}
);
width = 595;
},
{
hints = (
{
horizontal = 1;
place = (-5, 110);
place = (-5, 110);
type = Stem;
},
{
horizontal = 1;
place = (578, 110);
place = (578, 110);
type = Stem;
},
{
place = (30, 110);
place = (30, 110);
type = Stem;
},
{
place = (493, 110);
place = (493, 110);
type = Stem;
},
{
place = (54, 110);
place = (54, 110);
type = Stem;
},
{
place = (474, 110);
place = (474, 110);
type = Stem;
}
);
layerId = "4BD00FE4-3084-423F-A840-AB4EC9D41C86";
shapes = (
{
closed = 1;
nodes = (
(461,-5,o),
(603,58,o),
(603,204,cs),
(603,357,o),
(447,390,o),
(339,412,cs),
(219,437,o),
(164,459,o),
(164,501,cs),
(164,547,o),
(226,578,o),
(312,578,cs),
(384,578,o),
(474,557,o),
(474,457,c),
(584,457,l),
(584,619,o),
(453,688,o),
(314,688,cs),
(197,688,o),
(54,638,o),
(54,502,cs),
(54,363,o),
(205,329,o),
(314,305,cs),
(434,279,o),
(493,256,o),
(493,202,cs),
(493,126,o),
(392,105,o),
(330,105,cs),
(253,105,o),
(140,138,o),
(140,229,c),
(30,229,l),
(30,71,o),
(188,-5,o),
(331,-5,cs)
);
}
);
width = 632;
},
{
hints = (
{
horizontal = 1;
place = (-5, 160);
place = (-5, 160);
type = Stem;
},
{
horizontal = 1;
place = (528, 160);
place = (528, 160);
type = Stem;
},
{
place = (30, 160);
place = (30, 160);
type = Stem;
},
{
place = (436, 160);
place = (436, 160);
type = Stem;
},
{
place = (453, 160);
place = (453, 160);
type = Stem;
},
{
place = (52, 160);
place = (52, 160);
type = Stem;
}
);
layerId = "88F21F75-214F-41EE-AE9C-B4AA79D6697C";
shapes = (
{
closed = 1;
nodes = (
(498,-5,o),
(613,87,o),
(613,218,cs),
(613,335,o),
(547,401,o),
(329,430,cs),
(238,442,o),
(212,453,o),
(212,476,cs),
(212,509,o),
(251,528,o),
(318,528,cs),
(391,528,o),
(436,503,o),
(436,448,c),
(596,448,l),
(596,592,o),
(486,688,o),
(319,688,cs),
(161,688,o),
(52,606,o),
(52,487,cs),
(52,376,o),
(119,323,o),
(298,300,cs),
(422,284,o),
(453,266,o),
(453,218,cs),
(453,181,o),
(404,155,o),
(336,155,cs),
(254,155,o),
(190,191,o),
(190,238,c),
(30,238,l),
(30,99,o),
(160,-5,o),
(333,-5,cs)
);
}
);
width = 642;
},
{
associatedMasterId = "88F21F75-214F-41EE-AE9C-B4AA79D6697C";
hints = (
{
horizontal = 1;
place = (-5, 160);
place = (-5, 160);
type = Stem;
},
{
horizontal = 1;
place = (528, 160);
place = (528, 160);
type = Stem;
},
{
place = (30, 160);
place = (30, 160);
type = Stem;
},
{
place = (436, 160);
place = (436, 160);
type = Stem;
},
{
place = (453, 160);
place = (453, 160);
type = Stem;
},
{
place = (52, 160);
place = (52, 160);
type = Stem;
}
);
layerId = "8416854E-BE92-4C76-94F3-904E6428969B";
name = "22 Jun 21, 15:05";
shapes = (
{
closed = 1;
nodes = (
(470,-5,o),
(613,65,o),
(613,218,cs),
(613,389,o),
(448,413,o),
(329,430,cs),
(263,439,o),
(212,446,o),
(212,476,cs),
(212,515,o),
(263,528,o),
(318,528,cs),
(436,528,o),
(436,467,o),
(436,448,c),
(596,448,l),
(596,612,o),
(463,688,o),
(319,688,cs),
(193,688,o),
(52,630,o),
(52,487,cs),
(52,335,o),
(185,316,o),
(298,300,cs),
(381,288,o),
(453,278,o),
(453,218,cs),
(453,168,o),
(380,155,o),
(336,155,cs),
(283,155,o),
(190,175,o),
(190,238,c),
(30,238,l),
(30,77,o),
(187,-5,o),
(333,-5,cs)
);
}
);
width = 642;
},
{
associatedMasterId = "4BD00FE4-3084-423F-A840-AB4EC9D41C86";
hints = (
{
horizontal = 1;
place = (-5, 110);
place = (-5, 110);
type = Stem;
},
{
horizontal = 1;
place = (578, 110);
place = (578, 110);
type = Stem;
},
{
place = (30, 110);
place = (30, 110);
type = Stem;
},
{
place = (493, 110);
place = (493, 110);
type = Stem;
},
{
place = (54, 110);
place = (54, 110);
type = Stem;
},
{
place = (474, 110);
place = (474, 110);
type = Stem;
}
);
layerId = "123FF475-5CC3-49D7-9809-E493B5FA3F88";
name = "22 Jun 21, 15:33";
shapes = (
{
closed = 1;
nodes = (
(461,-5,o),
(603,58,o),
(603,204,cs),
(603,353,o),
(455,386,o),
(339,412,cs),
(216,440,o),
(164,459,o),
(164,501,cs),
(164,547,o),
(226,578,o),
(312,578,cs),
(384,578,o),
(474,557,o),
(474,457,c),
(584,457,l),
(584,619,o),
(453,688,o),
(314,688,cs),
(197,688,o),
(54,638,o),
(54,502,cs),
(54,363,o),
(205,329,o),
(315,305,cs),
(441,276,o),
(493,256,o),
(493,202,cs),
(493,126,o),
(392,105,o),
(330,105,cs),
(253,105,o),
(140,138,o),
(140,229,c),
(30,229,l),
(30,71,o),
(188,-5,o),
(331,-5,cs)
);
}
);
visible = 1;
width = 632;
}
);
note = S;
unicode = 83;
},
{
glyphname = T;
lastChange = "2021-06-21 21:48:47 +0000";
layers = (
{
hints = (
{
horizontal = 1;
origin = (0,7);
target = up;
type = BottomGhost;
},
{
horizontal = 1;
origin = (0,5);
target = (0,4);
type = Stem;
},
{
origin = (0,7);
target = (0,0);
type = Stem;
}
);
layerId = m01;
shapes = (
{
closed = 1;
nodes = (
(302,0,l),
(302,623,l),
(530,623,l),
(530,683,l),
(10,683,l),
(10,623,l),
(242,623,l),
(242,0,l)
);
}
);
width = 540;
},
{
hints = (
{
horizontal = 1;
place = (0, 21);
target = up;
type = BottomGhost;
},
{
horizontal = 1;
place = (655, 28);
place = (655, 28);
type = Stem;
},
{
place = (258, 28);
place = (258, 28);
type = Stem;
}
);
layerId = "0A901A10-6B10-40AA-AC10-6ECA400C9626";
shapes = (
{
closed = 1;
nodes = (
(286,0,l),
(286,655,l),
(530,655,l),
(530,683,l),
(10,683,l),
(10,655,l),
(258,655,l),
(258,0,l)
);
}
);
width = 540;
},
{
hints = (
{
horizontal = 1;
place = (0, 21);
target = up;
type = BottomGhost;
},
{
horizontal = 1;
place = (594, 94);
place = (594, 94);
type = Stem;
},
{
place = (236, 83);
place = (236, 83);
type = Stem;
}
);
layerId = "75DB7DBE-742D-4351-BF75-A4D495193B35";
shapes = (
{
closed = 1;
nodes = (
(319,0,l),
(319,604,l),
(541,604,l),
(541,688,l),
(10,688,l),
(10,604,l),
(236,604,l),
(236,0,l)
);
}
);
width = 551;
},
{
hints = (
{
horizontal = 1;
place = (0, 21);
target = up;
type = BottomGhost;
},
{
horizontal = 1;
place = (614, 110);
place = (614, 110);
type = Stem;
},
{
place = (217, 110);
place = (217, 110);
type = Stem;
}
);
layerId = "4BD00FE4-3084-423F-A840-AB4EC9D41C86";
shapes = (
{
closed = 1;
nodes = (
(327,0,l),
(327,614,l),
(530,614,l),
(530,724,l),
(10,724,l),
(10,614,l),
(217,614,l),
(217,0,l)
);
}
);
width = 540;
},
{
hints = (
{
horizontal = 1;
place = (0, 21);
target = up;
type = BottomGhost;
},
{
horizontal = 1;
place = (523, 160);
place = (523, 160);
type = Stem;
},
{
place = (192, 160);
place = (192, 160);
type = Stem;
}
);
layerId = "88F21F75-214F-41EE-AE9C-B4AA79D6697C";
shapes = (
{
closed = 1;
nodes = (
(352,0,l),
(352,523,l),
(530,523,l),
(530,683,l),
(10,683,l),
(10,523,l),
(192,523,l),
(192,0,l)
);
}
);
width = 540;
}
);
note = T;
unicode = 84;
},
{
glyphname = U;
lastChange = "2021-06-21 21:48:47 +0000";
layers = (
{
hints = (
{
horizontal = 1;
origin = (0,17);
target = (0,8);
type = Stem;
},
{
origin = (0,14);
target = (0,11);
type = Stem;
},
{
origin = (0,5);
target = (0,2);
type = Stem;
}
);
layerId = m01;
shapes = (
{
closed = 1;
nodes = (
(449,-5,o),
(567,114,o),
(567,259,cs),
(567,684,l),
(507,684,l),
(507,259,ls),
(507,147,o),
(416,56,o),
(304,56,cs),
(191,56,o),
(100,147,o),
(100,259,cs),
(100,684,l),
(40,684,l),
(40,259,ls),
(40,114,o),
(158,-5,o),
(304,-5,cs)
);
}
);
width = 607;
},
{
hints = (
{
horizontal = 1;
place = (-5, 28);
place = (-5, 28);
type = Stem;
},
{
place = (40, 28);
place = (40, 28);
type = Stem;
},
{
place = (507, 28);
place = (507, 28);
type = Stem;
}
);
layerId = "0A901A10-6B10-40AA-AC10-6ECA400C9626";
shapes = (
{
closed = 1;
nodes = (
(424,-5,o),
(535,106,o),
(535,243,cs),
(535,683,l),
(507,683,l),
(507,243,ls),
(507,121,o),
(409,23,o),
(288,23,cs),
(166,23,o),
(68,121,o),
(68,243,cs),
(68,683,l),
(40,683,l),
(40,243,ls),
(40,106,o),
(151,-5,o),
(288,-5,cs)
);
}
);
width = 574;
},
{
hints = (
{
horizontal = 1;
place = (-4, 93);
place = (-4, 93);
type = Stem;
},
{
place = (40, 82);
place = (40, 82);
type = Stem;
},
{
place = (496, 82);
place = (496, 82);
type = Stem;
}
);
layerId = "75DB7DBE-742D-4351-BF75-A4D495193B35";
shapes = (
{
closed = 1;
nodes = (
(460,-4,o),
(578,88,o),
(578,265,cs),
(578,688,l),
(496,688,l),
(496,295,ls),
(496,125,o),
(383,89,o),
(309,89,cs),
(236,89,o),
(122,125,o),
(122,295,cs),
(122,688,l),
(40,688,l),
(40,265,ls),
(40,88,o),
(159,-4,o),
(309,-4,cs)
);
}
);
width = 618;
},
{
hints = (
{
horizontal = 1;
place = (-3, 110);
place = (-3, 110);
type = Stem;
},
{
place = (40, 110);
place = (40, 110);
type = Stem;
},
{
place = (507, 110);
place = (507, 110);
type = Stem;
}
);
layerId = "4BD00FE4-3084-423F-A840-AB4EC9D41C86";
shapes = (
{
closed = 1;
nodes = (
(488,-3,o),
(617,126,o),
(617,285,cs),
(617,684,l),
(507,684,l),
(507,285,ls),
(507,187,o),
(427,107,o),
(329,107,cs),
(230,107,o),
(150,187,o),
(150,285,cs),
(150,684,l),
(40,684,l),
(40,285,ls),
(40,126,o),
(169,-3,o),
(329,-3,cs)
);
}
);
width = 656;
},
{
hints = (
{
horizontal = 1;
place = (-5, 160);
place = (-5, 160);
type = Stem;
},
{
place = (40, 160);
place = (40, 160);
type = Stem;
},
{
place = (490, 160);
place = (490, 160);
type = Stem;
}
);
layerId = "88F21F75-214F-41EE-AE9C-B4AA79D6697C";
shapes = (
{
closed = 1;
nodes = (
(512,-5,o),
(650,131,o),
(650,300,cs),
(650,683,l),
(490,683,l),
(490,300,ls),
(490,220,o),
(425,155,o),
(345,155,cs),
(265,155,o),
(200,220,o),
(200,300,cs),
(200,683,l),
(40,683,l),
(40,300,ls),
(40,133,o),
(176,-5,o),
(345,-5,cs)
);
}
);
width = 689;
}
);
note = U;
unicode = 85;
},
{
glyphname = V;
lastChange = "2021-06-21 21:48:47 +0000";
layers = (
{
hints = (
{
horizontal = 1;
origin = (0,6);
target = up;
type = BottomGhost;
},
{
horizontal = 1;
origin = (0,6);
target = (0,3);
type = Stem;
}
);
layerId = m01;
shapes = (
{
closed = 1;
nodes = (
(339,0,l),
(599,683,l),
(535,683,l),
(307,84,l),
(79,683,l),
(15,683,l),
(275,0,l)
);
}
);
width = 614;
},
{
hints = (
{
horizontal = 1;
place = (0, 39);
place = (0, 39);
type = Stem;
},
{
place = (15, 550);
place = (15, 550);
type = Stem;
}
);
layerId = "0A901A10-6B10-40AA-AC10-6ECA400C9626";
shapes = (
{
closed = 1;
nodes = (
(305,0,l),
(565,683,l),
(535,683,l),
(290,39,l),
(45,683,l),
(15,683,l),
(275,0,l)
);
}
);
width = 579;
},
{
hints = (
{
horizontal = 1;
place = (0, 21);
target = up;
type = BottomGhost;
},
{
place = (15, 612);
place = (15, 612);
type = Stem;
}
);
layerId = "75DB7DBE-742D-4351-BF75-A4D495193B35";
shapes = (
{
closed = 1;
nodes = (
(359,0,l),
(627,688,l),
(537,688,l),
(321,133,l),
(105,688,l),
(15,688,l),
(283,0,l)
);
}
);
width = 642;
},
{
hints = (
{
horizontal = 1;
place = (0, 21);
target = up;
type = BottomGhost;
},
{
place = (15, 638);
place = (15, 638);
type = Stem;
}
);
layerId = "4BD00FE4-3084-423F-A840-AB4EC9D41C86";
shapes = (
{
closed = 1;
nodes = (
(393,0,l),
(653,683,l),
(535,683,l),
(334,155,l),
(133,683,l),
(15,683,l),
(275,0,l)
);
}
);
width = 667;
},
{
hints = (
{
horizontal = 1;
place = (0, 21);
target = up;
type = BottomGhost;
},
{
place = (15, 691);
place = (15, 691);
type = Stem;
}
);
layerId = "88F21F75-214F-41EE-AE9C-B4AA79D6697C";
shapes = (
{
closed = 1;
nodes = (
(446,0,l),
(706,683,l),
(535,683,l),
(361,225,l),
(186,683,l),
(15,683,l),
(275,0,l)
);
}
);
width = 720;
}
);
note = V;
unicode = 86;
},
{
glyphname = W;
lastChange = "2021-06-22 18:07:28 +0000";
layers = (
{
hints = (
{
horizontal = 1;
origin = (0,12);
target = up;
type = BottomGhost;
},
{
horizontal = 1;
origin = (0,12);
target = (0,9);
type = Stem;
}
);
layerId = m01;
shapes = (
{
closed = 1;
nodes = (
(285,0,l),
(457,577,l),
(628,0,l),
(690,0,l),
(893,683,l),
(831,683,l),
(659,105,l),
(488,683,l),
(425,683,l),
(254,105,l),
(83,683,l),
(20,683,l),
(223,0,l)
);
}
);
width = 913;
},
{
hints = (
{
horizontal = 1;
place = (0, 49);
place = (0, 49);
type = Stem;
},
{
place = (20, 840);
place = (20, 840);
type = Stem;
}
);
layerId = "0A901A10-6B10-40AA-AC10-6ECA400C9626";
shapes = (
{
closed = 1;
nodes = (
(252,0,l),
(440,633,l),
(628,0,l),
(657,0,l),
(860,683,l),
(831,683,l),
(642,49,l),
(455,683,l),
(425,683,l),
(237,49,l),
(49,683,l),
(20,683,l),
(223,0,l)
);
}
);
width = 879;
},
{
hints = (
{
horizontal = 1;
place = (0, 161);
place = (0, 161);
type = Stem;
},
{
place = (20, 890);
place = (20, 890);
type = Stem;
}
);
layerId = "75DB7DBE-742D-4351-BF75-A4D495193B35";
shapes = (
{
closed = 1;
nodes = (
(305,0,l),
(465,526,l),
(625,0,l),
(701,0,l),
(910,688,l),
(823,688,l),
(663,161,l),
(503,688,l),
(427,688,l),
(267,161,l),
(107,688,l),
(20,688,l),
(229,0,l)
);
}
);
width = 930;
},
{
hints = (
{
horizontal = 1;
place = (0, 21);
target = up;
type = BottomGhost;
},
{
place = (20, 924);
place = (20, 924);
type = Stem;
}
);
layerId = "4BD00FE4-3084-423F-A840-AB4EC9D41C86";
shapes = (
{
closed = 1;
nodes = (
(337,0,l),
(482,489,l),
(627,0,l),
(742,0,l),
(945,683,l),
(830,683,l),
(685,193,l),
(539,683,l),
(425,683,l),
(280,193,l),
(134,683,l),
(20,683,l),
(222,0,l)
);
}
);
width = 963;
},
{
hints = (
{
horizontal = 1;
place = (0, 21);
target = up;
type = BottomGhost;
},
{
place = (20, 978);
place = (20, 978);
type = Stem;
}
);
layerId = "88F21F75-214F-41EE-AE9C-B4AA79D6697C";
shapes = (
{
closed = 1;
nodes = (
(390,0,l),
(509,401,l),
(628,0,l),
(795,0,l),
(998,683,l),
(831,683,l),
(711,281,l),
(592,683,l),
(426,683,l),
(306,281,l),
(187,683,l),
(20,683,l),
(223,0,l)
);
}
);
width = 1017;
}
);
note = W;
unicode = 87;
},
{
glyphname = X;
lastChange = "2021-06-21 21:48:47 +0000";
layers = (
{
hints = (
{
horizontal = 1;
origin = (0,11);
target = up;
type = BottomGhost;
}
);
layerId = m01;
shapes = (
{
closed = 1;
nodes = (
(94,0,l),
(310,303,l),
(526,0,l),
(600,0,l),
(347,355,l),
(581,683,l),
(507,683,l),
(310,406,l),
(113,683,l),
(39,683,l),
(273,355,l),
(20,0,l)
);
}
);
width = 620;
},
{
hints = (
{
horizontal = 1;
place = (0, 21);
target = up;
type = BottomGhost;
},
{
place = (20, 555);
place = (20, 555);
type = Stem;
}
);
layerId = "0A901A10-6B10-40AA-AC10-6ECA400C9626";
shapes = (
{
closed = 1;
nodes = (
(55,0,l),
(297,331,l),
(540,0,l),
(575,0,l),
(315,354,l),
(556,683,l),
(521,683,l),
(297,378,l),
(74,683,l),
(39,683,l),
(280,354,l),
(20,0,l)
);
}
);
width = 595;
},
{
hints = (
{
horizontal = 1;
place = (0, 21);
target = up;
type = BottomGhost;
},
{
place = (20, 628);
place = (20, 628);
type = Stem;
}
);
layerId = "75DB7DBE-742D-4351-BF75-A4D495193B35";
shapes = (
{
closed = 1;
nodes = (
(127,0,l),
(334,283,l),
(540,0,l),
(648,0,l),
(387,356,l),
(629,688,l),
(522,688,l),
(334,430,l),
(146,688,l),
(39,688,l),
(280,356,l),
(20,0,l)
);
}
);
width = 668;
},
{
hints = (
{
horizontal = 1;
place = (0, 21);
target = up;
type = BottomGhost;
},
{
place = (20, 641);
place = (20, 641);
type = Stem;
}
);
layerId = "4BD00FE4-3084-423F-A840-AB4EC9D41C86";
shapes = (
{
closed = 1;
nodes = (
(155,0,l),
(341,260,l),
(526,0,l),
(661,0,l),
(408,355,l),
(642,683,l),
(507,683,l),
(341,450,l),
(174,683,l),
(39,683,l),
(273,355,l),
(20,0,l)
);
}
);
width = 681;
},
{
hints = (
{
horizontal = 1;
place = (0, 21);
target = up;
type = BottomGhost;
},
{
place = (20, 702);
place = (20, 702);
type = Stem;
}
);
layerId = "88F21F75-214F-41EE-AE9C-B4AA79D6697C";
shapes = (
{
closed = 1;
nodes = (
(217,0,l),
(371,217,l),
(526,0,l),
(722,0,l),
(469,355,l),
(703,683,l),
(507,683,l),
(371,493,l),
(235,683,l),
(39,683,l),
(273,355,l),
(20,0,l)
);
}
);
width = 742;
}
);
note = X;
unicode = 88;
},
{
glyphname = Y;
lastChange = "2021-06-21 21:48:47 +0000";
layers = (
{
hints = (
{
horizontal = 1;
origin = (0,8);
target = up;
type = BottomGhost;
},
{
origin = (0,8);
target = (0,0);
type = Stem;
}
);
layerId = m01;
shapes = (
{
closed = 1;
nodes = (
(332,0,l),
(332,253,l),
(588,683,l),
(518,683,l),
(302,320,l),
(85,683,l),
(15,683,l),
(272,253,l),
(272,0,l)
);
}
);
width = 601;
},
{
hints = (
{
horizontal = 1;
place = (0, 21);
target = up;
type = BottomGhost;
},
{
place = (269, 28);
place = (269, 28);
type = Stem;
}
);
layerId = "0A901A10-6B10-40AA-AC10-6ECA400C9626";
shapes = (
{
closed = 1;
nodes = (
(297,0,l),
(297,258,l),
(551,683,l),
(518,683,l),
(283,289,l),
(48,683,l),
(15,683,l),
(269,258,l),
(269,0,l)
);
}
);
width = 566;
},
{
hints = (
{
horizontal = 1;
place = (0, 21);
target = up;
type = BottomGhost;
},
{
place = (281, 82);
place = (281, 82);
type = Stem;
}
);
layerId = "75DB7DBE-742D-4351-BF75-A4D495193B35";
shapes = (
{
closed = 1;
nodes = (
(363,0,l),
(363,252,l),
(629,688,l),
(529,688,l),
(322,350,l),
(115,688,l),
(15,688,l),
(281,252,l),
(281,0,l)
);
}
);
width = 635;
},
{
hints = (
{
horizontal = 1;
place = (0, 21);
target = up;
type = BottomGhost;
},
{
place = (276, 110);
place = (276, 110);
type = Stem;
}
);
layerId = "4BD00FE4-3084-423F-A840-AB4EC9D41C86";
shapes = (
{
closed = 1;
nodes = (
(386,0,l),
(386,246,l),
(647,683,l),
(518,683,l),
(331,369,l),
(143,683,l),
(15,683,l),
(276,246,l),
(276,0,l)
);
}
);
width = 662;
},
{
hints = (
{
horizontal = 1;
place = (0, 21);
target = up;
type = BottomGhost;
},
{
place = (280, 160);
place = (280, 160);
type = Stem;
}
);
layerId = "88F21F75-214F-41EE-AE9C-B4AA79D6697C";
shapes = (
{
closed = 1;
nodes = (
(440,0,l),
(440,239,l),
(705,683,l),
(518,683,l),
(360,418,l),
(201,683,l),
(15,683,l),
(280,239,l),
(280,0,l)
);
}
);
width = 720;
}
);
note = Y;
unicode = 89;
},
{
glyphname = Z;
lastChange = "2021-06-21 21:48:47 +0000";
layers = (
{
hints = (
{
horizontal = 1;
origin = (0,9);
target = (0,2);
type = Stem;
},
{
horizontal = 1;
origin = (0,6);
target = (0,5);
type = Stem;
}
);
layerId = m01;
shapes = (
{
closed = 1;
nodes = (
(539,0,l),
(539,60,l),
(88,60,l),
(516,614,l),
(516,683,l),
(44,683,l),
(44,623,l),
(448,623,l),
(20,70,l),
(20,0,l)
);
}
);
width = 559;
},
{
hints = (
{
horizontal = 1;
place = (0, 28);
place = (0, 28);
type = Stem;
},
{
horizontal = 1;
place = (655, 28);
place = (655, 28);
type = Stem;
},
{
place = (20, 35);
place = (20, 35);
type = Stem;
},
{
place = (481, 34);
place = (481, 34);
type = Stem;
}
);
layerId = "0A901A10-6B10-40AA-AC10-6ECA400C9626";
shapes = (
{
closed = 1;
nodes = (
(539,0,l),
(539,28,l),
(55,28,l),
(515,654,l),
(515,683,l),
(44,683,l),
(44,655,l),
(481,655,l),
(20,28,l),
(20,0,l)
);
}
);
width = 559;
},
{
hints = (
{
horizontal = 1;
place = (0, 93);
place = (0, 93);
type = Stem;
},
{
horizontal = 1;
place = (594, 94);
place = (594, 94);
type = Stem;
},
{
place = (20, 530);
place = (20, 530);
type = Stem;
}
);
layerId = "75DB7DBE-742D-4351-BF75-A4D495193B35";
shapes = (
{
closed = 1;
nodes = (
(550,0,l),
(550,93,l),
(131,93,l),
(528,595,l),
(528,688,l),
(44,688,l),
(44,594,l),
(417,594,l),
(20,93,l),
(20,0,l)
);
}
);
width = 570;
},
{
hints = (
{
horizontal = 1;
place = (0, 110);
place = (0, 110);
type = Stem;
},
{
horizontal = 1;
place = (571, 110);
place = (571, 110);
type = Stem;
},
{
place = (20, 519);
place = (20, 519);
type = Stem;
}
);
layerId = "4BD00FE4-3084-423F-A840-AB4EC9D41C86";
shapes = (
{
closed = 1;
nodes = (
(539,0,l),
(539,110,l),
(145,110,l),
(516,549,l),
(516,681,l),
(44,681,l),
(44,571,l),
(390,571,l),
(20,132,l),
(20,0,l)
);
}
);
width = 559;
},
{
hints = (
{
horizontal = 1;
place = (0, 161);
place = (0, 161);
type = Stem;
},
{
horizontal = 1;
place = (522, 161);
place = (522, 161);
type = Stem;
},
{
place = (20, 545);
place = (20, 545);
type = Stem;
}
);
layerId = "88F21F75-214F-41EE-AE9C-B4AA79D6697C";
shapes = (
{
closed = 1;
nodes = (
(559,0,l),
(559,161,l),
(230,161,l),
(565,523,l),
(565,683,l),
(64,683,l),
(64,522,l),
(346,522,l),
(20,169,l),
(20,0,l)
);
}
);
width = 585;
}
);
note = Z;
unicode = 90;
},
{
glyphname = a;
lastChange = "2021-06-21 21:48:47 +0000";
layers = (
{
hints = (
{
horizontal = 1;
origin = (0,16);
target = (1,11);
type = Stem;
},
{
horizontal = 1;
origin = (0,10);
target = (1,5);
type = Stem;
},
{
horizontal = 1;
origin = (0,3);
target = up;
type = BottomGhost;
},
{
horizontal = 1;
origin = (0,6);
target = down;
type = TopGhost;
},
{
origin = (0,13);
target = (1,2);
type = Stem;
},
{
origin = (0,3);
target = (0,4);
type = Stem;
}
);
layerId = m01;
shapes = (
{
closed = 1;
nodes = (
(314,-5,o),
(374,28,o),
(415,79,c),
(415,0,l),
(475,0,l),
(475,518,l),
(415,518,l),
(415,437,l),
(370,492,o),
(311,523,o),
(246,523,cs),
(109,523,o),
(20,388,o),
(20,258,cs),
(20,128,o),
(107,-5,o),
(245,-5,cs)
);
},
{
closed = 1;
nodes = (
(155,55,o),
(80,146,o),
(80,258,cs),
(80,371,o),
(155,463,o),
(248,463,cs),
(340,463,o),
(415,371,o),
(415,258,cs),
(415,146,o),
(340,55,o),
(248,55,cs)
);
}
);
width = 525;
},
{
hints = (
{
horizontal = 1;
place = (0, 60);
place = (0, 60);
type = Stem;
},
{
horizontal = 1;
place = (458, 60);
place = (458, 60);
type = Stem;
},
{
place = (-18, 60);
place = (-18, 60);
type = Stem;
},
{
place = (377, 60);
place = (377, 60);
type = Stem;
}
);
layerId = "0A901A10-6B10-40AA-AC10-6ECA400C9626";
shapes = (
{
closed = 1;
nodes = (
(332,-5,o),
(403,53,o),
(440,129,c),
(440,0,l),
(468,0,l),
(468,518,l),
(440,518,l),
(440,386,l),
(403,464,o),
(331,523,o),
(243,523,cs),
(106,523,o),
(20,386,o),
(20,258,cs),
(20,130,o),
(105,-5,o),
(242,-5,cs)
);
},
{
closed = 1;
nodes = (
(136,23,o),
(48,128,o),
(48,258,cs),
(48,388,o),
(136,495,o),
(244,495,cs),
(350,495,o),
(440,391,o),
(440,264,cs),
(440,132,o),
(354,23,o),
(244,23,cs)
);
}
);
width = 518;
},
{
hints = (
{
horizontal = 1;
place = (0, 60);
place = (0, 60);
type = Stem;
},
{
horizontal = 1;
place = (458, 60);
place = (458, 60);
type = Stem;
},
{
place = (17, 60);
place = (17, 60);
type = Stem;
},
{
place = (412, 60);
place = (412, 60);
type = Stem;
}
);
layerId = "75DB7DBE-742D-4351-BF75-A4D495193B35";
shapes = (
{
closed = 1;
nodes = (
(305,-5,o),
(360,14,o),
(406,59,c),
(406,0,l),
(488,0,l),
(488,530,l),
(406,530,l),
(406,471,l),
(361,515,o),
(303,535,o),
(250,535,cs),
(107,535,o),
(20,392,o),
(20,264,cs),
(20,134,o),
(107,-5,o),
(251,-5,cs)
);
},
{
closed = 1;
nodes = (
(184,88,o),
(102,153,o),
(102,264,cs),
(102,375,o),
(183,442,o),
(254,442,cs),
(325,442,o),
(406,375,o),
(406,264,cs),
(406,153,o),
(324,88,o),
(254,88,cs)
);
}
);
width = 538;
},
{
hints = (
{
horizontal = 1;
place = (0, 60);
place = (0, 60);
type = Stem;
},
{
horizontal = 1;
place = (458, 60);
place = (458, 60);
type = Stem;
},
{
place = (15, 60);
place = (15, 60);
type = Stem;
},
{
place = (410, 60);
place = (410, 60);
type = Stem;
}
);
layerId = "4BD00FE4-3084-423F-A840-AB4EC9D41C86";
shapes = (
{
closed = 1;
nodes = (
(324,-5,o),
(373,11,o),
(415,40,c),
(415,0,l),
(525,0,l),
(525,518,l),
(415,518,l),
(415,477,l),
(374,507,o),
(323,523,o),
(271,523,cs),
(129,523,o),
(20,400,o),
(20,258,cs),
(20,117,o),
(128,-5,o),
(273,-5,cs)
);
},
{
closed = 1;
nodes = (
(130,343,o),
(194,413,o),
(273,413,cs),
(351,413,o),
(415,343,o),
(415,258,cs),
(415,172,o),
(352,105,o),
(273,105,cs),
(193,105,o),
(130,172,o),
(130,258,cs)
);
}
);
width = 575;
},
{
hints = (
{
horizontal = 1;
place = (0, 60);
place = (0, 60);
type = Stem;
},
{
horizontal = 1;
place = (458, 60);
place = (458, 60);
type = Stem;
},
{
place = (1, 60);
place = (1, 60);
type = Stem;
},
{
place = (396, 60);
place = (396, 60);
type = Stem;
}
);
layerId = "88F21F75-214F-41EE-AE9C-B4AA79D6697C";
shapes = (
{
closed = 1;
nodes = (
(306,-5,o),
(338,1,o),
(368,13,c),
(368,0,l),
(528,0,l),
(528,518,l),
(368,518,l),
(368,504,l),
(338,517,o),
(306,523,o),
(274,523,cs),
(130,523,o),
(20,400,o),
(20,258,cs),
(20,116,o),
(129,-5,o),
(274,-5,cs)
);
},
{
closed = 1;
nodes = (
(180,316,o),
(222,363,o),
(274,363,cs),
(326,363,o),
(368,316,o),
(368,258,cs),
(368,200,o),
(327,155,o),
(274,155,cs),
(221,155,o),
(180,200,o),
(180,258,cs)
);
}
);
width = 578;
}
);
note = a;
unicode = 97;
},
{
glyphname = b;
lastChange = "2021-06-21 21:48:47 +0000";
layers = (
{
hints = (
{
horizontal = 1;
origin = (0,16);
target = (1,11);
type = Stem;
},
{
horizontal = 1;
origin = (0,5);
target = (1,5);
type = Stem;
},
{
horizontal = 1;
origin = (0,11);
target = up;
type = BottomGhost;
},
{
origin = (0,11);
target = (0,12);
type = Stem;
},
{
origin = (1,8);
target = (0,2);
type = Stem;
}
);
layerId = m01;
shapes = (
{
closed = 1;
nodes = (
(416,-5,o),
(505,127,o),
(505,257,cs),
(505,387,o),
(417,523,o),
(280,523,cs),
(211,523,o),
(151,489,o),
(110,437,c),
(110,683,l),
(50,683,l),
(50,0,l),
(110,0,l),
(110,79,l),
(158,23,o),
(216,-5,o),
(279,-5,cs)
);
},
{
closed = 1;
nodes = (
(185,55,o),
(110,146,o),
(110,258,cs),
(110,371,o),
(185,463,o),
(278,463,cs),
(370,463,o),
(445,371,o),
(445,258,cs),
(445,146,o),
(370,55,o),
(278,55,cs)
);
}
);
width = 525;
},
{
hints = (
{
horizontal = 1;
place = (0, 21);
target = up;
type = BottomGhost;
},
{
horizontal = 1;
place = (458, 60);
place = (458, 60);
type = Stem;
},
{
place = (127, 60);
place = (127, 60);
type = Stem;
},
{
place = (522, 60);
place = (522, 60);
type = Stem;
},
{
horizontal = 1;
place = (458, 225);
place = (458, 225);
type = Stem;
}
);
layerId = "0A901A10-6B10-40AA-AC10-6ECA400C9626";
shapes = (
{
closed = 1;
nodes = (
(405,-5,o),
(488,131,o),
(488,257,cs),
(488,382,o),
(407,523,o),
(271,523,cs),
(183,523,o),
(114,464,o),
(78,388,c),
(78,683,l),
(50,683,l),
(50,0,l),
(78,0,l),
(78,128,l),
(114,52,o),
(183,-5,o),
(270,-5,cs)
);
},
{
closed = 1;
nodes = (
(164,23,o),
(78,128,o),
(78,258,cs),
(78,388,o),
(164,495,o),
(269,495,cs),
(374,495,o),
(460,388,o),
(460,258,cs),
(460,128,o),
(374,23,o),
(269,23,cs)
);
}
);
width = 508;
},
{
hints = (
{
horizontal = 1;
place = (0, 21);
target = up;
type = BottomGhost;
},
{
horizontal = 1;
place = (458, 60);
place = (458, 60);
type = Stem;
},
{
place = (137, 60);
place = (137, 60);
type = Stem;
},
{
place = (532, 60);
place = (532, 60);
type = Stem;
}
);
layerId = "75DB7DBE-742D-4351-BF75-A4D495193B35";
shapes = (
{
closed = 1;
nodes = (
(426,-5,o),
(518,131,o),
(518,264,cs),
(518,392,o),
(432,535,o),
(287,535,cs),
(233,535,o),
(178,515,o),
(132,470,c),
(132,688,l),
(50,688,l),
(50,0,l),
(132,0,l),
(132,58,l),
(177,14,o),
(235,-5,o),
(287,-5,cs)
);
},
{
closed = 1;
nodes = (
(214,88,o),
(132,153,o),
(132,264,cs),
(132,375,o),
(213,442,o),
(284,442,cs),
(355,442,o),
(436,375,o),
(436,264,cs),
(436,153,o),
(354,88,o),
(284,88,cs)
);
}
);
width = 538;
},
{
hints = (
{
horizontal = 1;
place = (0, 21);
target = up;
type = BottomGhost;
},
{
horizontal = 1;
place = (458, 60);
place = (458, 60);
type = Stem;
},
{
place = (165, 60);
place = (165, 60);
type = Stem;
},
{
place = (560, 60);
place = (560, 60);
type = Stem;
},
{
horizontal = 1;
place = (458, 225);
place = (458, 225);
type = Stem;
}
);
layerId = "4BD00FE4-3084-423F-A840-AB4EC9D41C86";
shapes = (
{
closed = 1;
nodes = (
(447,-5,o),
(555,117,o),
(555,258,cs),
(555,400,o),
(446,523,o),
(304,523,cs),
(252,523,o),
(201,507,o),
(160,477,c),
(160,683,l),
(50,683,l),
(50,0,l),
(160,0,l),
(160,40,l),
(202,11,o),
(251,-5,o),
(303,-5,cs)
);
},
{
closed = 1;
nodes = (
(160,343,o),
(224,413,o),
(303,413,cs),
(381,413,o),
(445,343,o),
(445,258,cs),
(445,172,o),
(382,105,o),
(303,105,cs),
(223,105,o),
(160,172,o),
(160,258,cs)
);
}
);
width = 575;
},
{
hints = (
{
horizontal = 1;
place = (0, 21);
target = up;
type = BottomGhost;
},
{
horizontal = 1;
place = (458, 60);
place = (458, 60);
type = Stem;
},
{
place = (181, 60);
place = (181, 60);
type = Stem;
},
{
place = (576, 60);
place = (576, 60);
type = Stem;
},
{
horizontal = 1;
place = (458, 225);
place = (458, 225);
type = Stem;
}
);
layerId = "88F21F75-214F-41EE-AE9C-B4AA79D6697C";
shapes = (
{
closed = 1;
nodes = (
(447,-5,o),
(558,115,o),
(558,258,cs),
(558,400,o),
(447,523,o),
(304,523,cs),
(272,523,o),
(240,517,o),
(210,504,c),
(210,683,l),
(50,683,l),
(50,0,l),
(210,0,l),
(210,13,l),
(240,1,o),
(272,-5,o),
(304,-5,cs)
);
},
{
closed = 1;
nodes = (
(210,321,o),
(255,363,o),
(304,363,cs),
(356,363,o),
(398,316,o),
(398,258,cs),
(398,200,o),
(357,155,o),
(304,155,cs),
(254,155,o),
(210,195,o),
(210,258,cs)
);
}
);
width = 578;
}
);
note = b;
unicode = 98;
},
{
glyphname = c;
lastChange = "2021-06-21 21:48:47 +0000";
layers = (
{
hints = (
{
horizontal = 1;
origin = (0,25);
target = (0,6);
type = Stem;
},
{
horizontal = 1;
origin = (0,19);
target = (0,12);
type = Stem;
},
{
origin = (0,22);
target = (0,9);
type = Stem;
}
);
layerId = m01;
shapes = (
{
closed = 1;
nodes = (
(366,-5,o),
(445,67,o),
(471,172,c),
(409,172,l),
(386,97,o),
(330,55,o),
(260,55,cs),
(157,55,o),
(80,146,o),
(80,258,cs),
(80,371,o),
(157,463,o),
(259,463,cs),
(328,463,o),
(384,421,o),
(408,346,c),
(470,346,l),
(444,451,o),
(364,523,o),
(257,523,cs),
(113,523,o),
(20,392,o),
(20,258,cs),
(20,122,o),
(113,-5,o),
(257,-5,cs)
);
}
);
width = 491;
},
{
hints = (
{
horizontal = 1;
place = (-121, 60);
place = (-121, 60);
type = Stem;
},
{
horizontal = 1;
place = (337, 60);
place = (337, 60);
type = Stem;
},
{
place = (195, 60);
place = (195, 60);
type = Stem;
}
);
layerId = "0A901A10-6B10-40AA-AC10-6ECA400C9626";
shapes = (
{
closed = 1;
nodes = (
(360,-5,o),
(436,68,o),
(460,172,c),
(431,172,l),
(407,78,o),
(339,23,o),
(254,23,cs),
(137,23,o),
(48,128,o),
(48,258,cs),
(48,389,o),
(137,495,o),
(254,495,cs),
(338,495,o),
(406,440,o),
(431,346,c),
(460,346,l),
(435,449,o),
(359,523,o),
(252,523,cs),
(109,523,o),
(20,390,o),
(20,257,cs),
(20,124,o),
(109,-5,o),
(252,-5,cs)
);
}
);
width = 480;
},
{
hints = (
{
horizontal = 1;
place = (-121, 60);
place = (-121, 60);
type = Stem;
},
{
horizontal = 1;
place = (337, 60);
place = (337, 60);
type = Stem;
},
{
place = (214, 60);
place = (214, 60);
type = Stem;
}
);
layerId = "75DB7DBE-742D-4351-BF75-A4D495193B35";
shapes = (
{
closed = 1;
nodes = (
(372,-5,o),
(457,71,o),
(489,200,c),
(404,200,l),
(382,129,o),
(332,88,o),
(269,88,cs),
(175,88,o),
(102,165,o),
(102,264,cs),
(102,363,o),
(175,442,o),
(268,442,cs),
(331,442,o),
(381,401,o),
(404,330,c),
(489,330,l),
(456,458,o),
(370,535,o),
(260,535,cs),
(128,535,o),
(20,413,o),
(20,263,cs),
(20,114,o),
(127,-5,o),
(260,-5,cs)
);
}
);
width = 509;
},
{
hints = (
{
horizontal = 1;
place = (-121, 60);
place = (-121, 60);
type = Stem;
},
{
horizontal = 1;
place = (337, 60);
place = (337, 60);
type = Stem;
},
{
place = (227, 60);
place = (227, 60);
type = Stem;
}
);
layerId = "4BD00FE4-3084-423F-A840-AB4EC9D41C86";
shapes = (
{
closed = 1;
nodes = (
(398,-5,o),
(489,62,o),
(519,172,c),
(402,172,l),
(372,115,o),
(314,105,o),
(281,105,cs),
(195,105,o),
(130,172,o),
(130,258,cs),
(130,343,o),
(196,413,o),
(281,413,cs),
(313,413,o),
(371,404,o),
(401,346,c),
(519,346,l),
(488,456,o),
(394,523,o),
(282,523,cs),
(133,523,o),
(20,403,o),
(20,258,cs),
(20,110,o),
(134,-5,o),
(284,-5,cs)
);
}
);
width = 539;
},
{
hints = (
{
horizontal = 1;
place = (-121, 60);
place = (-121, 60);
type = Stem;
},
{
horizontal = 1;
place = (337, 60);
place = (337, 60);
type = Stem;
},
{
place = (230, 60);
place = (230, 60);
type = Stem;
}
);
layerId = "88F21F75-214F-41EE-AE9C-B4AA79D6697C";
shapes = (
{
closed = 1;
nodes = (
(403,-5,o),
(501,71,o),
(526,192,c),
(357,192,l),
(342,167,o),
(315,155,o),
(284,155,cs),
(223,155,o),
(180,200,o),
(180,258,cs),
(180,316,o),
(224,363,o),
(281,363,cs),
(300,363,o),
(325,358,o),
(345,340,c),
(522,340,l),
(492,452,o),
(397,523,o),
(283,523,cs),
(135,523,o),
(20,404,o),
(20,258,cs),
(20,112,o),
(134,-5,o),
(283,-5,cs)
);
}
);
width = 546;
}
);
note = c;
unicode = 99;
},
{
glyphname = d;
lastChange = "2021-06-21 21:48:47 +0000";
layers = (
{
hints = (
{
horizontal = 1;
origin = (0,16);
target = (1,11);
type = Stem;
},
{
horizontal = 1;
origin = (0,10);
target = (1,5);
type = Stem;
},
{
horizontal = 1;
origin = (0,3);
target = up;
type = BottomGhost;
},
{
origin = (0,13);
target = (1,2);
type = Stem;
},
{
origin = (0,3);
target = (0,4);
type = Stem;
}
);
layerId = m01;
shapes = (
{
closed = 1;
nodes = (
(314,-5,o),
(374,28,o),
(416,79,c),
(416,0,l),
(476,0,l),
(476,683,l),
(416,683,l),
(416,438,l),
(370,492,o),
(312,523,o),
(246,523,cs),
(110,523,o),
(20,388,o),
(20,258,cs),
(20,128,o),
(108,-5,o),
(246,-5,cs)
);
},
{
closed = 1;
nodes = (
(155,55,o),
(80,146,o),
(80,258,cs),
(80,371,o),
(155,463,o),
(248,463,cs),
(336,463,o),
(416,386,o),
(416,258,cs),
(416,131,o),
(336,55,o),
(248,55,cs)
);
}
);
width = 526;
},
{
associatedMasterId = m01;
hints = (
{
horizontal = 1;
origin = (0,16);
target = (1,12);
type = Stem;
},
{
horizontal = 1;
origin = (0,10);
target = (1,5);
type = Stem;
},
{
horizontal = 1;
origin = (0,3);
target = up;
type = BottomGhost;
},
{
origin = (0,13);
target = (1,2);
type = Stem;
},
{
origin = (0,3);
target = (0,4);
type = Stem;
}
);
layerId = "F381125E-AED2-43B6-96DC-79DED13667A1";
name = "21 Jun 21, 17:43";
shapes = (
{
closed = 1;
nodes = (
(314,-5,o),
(374,28,o),
(416,79,c),
(416,0,l),
(476,0,l),
(476,683,l),
(416,683,l),
(416,438,l),
(370,492,o),
(312,523,o),
(246,523,cs),
(110,523,o),
(20,388,o),
(20,258,cs),
(20,128,o),
(108,-5,o),
(246,-5,cs)
);
},
{
closed = 1;
nodes = (
(155,55,o),
(80,146,o),
(80,258,cs),
(80,371,o),
(155,463,o),
(248,463,cs),
(336,463,o),
(416,379,o),
(416,274,cs),
(416,242,ls),
(416,138,o),
(336,55,o),
(248,55,cs)
);
}
);
visible = 1;
width = 526;
},
{
hints = (
{
horizontal = 1;
place = (-203, 21);
target = up;
type = BottomGhost;
},
{
horizontal = 1;
place = (480, -20);
target = down;
type = TopGhost;
},
{
place = (172, 60);
place = (172, 60);
type = Stem;
},
{
place = (567, 60);
place = (567, 60);
type = Stem;
}
);
layerId = "0A901A10-6B10-40AA-AC10-6ECA400C9626";
shapes = (
{
closed = 1;
nodes = (
(325,-5,o),
(395,53,o),
(430,128,c),
(430,0,l),
(458,0,l),
(458,683,l),
(430,683,l),
(430,388,l),
(394,464,o),
(325,523,o),
(238,523,cs),
(103,523,o),
(20,384,o),
(20,258,cs),
(20,132,o),
(101,-5,o),
(237,-5,cs)
);
},
{
closed = 1;
nodes = (
(134,23,o),
(48,128,o),
(48,258,cs),
(48,388,o),
(134,495,o),
(239,495,cs),
(344,495,o),
(430,388,o),
(430,258,cs),
(430,128,o),
(344,23,o),
(239,23,cs)
);
}
);
width = 508;
},
{
hints = (
{
horizontal = 1;
place = (-203, 21);
target = up;
type = BottomGhost;
},
{
horizontal = 1;
place = (480, -20);
target = down;
type = TopGhost;
},
{
place = (212, 60);
place = (212, 60);
type = Stem;
},
{
place = (607, 60);
place = (607, 60);
type = Stem;
}
);
layerId = "75DB7DBE-742D-4351-BF75-A4D495193B35";
shapes = (
{
closed = 1;
nodes = (
(305,-5,o),
(361,14,o),
(406,58,c),
(406,0,l),
(489,0,l),
(489,688,l),
(406,688,l),
(406,471,l),
(361,515,o),
(303,535,o),
(250,535,cs),
(108,535,o),
(20,392,o),
(20,264,cs),
(20,133,o),
(107,-5,o),
(252,-5,cs)
);
},
{
closed = 1;
nodes = (
(184,88,o),
(102,153,o),
(102,264,cs),
(102,375,o),
(184,442,o),
(258,442,cs),
(343,442,o),
(406,354,o),
(406,269,cs),
(406,182,o),
(354,88,o),
(261,88,cs)
);
}
);
width = 539;
},
{
hints = (
{
horizontal = 1;
place = (-203, 21);
target = up;
type = BottomGhost;
},
{
horizontal = 1;
place = (480, -20);
target = down;
type = TopGhost;
},
{
place = (210, 60);
place = (210, 60);
type = Stem;
},
{
place = (605, 60);
place = (605, 60);
type = Stem;
}
);
layerId = "4BD00FE4-3084-423F-A840-AB4EC9D41C86";
shapes = (
{
closed = 1;
nodes = (
(325,-5,o),
(374,11,o),
(416,40,c),
(416,0,l),
(526,0,l),
(526,683,l),
(416,683,l),
(416,477,l),
(374,507,o),
(324,523,o),
(272,523,cs),
(130,523,o),
(20,400,o),
(20,258,cs),
(20,116,o),
(129,-5,o),
(273,-5,cs)
);
},
{
closed = 1;
nodes = (
(130,343,o),
(194,413,o),
(273,413,cs),
(348,413,o),
(416,350,o),
(416,258,cs),
(416,165,o),
(349,105,o),
(273,105,cs),
(193,105,o),
(130,172,o),
(130,258,cs)
);
}
);
width = 576;
},
{
hints = (
{
horizontal = 1;
place = (-203, 21);
target = up;
type = BottomGhost;
},
{
horizontal = 1;
place = (480, -20);
target = down;
type = TopGhost;
},
{
place = (197, 60);
place = (197, 60);
type = Stem;
},
{
place = (592, 60);
place = (592, 60);
type = Stem;
}
);
layerId = "88F21F75-214F-41EE-AE9C-B4AA79D6697C";
shapes = (
{
closed = 1;
nodes = (
(307,-5,o),
(339,1,o),
(369,14,c),
(369,0,l),
(529,0,l),
(529,683,l),
(369,683,l),
(369,504,l),
(339,517,o),
(307,523,o),
(274,523,cs),
(131,523,o),
(20,401,o),
(20,258,cs),
(20,116,o),
(130,-5,o),
(274,-5,cs)
);
},
{
closed = 1;
nodes = (
(180,316,o),
(222,363,o),
(274,363,cs),
(326,363,o),
(369,316,o),
(369,258,cs),
(369,200,o),
(327,155,o),
(274,155,cs),
(221,155,o),
(180,200,o),
(180,258,cs)
);
}
);
width = 579;
}
);
note = d;
unicode = 100;
},
{
glyphname = e;
lastChange = "2021-06-22 18:25:44 +0000";
layers = (
{
hints = (
{
horizontal = 1;
origin = (0,22);
target = (0,6);
type = Stem;
},
{
horizontal = 1;
origin = (0,9);
target = (1,6);
type = Stem;
},
{
horizontal = 1;
origin = (0,16);
target = (1,2);
type = Stem;
},
{
origin = (0,19);
target = (0,9);
type = Stem;
},
{
origin = (1,5);
target = (0,10);
type = Stem;
}
);
layerId = m01;
shapes = (
{
closed = 1;
nodes = (
(364,-5,o),
(447,67,o),
(472,180,c),
(410,180,l),
(388,100,o),
(331,55,o),
(258,55,cs),
(162,55,o),
(91,131,o),
(81,232,c),
(474,232,l),
(475,242,o),
(475,253,o),
(475,263,cs),
(475,393,o),
(388,523,o),
(249,523,cs),
(107,523,o),
(20,387,o),
(20,254,cs),
(20,110,o),
(122,-5,o),
(258,-5,cs)
);
},
{
closed = 1;
nodes = (
(96,389,o),
(165,463,o),
(250,463,cs),
(334,463,o),
(400,393,o),
(413,292,c),
(82,292,l)
);
}
);
width = 495;
},
{
hints = (
{
horizontal = 1;
place = (20, 60);
place = (20, 60);
type = Stem;
},
{
horizontal = 1;
place = (252, 60);
place = (252, 60);
type = Stem;
},
{
horizontal = 1;
place = (478, 60);
place = (478, 60);
type = Stem;
}
);
layerId = "0A901A10-6B10-40AA-AC10-6ECA400C9626";
shapes = (
{
closed = 1;
nodes = (
(362,-5,o),
(436,78,o),
(456,186,c),
(428,186,l),
(407,82,o),
(339,23,o),
(250,23,cs),
(136,23,o),
(48,121,o),
(48,249,c),
(458,249,l),
(458,254,o),
(458,258,o),
(458,263,cs),
(458,389,o),
(378,523,o),
(241,523,cs),
(101,523,o),
(20,384,o),
(20,253,cs),
(20,110,o),
(118,-5,o),
(250,-5,cs)
);
},
{
closed = 1;
nodes = (
(56,399,o),
(139,495,o),
(242,495,cs),
(343,495,o),
(422,404,o),
(429,277,c),
(49,277,l)
);
}
);
width = 477;
},
{
hints = (
{
horizontal = 1;
place = (20, 60);
place = (20, 60);
type = Stem;
},
{
horizontal = 1;
place = (252, 60);
place = (252, 60);
type = Stem;
},
{
horizontal = 1;
place = (478, 60);
place = (478, 60);
type = Stem;
}
);
layerId = "75DB7DBE-742D-4351-BF75-A4D495193B35";
shapes = (
{
closed = 1;
nodes = (
(343,-5,o),
(443,39,o),
(479,165,c),
(390,165,l),
(362,110,o),
(313,88,o),
(266,88,cs),
(195,88,o),
(115,136,o),
(103,241,c),
(487,241,l),
(488,250,o),
(488,260,o),
(488,269,cs),
(488,399,o),
(402,535,o),
(255,535,cs),
(105,535,o),
(20,393,o),
(20,254,cs),
(20,68,o),
(171,-5,o),
(268,-5,cs)
);
},
{
closed = 1;
nodes = (
(135,402,o),
(200,442,o),
(257,442,cs),
(315,442,o),
(375,403,o),
(398,326,c),
(111,326,l)
);
}
);
width = 509;
},
{
hints = (
{
horizontal = 1;
place = (20, 60);
place = (20, 60);
type = Stem;
},
{
horizontal = 1;
place = (252, 60);
place = (252, 60);
type = Stem;
},
{
horizontal = 1;
place = (478, 60);
place = (478, 60);
type = Stem;
}
);
layerId = "4BD00FE4-3084-423F-A840-AB4EC9D41C86";
shapes = (
{
closed = 1;
nodes = (
(391,-5,o),
(483,57,o),
(516,164,c),
(396,164,l),
(365,114,o),
(311,105,o),
(279,105,cs),
(211,105,o),
(158,147,o),
(138,207,c),
(518,207,l),
(524,226,o),
(526,239,o),
(526,263,cs),
(526,404,o),
(417,523,o),
(274,523,cs),
(128,523,o),
(20,399,o),
(20,256,cs),
(20,111,o),
(131,-5,o),
(281,-5,cs)
);
},
{
closed = 1;
nodes = (
(162,373,o),
(213,413,o),
(275,413,cs),
(335,413,o),
(385,375,o),
(405,317,c),
(141,317,l)
);
}
);
width = 545;
},
{
hints = (
{
horizontal = 1;
place = (-346, 21);
target = up;
type = BottomGhost;
},
{
horizontal = 1;
place = (20, 60);
place = (20, 60);
type = Stem;
},
{
horizontal = 1;
place = (252, 60);
place = (252, 60);
type = Stem;
},
{
horizontal = 1;
place = (478, 60);
place = (478, 60);
type = Stem;
},
{
place = (1398, 60);
place = (1398, 60);
type = Stem;
},
{
place = (1793, 60);
place = (1793, 60);
type = Stem;
}
);
layerId = "88F21F75-214F-41EE-AE9C-B4AA79D6697C";
shapes = (
{
closed = 1;
nodes = (
(386,-5,o),
(477,69,o),
(513,169,c),
(321,169,l),
(307,160,o),
(291,155,o),
(274,155,cs),
(240,155,o),
(211,173,o),
(195,202,c),
(522,202,l),
(526,220,o),
(528,239,o),
(528,258,cs),
(528,400,o),
(417,523,o),
(274,523,cs),
(130,523,o),
(20,400,o),
(20,258,cs),
(20,115,o),
(131,-5,o),
(274,-5,cs)
);
},
{
closed = 1;
nodes = (
(195,344,o),
(223,376,o),
(274,376,cs),
(325,376,o),
(353,344,o),
(363,303,c),
(185,303,l)
);
}
);
width = 547;
}
);
note = e;
unicode = 101;
},
{
glyphname = f;
lastChange = "2021-06-21 21:48:47 +0000";
layers = (
{
hints = (
{
horizontal = 1;
origin = (0,19);
target = up;
type = BottomGhost;
},
{
horizontal = 1;
origin = (0,16);
target = (0,17);
type = Stem;
},
{
horizontal = 1;
origin = (0,8);
target = (0,11);
type = Stem;
},
{
origin = (0,19);
target = (0,0);
type = Stem;
}
);
layerId = m01;
shapes = (
{
closed = 1;
nodes = (
(165,0,l),
(165,458,l),
(250,458,l),
(250,518,l),
(165,518,l),
(165,557,ls),
(165,594,o),
(195,623,o),
(231,623,cs),
(264,623,l),
(264,683,l),
(231,683,ls),
(161,683,o),
(105,627,o),
(105,557,cs),
(105,518,l),
(20,518,l),
(20,458,l),
(105,458,l),
(105,0,l)
);
}
);
width = 284;
},
{
hints = (
{
horizontal = 1;
place = (454, 60);
place = (454, 60);
type = Stem;
},
{
horizontal = 1;
place = (679, -20);
target = down;
type = TopGhost;
},
{
place = (109, 60);
place = (109, 60);
type = Stem;
}
);
layerId = "0A901A10-6B10-40AA-AC10-6ECA400C9626";
shapes = (
{
closed = 1;
nodes = (
(149,0,l),
(149,490,l),
(250,490,l),
(250,518,l),
(149,518,l),
(149,573,ls),
(149,618,o),
(186,655,o),
(231,655,cs),
(264,655,l),
(264,683,l),
(231,683,ls),
(170,683,o),
(121,634,o),
(121,573,cs),
(121,518,l),
(20,518,l),
(20,490,l),
(121,490,l),
(121,0,l)
);
}
);
width = 283;
},
{
hints = (
{
horizontal = 1;
place = (454, 60);
place = (454, 60);
type = Stem;
},
{
horizontal = 1;
place = (679, -20);
target = down;
type = TopGhost;
},
{
place = (123, 60);
place = (123, 60);
type = Stem;
},
{
place = (123, 159);
place = (123, 159);
type = Stem;
}
);
layerId = "75DB7DBE-742D-4351-BF75-A4D495193B35";
shapes = (
{
closed = 1;
nodes = (
(185,0,l),
(185,437,l),
(268,437,l),
(268,530,l),
(185,530,l),
(185,550,ls),
(185,576,o),
(213,594,o),
(238,594,cs),
(282,594,l),
(282,688,l),
(238,688,ls),
(195,688,o),
(103,654,o),
(103,550,cs),
(103,530,l),
(20,530,l),
(20,437,l),
(103,437,l),
(103,0,l)
);
}
);
width = 302;
},
{
hints = (
{
horizontal = 1;
place = (454, 60);
place = (454, 60);
type = Stem;
},
{
horizontal = 1;
place = (679, -20);
target = down;
type = TopGhost;
},
{
place = (112, 60);
place = (112, 60);
type = Stem;
}
);
layerId = "4BD00FE4-3084-423F-A840-AB4EC9D41C86";
shapes = (
{
closed = 1;
nodes = (
(190,0,l),
(190,407,l),
(250,407,l),
(250,517,l),
(190,517,l),
(190,557,ls),
(190,580,o),
(208,598,o),
(231,598,cs),
(264,598,l),
(264,708,l),
(231,708,ls),
(148,708,o),
(80,640,o),
(80,557,cs),
(80,517,l),
(20,517,l),
(20,407,l),
(80,407,l),
(80,0,l)
);
}
);
width = 283;
},
{
hints = (
{
horizontal = 1;
place = (454, 60);
place = (454, 60);
type = Stem;
},
{
horizontal = 1;
place = (679, -20);
target = down;
type = TopGhost;
},
{
place = (112, 60);
place = (112, 60);
type = Stem;
}
);
layerId = "88F21F75-214F-41EE-AE9C-B4AA79D6697C";
shapes = (
{
closed = 1;
nodes = (
(215,0,l),
(215,358,l),
(250,358,l),
(250,518,l),
(215,518,l),
(215,557,ls),
(215,566,o),
(222,573,o),
(231,573,cs),
(264,573,l),
(264,733,l),
(231,733,ls),
(134,733,o),
(55,654,o),
(55,557,cs),
(55,518,l),
(20,518,l),
(20,358,l),
(55,358,l),
(55,0,l)
);
}
);
width = 283;
}
);
note = f;
unicode = 102;
},
{
glyphname = g;
lastChange = "2021-06-22 18:27:23 +0000";
layers = (
{
hints = (
{
horizontal = 1;
origin = (0,28);
target = (0,21);
type = Stem;
},
{
horizontal = 1;
origin = (0,14);
target = (1,11);
type = Stem;
},
{
horizontal = 1;
origin = (0,8);
target = (1,5);
type = Stem;
},
{
horizontal = 1;
origin = (0,4);
target = down;
type = TopGhost;
},
{
origin = (0,11);
target = (1,2);
type = Stem;
},
{
origin = (0,18);
target = (0,2);
type = Stem;
}
);
layerId = m01;
shapes = (
{
closed = 1;
nodes = (
(388,-175,o),
(475,-82,o),
(475,57,cs),
(475,518,l),
(415,518,l),
(415,439,l),
(368,494,o),
(310,523,o),
(246,523,cs),
(121,523,o),
(20,405,o),
(20,261,cs),
(20,114,o),
(121,-5,o),
(245,-5,cs),
(310,-5,o),
(372,26,o),
(415,81,c),
(415,57,ls),
(415,-50,o),
(356,-115,o),
(258,-115,cs),
(214,-115,o),
(159,-100,o),
(133,-81,c),
(97,-129,l),
(134,-156,o),
(199,-175,o),
(258,-175,cs)
);
},
{
closed = 1;
nodes = (
(155,55,o),
(80,147,o),
(80,260,cs),
(80,373,o),
(156,463,o),
(250,463,cs),
(341,463,o),
(415,371,o),
(415,257,cs),
(415,146,o),
(339,55,o),
(248,55,cs)
);
}
);
width = 525;
},
{
hints = (
{
horizontal = 1;
place = (-361, 60);
place = (-361, 60);
type = Stem;
},
{
horizontal = 1;
place = (-196, 60);
place = (-196, 60);
type = Stem;
},
{
horizontal = 1;
place = (322, -20);
target = down;
type = TopGhost;
},
{
place = (48, 60);
place = (48, 60);
type = Stem;
},
{
place = (443, 60);
place = (443, 60);
type = Stem;
},
{
horizontal = 1;
place = (262, 60);
place = (262, 60);
type = Stem;
}
);
layerId = "0A901A10-6B10-40AA-AC10-6ECA400C9626";
shapes = (
{
closed = 1;
nodes = (
(382,-165,o),
(458,-76,o),
(458,48,cs),
(458,518,l),
(430,518,l),
(430,390,l),
(395,465,o),
(325,523,o),
(239,523,cs),
(103,523,o),
(20,387,o),
(20,261,cs),
(20,136,o),
(101,-5,o),
(239,-5,cs),
(325,-5,o),
(395,55,o),
(430,130,c),
(430,48,ls),
(430,-68,o),
(361,-137,o),
(256,-137,cs),
(201,-137,o),
(146,-118,o),
(122,-100,c),
(105,-123,l),
(138,-146,o),
(200,-165,o),
(257,-165,cs)
);
},
{
closed = 1;
nodes = (
(134,23,o),
(48,130,o),
(48,260,cs),
(48,390,o),
(134,495,o),
(239,495,cs),
(344,495,o),
(430,390,o),
(430,260,cs),
(430,152,o),
(361,23,o),
(242,23,cs)
);
}
);
width = 508;
},
{
hints = (
{
horizontal = 1;
place = (-361, 60);
place = (-361, 60);
type = Stem;
},
{
horizontal = 1;
place = (-196, 60);
place = (-196, 60);
type = Stem;
},
{
horizontal = 1;
place = (322, -20);
target = down;
type = TopGhost;
},
{
place = (76, 60);
place = (76, 60);
type = Stem;
},
{
place = (471, 60);
place = (471, 60);
type = Stem;
}
);
layerId = "75DB7DBE-742D-4351-BF75-A4D495193B35";
shapes = (
{
closed = 1;
nodes = (
(352,-167,o),
(488,-113,o),
(488,73,cs),
(488,530,l),
(406,530,l),
(406,472,l),
(361,516,o),
(304,535,o),
(251,535,cs),
(110,535,o),
(20,398,o),
(20,266,cs),
(20,137,o),
(107,-5,o),
(251,-5,cs),
(305,-5,o),
(353,15,o),
(399,59,c),
(399,40,ls),
(399,-34,o),
(326,-74,o),
(265,-74,cs),
(230,-74,o),
(177,-64,o),
(140,-38,c),
(86,-110,l),
(147,-154,o),
(216,-167,o),
(261,-167,cs)
);
},
{
closed = 1;
nodes = (
(183,88,o),
(102,155,o),
(102,266,cs),
(102,379,o),
(186,442,o),
(257,442,cs),
(328,442,o),
(406,375,o),
(406,266,cs),
(406,154,o),
(323,88,o),
(254,88,cs)
);
}
);
width = 538;
},
{
hints = (
{
horizontal = 1;
place = (-361, 60);
place = (-361, 60);
type = Stem;
},
{
horizontal = 1;
place = (-196, 60);
place = (-196, 60);
type = Stem;
},
{
horizontal = 1;
place = (322, -20);
target = down;
type = TopGhost;
},
{
place = (74, 60);
place = (74, 60);
type = Stem;
},
{
place = (469, 60);
place = (469, 60);
type = Stem;
}
);
layerId = "4BD00FE4-3084-423F-A840-AB4EC9D41C86";
shapes = (
{
closed = 1;
nodes = (
(432,-201,o),
(525,-91,o),
(525,56,cs),
(525,517,l),
(415,517,l),
(415,477,l),
(373,506,o),
(324,522,o),
(273,522,cs),
(128,522,o),
(20,400,o),
(20,259,cs),
(20,118,o),
(128,-6,o),
(271,-6,cs),
(323,-6,o),
(373,10,o),
(414,40,c),
(414,25,ls),
(414,-33,o),
(355,-91,o),
(273,-91,cs),
(238,-91,o),
(191,-76,o),
(173,-62,c),
(107,-150,l),
(147,-180,o),
(217,-201,o),
(283,-201,cs)
);
},
{
closed = 1;
nodes = (
(194,104,o),
(130,174,o),
(130,259,cs),
(130,345,o),
(193,412,o),
(273,412,cs),
(356,412,o),
(415,340,o),
(415,259,cs),
(415,174,o),
(351,104,o),
(273,104,cs)
);
}
);
width = 575;
},
{
hints = (
{
horizontal = 1;
place = (-361, 60);
place = (-361, 60);
type = Stem;
},
{
horizontal = 1;
place = (-196, 60);
place = (-196, 60);
type = Stem;
},
{
horizontal = 1;
place = (322, -20);
target = down;
type = TopGhost;
},
{
place = (61, 60);
place = (61, 60);
type = Stem;
},
{
place = (456, 60);
place = (456, 60);
type = Stem;
}
);
layerId = "88F21F75-214F-41EE-AE9C-B4AA79D6697C";
shapes = (
{
closed = 1;
nodes = (
(424,-225,o),
(528,-104,o),
(528,57,cs),
(528,518,l),
(368,518,l),
(368,505,l),
(338,517,o),
(306,523,o),
(274,523,cs),
(131,523,o),
(20,403,o),
(20,260,cs),
(20,119,o),
(129,-5,o),
(274,-5,cs),
(305,-5,o),
(334,1,o),
(363,12,c),
(363,0,ls),
(363,-46,o),
(307,-65,o),
(260,-65,cs),
(219,-65,o),
(178,-50,o),
(165,-41,c),
(70,-169,l),
(114,-201,o),
(189,-225,o),
(261,-225,cs)
);
},
{
closed = 1;
nodes = (
(222,155,o),
(180,202,o),
(180,260,cs),
(180,318,o),
(221,363,o),
(274,363,cs),
(330,363,o),
(368,313,o),
(368,260,cs),
(368,202,o),
(326,155,o),
(274,155,cs)
);
}
);
width = 578;
}
);
note = g;
unicode = 103;
},
{
glyphname = h;
lastChange = "2021-06-21 21:48:47 +0000";
layers = (
{
hints = (
{
horizontal = 1;
origin = (0,19);
target = up;
type = BottomGhost;
},
{
horizontal = 1;
origin = (0,13);
target = (0,4);
type = Stem;
},
{
origin = (0,19);
target = (0,0);
type = Stem;
},
{
origin = (0,8);
target = (0,9);
type = Stem;
}
);
layerId = m01;
shapes = (
{
closed = 1;
nodes = (
(110,0,l),
(110,259,ls),
(110,384,o),
(175,458,o),
(272,458,cs),
(352,458,o),
(411,406,o),
(411,335,cs),
(411,0,l),
(471,0,l),
(471,335,ls),
(471,438,o),
(386,518,o),
(276,518,cs),
(212,518,o),
(149,490,o),
(110,444,c),
(110,683,l),
(50,683,l),
(50,0,l)
);
}
);
width = 511;
},
{
associatedMasterId = m01;
hints = (
{
horizontal = 1;
origin = (0,19);
target = up;
type = BottomGhost;
},
{
horizontal = 1;
origin = (0,13);
target = (0,4);
type = Stem;
},
{
origin = (0,19);
target = (0,0);
type = Stem;
},
{
origin = (0,8);
target = (0,9);
type = Stem;
}
);
layerId = "409A7363-F84B-4CAA-9B84-AE6DBA46697A";
name = "21 Jun 21, 17:44";
shapes = (
{
closed = 1;
nodes = (
(110,0,l),
(110,250,ls),
(110,431,o),
(218,458,o),
(272,458,cs),
(336,458,o),
(411,420,o),
(411,335,cs),
(411,0,l),
(471,0,l),
(471,335,ls),
(471,442,o),
(382,518,o),
(276,518,cs),
(215,518,o),
(151,492,o),
(110,444,c),
(110,683,l),
(50,683,l),
(50,0,l)
);
}
);
visible = 1;
width = 511;
},
{
hints = (
{
horizontal = 1;
place = (-101, 21);
target = up;
type = BottomGhost;
},
{
horizontal = 1;
place = (357, 60);
place = (357, 60);
type = Stem;
},
{
horizontal = 1;
place = (582, -20);
target = down;
type = TopGhost;
},
{
place = (80, 60);
place = (80, 60);
type = Stem;
},
{
place = (441, 60);
place = (441, 60);
type = Stem;
}
);
layerId = "0A901A10-6B10-40AA-AC10-6ECA400C9626";
shapes = (
{
closed = 1;
nodes = (
(78,0,l),
(78,277,ls),
(78,474,o),
(206,495,o),
(253,495,cs),
(320,495,o),
(402,453,o),
(402,360,cs),
(402,0,l),
(430,0,l),
(430,360,ls),
(430,457,o),
(349,523,o),
(254,523,cs),
(179,523,o),
(112,484,o),
(78,415,c),
(78,683,l),
(50,683,l),
(50,0,l)
);
}
);
width = 470;
},
{
hints = (
{
horizontal = 1;
place = (-346, 21);
target = up;
type = BottomGhost;
},
{
horizontal = 1;
place = (-101, 21);
target = up;
type = BottomGhost;
},
{
horizontal = 1;
place = (172, -20);
target = down;
type = TopGhost;
},
{
horizontal = 1;
place = (357, 60);
place = (357, 60);
type = Stem;
},
{
horizontal = 1;
place = (582, -20);
target = down;
type = TopGhost;
},
{
place = (111, 60);
place = (111, 60);
type = Stem;
},
{
place = (472, 60);
place = (472, 60);
type = Stem;
},
{
place = (1418, 60);
place = (1418, 60);
type = Stem;
},
{
place = (1779, 60);
place = (1779, 60);
type = Stem;
}
);
layerId = "75DB7DBE-742D-4351-BF75-A4D495193B35";
shapes = (
{
closed = 1;
nodes = (
(132,0,l),
(132,259,ls),
(132,396,o),
(204,442,o),
(282,442,cs),
(348,442,o),
(403,408,o),
(403,276,cs),
(403,0,l),
(485,0,l),
(485,341,ls),
(485,492,o),
(347,535,o),
(277,535,cs),
(234,535,o),
(177,519,o),
(132,479,c),
(132,687,l),
(50,687,l),
(50,0,l)
);
}
);
width = 525;
},
{
hints = (
{
horizontal = 1;
place = (-101, 21);
target = up;
type = BottomGhost;
},
{
horizontal = 1;
place = (357, 60);
place = (357, 60);
type = Stem;
},
{
horizontal = 1;
place = (582, -20);
target = down;
type = TopGhost;
},
{
place = (130, 60);
place = (130, 60);
type = Stem;
},
{
place = (491, 60);
place = (491, 60);
type = Stem;
}
);
layerId = "4BD00FE4-3084-423F-A840-AB4EC9D41C86";
shapes = (
{
closed = 1;
nodes = (
(160,0,l),
(160,228,ls),
(160,321,o),
(195,413,o),
(295,413,cs),
(360,413,o),
(411,375,o),
(411,314,cs),
(411,0,l),
(521,0,l),
(521,314,ls),
(521,435,o),
(422,523,o),
(302,523,cs),
(253,523,o),
(202,508,o),
(160,480,c),
(160,683,l),
(50,683,l),
(50,0,l)
);
}
);
width = 561;
},
{
hints = (
{
horizontal = 1;
place = (-101, 21);
target = up;
type = BottomGhost;
},
{
horizontal = 1;
place = (357, 60);
place = (357, 60);
type = Stem;
},
{
horizontal = 1;
place = (582, -20);
target = down;
type = TopGhost;
},
{
place = (127, 60);
place = (127, 60);
type = Stem;
},
{
place = (488, 60);
place = (488, 60);
type = Stem;
}
);
layerId = "88F21F75-214F-41EE-AE9C-B4AA79D6697C";
shapes = (
{
closed = 1;
nodes = (
(210,0,l),
(210,203,ls),
(210,278,o),
(234,363,o),
(317,363,cs),
(385,363,o),
(411,306,o),
(411,210,cs),
(411,0,l),
(571,0,l),
(571,289,ls),
(571,424,o),
(460,523,o),
(328,523,cs),
(288,523,o),
(247,514,o),
(210,497,c),
(210,683,l),
(50,683,l),
(50,0,l)
);
}
);
width = 611;
}
);
note = h;
unicode = 104;
},
{
glyphname = i;
lastChange = "2021-06-21 21:48:47 +0000";
layers = (
{
hints = (
{
horizontal = 1;
origin = (0,3);
target = up;
type = BottomGhost;
},
{
horizontal = 1;
origin = (0,2);
target = down;
type = TopGhost;
},
{
horizontal = 1;
origin = (1,3);
target = (1,2);
type = Stem;
},
{
origin = (0,3);
target = (0,0);
type = Stem;
}
);
layerId = m01;
shapes = (
{
closed = 1;
nodes = (
(110,0,l),
(110,518,l),
(50,518,l),
(50,0,l)
);
},
{
closed = 1;
nodes = (
(110,584,l),
(110,683,l),
(50,683,l),
(50,584,l)
);
}
);
width = 160;
},
{
hints = (
{
horizontal = 1;
place = (-142, 21);
target = up;
type = BottomGhost;
},
{
horizontal = 1;
place = (442, 99);
place = (442, 99);
type = Stem;
},
{
place = (36, 60);
place = (36, 60);
type = Stem;
}
);
layerId = "0A901A10-6B10-40AA-AC10-6ECA400C9626";
shapes = (
{
closed = 1;
nodes = (
(78,0,l),
(78,518,l),
(50,518,l),
(50,0,l)
);
},
{
closed = 1;
nodes = (
(78,583,l),
(78,683,l),
(50,683,l),
(50,583,l)
);
}
);
width = 128;
},
{
hints = (
{
horizontal = 1;
place = (-142, 21);
target = up;
type = BottomGhost;
},
{
horizontal = 1;
place = (442, 99);
place = (442, 99);
type = Stem;
},
{
place = (214, 60);
place = (214, 60);
type = Stem;
}
);
layerId = "75DB7DBE-742D-4351-BF75-A4D495193B35";
shapes = (
{
closed = 1;
nodes = (
(132,0,l),
(132,530,l),
(50,530,l),
(50,0,l)
);
},
{
closed = 1;
nodes = (
(132,557,l),
(132,687,l),
(50,687,l),
(50,557,l)
);
}
);
width = 182;
},
{
hints = (
{
horizontal = 1;
place = (-142, 21);
target = up;
type = BottomGhost;
},
{
horizontal = 1;
place = (442, 99);
place = (442, 99);
type = Stem;
},
{
place = (227, 60);
place = (227, 60);
type = Stem;
}
);
layerId = "4BD00FE4-3084-423F-A840-AB4EC9D41C86";
shapes = (
{
closed = 1;
nodes = (
(160,0,l),
(160,495,l),
(50,495,l),
(50,0,l)
);
},
{
closed = 1;
nodes = (
(160,584,l),
(160,683,l),
(50,683,l),
(50,584,l)
);
}
);
width = 210;
},
{
hints = (
{
horizontal = 1;
place = (-142, 21);
target = up;
type = BottomGhost;
},
{
horizontal = 1;
place = (442, 99);
place = (442, 99);
type = Stem;
},
{
place = (252, 60);
place = (252, 60);
type = Stem;
}
);
layerId = "88F21F75-214F-41EE-AE9C-B4AA79D6697C";
shapes = (
{
closed = 1;
nodes = (
(210,0,l),
(210,495,l),
(50,495,l),
(50,0,l)
);
},
{
closed = 1;
nodes = (
(210,584,l),
(210,683,l),
(50,683,l),
(50,584,l)
);
}
);
width = 260;
}
);
note = i;
unicode = 105;
},
{
glyphname = j;
lastChange = "2021-06-21 21:48:47 +0000";
layers = (
{
hints = (
{
horizontal = 1;
origin = (0,11);
target = (0,10);
type = Stem;
},
{
horizontal = 1;
origin = (0,5);
target = down;
type = TopGhost;
},
{
horizontal = 1;
origin = (1,3);
target = (1,2);
type = Stem;
},
{
origin = (0,6);
target = (0,3);
type = Stem;
}
);
layerId = m01;
shapes = (
{
closed = 1;
nodes = (
(20,-165,ls),
(88,-165,o),
(144,-109,o),
(144,-41,cs),
(144,518,l),
(84,518,l),
(84,-41,ls),
(84,-76,o),
(55,-105,o),
(20,-105,cs),
(0,-105,l),
(0,-165,l)
);
},
{
closed = 1;
nodes = (
(144,585,l),
(144,683,l),
(84,683,l),
(84,585,l)
);
}
);
width = 194;
},
{
hints = (
{
horizontal = 1;
place = (-199, 21);
target = up;
type = BottomGhost;
},
{
horizontal = 1;
place = (551, 98);
place = (551, 98);
type = Stem;
},
{
place = (198, 144);
place = (198, 144);
type = Stem;
}
);
layerId = "0A901A10-6B10-40AA-AC10-6ECA400C9626";
shapes = (
{
closed = 1;
nodes = (
(20,-165,ls),
(79,-165,o),
(128,-116,o),
(128,-57,cs),
(128,518,l),
(100,518,l),
(100,-57,ls),
(100,-101,o),
(64,-137,o),
(20,-137,cs),
(0,-137,l),
(0,-165,l)
);
},
{
closed = 1;
nodes = (
(128,583,l),
(128,683,l),
(100,683,l),
(100,583,l)
);
}
);
width = 177;
},
{
hints = (
{
horizontal = 1;
place = (-199, 21);
target = up;
type = BottomGhost;
},
{
horizontal = 1;
place = (551, 98);
place = (551, 98);
type = Stem;
},
{
place = (250, 144);
place = (250, 144);
type = Stem;
}
);
layerId = "75DB7DBE-742D-4351-BF75-A4D495193B35";
shapes = (
{
closed = 1;
nodes = (
(31,-158,ls),
(73,-158,o),
(164,-125,o),
(164,-21,cs),
(164,530,l),
(82,530,l),
(82,-21,ls),
(82,-46,o),
(55,-65,o),
(31,-65,cs),
(0,-65,l),
(0,-158,l)
);
},
{
closed = 1;
nodes = (
(164,558,l),
(164,687,l),
(82,687,l),
(82,558,l)
);
}
);
width = 214;
},
{
hints = (
{
horizontal = 1;
place = (-199, 21);
target = up;
type = BottomGhost;
},
{
horizontal = 1;
place = (551, 98);
place = (551, 98);
type = Stem;
},
{
place = (332, 60);
place = (332, 60);
type = Stem;
}
);
layerId = "4BD00FE4-3084-423F-A840-AB4EC9D41C86";
shapes = (
{
closed = 1;
nodes = (
(20,-189,ls),
(102,-189,o),
(169,-122,o),
(169,-40,cs),
(169,496,l),
(59,496,l),
(59,-40,ls),
(59,-61,o),
(41,-79,o),
(20,-79,cs),
(0,-79,l),
(0,-189,l)
);
},
{
closed = 1;
nodes = (
(169,585,l),
(169,684,l),
(59,684,l),
(59,585,l)
);
}
);
width = 218;
},
{
hints = (
{
horizontal = 1;
place = (-199, 21);
target = up;
type = BottomGhost;
},
{
horizontal = 1;
place = (551, 98);
place = (551, 98);
type = Stem;
},
{
place = (237, 144);
place = (237, 144);
type = Stem;
}
);
layerId = "88F21F75-214F-41EE-AE9C-B4AA79D6697C";
shapes = (
{
closed = 1;
nodes = (
(20,-215,ls),
(116,-215,o),
(194,-137,o),
(194,-41,cs),
(194,495,l),
(34,495,l),
(34,-41,ls),
(34,-49,o),
(28,-55,o),
(20,-55,cs),
(0,-55,l),
(0,-215,l)
);
},
{
closed = 1;
nodes = (
(194,584,l),
(194,683,l),
(34,683,l),
(34,584,l)
);
}
);
width = 243;
}
);
note = j;
unicode = 106;
},
{
glyphname = k;
lastChange = "2021-06-22 18:27:41 +0000";
layers = (
{
hints = (
{
horizontal = 1;
origin = (0,11);
target = up;
type = BottomGhost;
},
{
horizontal = 1;
origin = (0,7);
target = down;
type = TopGhost;
},
{
origin = (0,11);
target = (0,0);
type = Stem;
}
);
layerId = m01;
shapes = (
{
closed = 1;
nodes = (
(110,0,l),
(110,183,l),
(209,267,l),
(411,0,l),
(486,0,l),
(254,306,l),
(504,518,l),
(411,518,l),
(110,262,l),
(110,683,l),
(50,683,l),
(50,0,l)
);
}
);
width = 524;
},
{
hints = (
{
horizontal = 1;
place = (-117, 21);
target = up;
type = BottomGhost;
},
{
horizontal = 1;
place = (566, -20);
target = down;
type = TopGhost;
},
{
place = (26, 60);
place = (26, 60);
type = Stem;
}
);
layerId = "0A901A10-6B10-40AA-AC10-6ECA400C9626";
shapes = (
{
closed = 1;
nodes = (
(78,0,l),
(78,190,l),
(195,290,l),
(415,0,l),
(450,0,l),
(217,308,l),
(463,518,l),
(420,518,l),
(78,227,l),
(78,683,l),
(50,683,l),
(50,0,l)
);
}
);
width = 483;
},
{
hints = (
{
horizontal = 1;
place = (-117, 21);
target = up;
type = BottomGhost;
},
{
horizontal = 1;
place = (566, -20);
target = down;
type = TopGhost;
},
{
place = (34, 60);
place = (34, 60);
type = Stem;
}
);
layerId = "75DB7DBE-742D-4351-BF75-A4D495193B35";
shapes = (
{
closed = 1;
nodes = (
(132,0,l),
(132,182,l),
(215,251,l),
(410,0,l),
(520,0,l),
(282,306,l),
(551,530,l),
(412,530,l),
(132,298,l),
(132,688,l),
(50,688,l),
(50,0,l)
);
}
);
width = 571;
},
{
hints = (
{
horizontal = 1;
place = (-117, 21);
target = up;
type = BottomGhost;
},
{
horizontal = 1;
place = (566, -20);
target = down;
type = TopGhost;
},
{
place = (50, 60);
place = (50, 60);
type = Stem;
}
);
layerId = "4BD00FE4-3084-423F-A840-AB4EC9D41C86";
shapes = (
{
closed = 1;
nodes = (
(160,0,l),
(160,173,l),
(224,233,l),
(379,0,l),
(511,0,l),
(306,309,l),
(529,518,l),
(368,518,l),
(160,323,l),
(160,683,l),
(50,683,l),
(50,0,l)
);
}
);
width = 549;
},
{
hints = (
{
horizontal = 1;
place = (-117, 21);
target = up;
type = BottomGhost;
},
{
horizontal = 1;
place = (566, -20);
target = down;
type = TopGhost;
},
{
place = (77, 60);
place = (77, 60);
type = Stem;
}
);
layerId = "88F21F75-214F-41EE-AE9C-B4AA79D6697C";
shapes = (
{
closed = 1;
nodes = (
(210,0,l),
(210,164,l),
(239,194,l),
(352,0,l),
(538,0,l),
(354,313,l),
(553,518,l),
(330,518,l),
(210,394,l),
(210,683,l),
(50,683,l),
(50,0,l)
);
}
);
width = 573;
}
);
note = k;
unicode = 107;
},
{
glyphname = l;
lastChange = "2021-06-21 21:48:47 +0000";
layers = (
{
hints = (
{
horizontal = 1;
origin = (0,3);
target = up;
type = BottomGhost;
},
{
origin = (0,3);
target = (0,0);
type = Stem;
}
);
layerId = m01;
shapes = (
{
closed = 1;
nodes = (
(110,0,l),
(110,683,l),
(50,683,l),
(50,0,l)
);
}
);
width = 160;
},
{
hints = (
{
horizontal = 1;
place = (-86, 21);
target = up;
type = BottomGhost;
},
{
horizontal = 1;
place = (597, -20);
target = down;
type = TopGhost;
},
{
place = (364, 60);
place = (364, 60);
type = Stem;
}
);
layerId = "0A901A10-6B10-40AA-AC10-6ECA400C9626";
shapes = (
{
closed = 1;
nodes = (
(78,0,l),
(78,683,l),
(50,683,l),
(50,0,l)
);
}
);
width = 128;
},
{
hints = (
{
horizontal = 1;
place = (-86, 21);
target = up;
type = BottomGhost;
},
{
horizontal = 1;
place = (597, -20);
target = down;
type = TopGhost;
},
{
place = (575, 60);
place = (575, 60);
type = Stem;
}
);
layerId = "75DB7DBE-742D-4351-BF75-A4D495193B35";
shapes = (
{
closed = 1;
nodes = (
(132,0,l),
(132,688,l),
(50,688,l),
(50,0,l)
);
}
);
width = 182;
},
{
hints = (
{
horizontal = 1;
place = (-86, 21);
target = up;
type = BottomGhost;
},
{
horizontal = 1;
place = (597, -20);
target = down;
type = TopGhost;
},
{
place = (589, 60);
place = (589, 60);
type = Stem;
}
);
layerId = "4BD00FE4-3084-423F-A840-AB4EC9D41C86";
shapes = (
{
closed = 1;
nodes = (
(160,0,l),
(160,683,l),
(50,683,l),
(50,0,l)
);
}
);
width = 210;
},
{
hints = (
{
horizontal = 1;
place = (-86, 21);
target = up;
type = BottomGhost;
},
{
horizontal = 1;
place = (597, -20);
target = down;
type = TopGhost;
},
{
place = (614, 60);
place = (614, 60);
type = Stem;
}
);
layerId = "88F21F75-214F-41EE-AE9C-B4AA79D6697C";
shapes = (
{
closed = 1;
nodes = (
(210,0,l),
(210,683,l),
(50,683,l),
(50,0,l)
);
}
);
width = 260;
}
);
note = l;
unicode = 108;
},
{
glyphname = m;
lastChange = "2021-06-22 18:29:48 +0000";
layers = (
{
hints = (
{
horizontal = 1;
origin = (0,34);
target = up;
type = BottomGhost;
},
{
horizontal = 1;
origin = (0,28);
target = (0,4);
type = Stem;
},
{
horizontal = 1;
origin = (0,33);
target = down;
type = TopGhost;
},
{
origin = (0,34);
target = (0,0);
type = Stem;
},
{
origin = (0,8);
target = (0,9);
type = Stem;
},
{
origin = (0,17);
target = (0,18);
type = Stem;
}
);
layerId = m01;
shapes = (
{
closed = 1;
nodes = (
(110,0,l),
(110,258,ls),
(110,385,o),
(171,463,o),
(256,463,cs),
(323,463,o),
(373,408,o),
(373,334,cs),
(373,0,l),
(433,0,l),
(433,258,ls),
(433,384,o),
(494,463,o),
(578,463,cs),
(645,463,o),
(695,408,o),
(695,334,cs),
(695,0,l),
(755,0,l),
(755,334,ls),
(755,442,o),
(680,523,o),
(581,523,cs),
(513,523,o),
(449,486,o),
(413,425,c),
(383,485,o),
(324,523,o),
(258,523,cs),
(202,523,o),
(146,497,o),
(110,452,c),
(110,518,l),
(50,518,l),
(50,0,l)
);
}
);
width = 785;
},
{
associatedMasterId = m01;
hints = (
{
horizontal = 1;
origin = (0,34);
target = up;
type = BottomGhost;
},
{
horizontal = 1;
origin = (0,28);
target = (0,4);
type = Stem;
},
{
horizontal = 1;
origin = (0,33);
target = down;
type = TopGhost;
},
{
origin = (0,34);
target = (0,0);
type = Stem;
},
{
origin = (0,8);
target = (0,9);
type = Stem;
},
{
origin = (0,17);
target = (0,18);
type = Stem;
}
);
layerId = "0CAF838F-F27E-464A-8512-8D064137B450";
name = "21 Jun 21, 17:41";
shapes = (
{
closed = 1;
nodes = (
(110,0,l),
(110,246,ls),
(110,442,o),
(217,463,o),
(256,463,cs),
(309,463,o),
(373,423,o),
(373,334,cs),
(373,0,l),
(433,0,l),
(433,246,ls),
(433,442,o),
(540,463,o),
(578,463,cs),
(631,463,o),
(695,423,o),
(695,334,cs),
(695,0,l),
(755,0,l),
(755,334,ls),
(755,436,o),
(686,523,o),
(581,523,cs),
(511,523,o),
(448,484,o),
(413,425,c),
(384,484,o),
(325,523,o),
(258,523,cs),
(201,523,o),
(146,496,o),
(110,452,c),
(110,518,l),
(50,518,l),
(50,0,l)
);
}
);
visible = 1;
width = 785;
},
{
hints = (
{
horizontal = 1;
place = (-4, 21);
target = up;
type = BottomGhost;
},
{
horizontal = 1;
place = (514, -20);
target = down;
type = TopGhost;
},
{
place = (228, 60);
place = (228, 60);
type = Stem;
},
{
place = (551, 60);
place = (551, 60);
type = Stem;
},
{
place = (873, 60);
place = (873, 60);
type = Stem;
}
);
layerId = "0A901A10-6B10-40AA-AC10-6ECA400C9626";
shapes = (
{
closed = 1;
nodes = (
(78,0,l),
(78,265,ls),
(78,370,o),
(117,495,o),
(243,495,cs),
(299,495,o),
(373,451,o),
(373,352,cs),
(373,0,l),
(401,0,l),
(401,265,ls),
(401,370,o),
(440,495,o),
(565,495,cs),
(622,495,o),
(695,451,o),
(695,352,cs),
(695,0,l),
(723,0,l),
(723,352,ls),
(723,445,o),
(660,523,o),
(563,523,cs),
(485,523,o),
(423,473,o),
(395,401,c),
(377,473,o),
(316,523,o),
(240,523,cs),
(168,523,o),
(108,478,o),
(78,414,c),
(78,518,l),
(50,518,l),
(50,0,l)
);
}
);
width = 752;
},
{
hints = (
{
horizontal = 1;
place = (-4, 21);
target = up;
type = BottomGhost;
},
{
horizontal = 1;
place = (514, -20);
target = down;
type = TopGhost;
},
{
place = (253, 60);
place = (253, 60);
type = Stem;
},
{
place = (575, 60);
place = (575, 60);
type = Stem;
},
{
place = (898, 60);
place = (898, 60);
type = Stem;
}
);
layerId = "75DB7DBE-742D-4351-BF75-A4D495193B35";
shapes = (
{
closed = 1;
nodes = (
(132,0,l),
(132,253,ls),
(132,376,o),
(184,442,o),
(258,442,cs),
(318,442,o),
(365,395,o),
(365,274,cs),
(365,0,l),
(447,0,l),
(447,253,ls),
(447,376,o),
(500,442,o),
(573,442,cs),
(635,442,o),
(681,395,o),
(681,274,cs),
(681,0,l),
(763,0,l),
(763,337,ls),
(763,484,o),
(649,535,o),
(576,535,cs),
(525,535,o),
(461,510,o),
(417,449,c),
(379,512,o),
(316,535,o),
(264,535,cs),
(221,535,o),
(172,519,o),
(132,483,c),
(132,530,l),
(50,530,l),
(50,0,l)
);
}
);
width = 793;
},
{
hints = (
{
horizontal = 1;
place = (-4, 21);
target = up;
type = BottomGhost;
},
{
horizontal = 1;
place = (514, -20);
target = down;
type = TopGhost;
},
{
place = (276, 60);
place = (276, 60);
type = Stem;
},
{
place = (599, 60);
place = (599, 60);
type = Stem;
},
{
place = (921, 60);
place = (921, 60);
type = Stem;
}
);
layerId = "4BD00FE4-3084-423F-A840-AB4EC9D41C86";
shapes = (
{
closed = 1;
nodes = (
(160,0,l),
(160,221,ls),
(160,337,o),
(206,413,o),
(278,413,cs),
(334,413,o),
(373,371,o),
(373,310,cs),
(373,0,l),
(483,0,l),
(483,221,ls),
(483,338,o),
(529,413,o),
(601,413,cs),
(657,413,o),
(695,371,o),
(695,310,cs),
(695,0,l),
(805,0,l),
(805,310,ls),
(805,431,o),
(719,523,o),
(607,523,cs),
(543,523,o),
(481,494,o),
(440,445,c),
(403,494,o),
(345,523,o),
(284,523,cs),
(241,523,o),
(197,509,o),
(160,484,c),
(160,518,l),
(50,518,l),
(50,0,l)
);
}
);
width = 834;
},
{
hints = (
{
horizontal = 1;
place = (-4, 21);
target = up;
type = BottomGhost;
},
{
horizontal = 1;
place = (514, -20);
target = down;
type = TopGhost;
},
{
place = (312, 60);
place = (312, 60);
type = Stem;
},
{
place = (634, 60);
place = (634, 60);
type = Stem;
},
{
place = (957, 60);
place = (957, 60);
type = Stem;
}
);
layerId = "88F21F75-214F-41EE-AE9C-B4AA79D6697C";
shapes = (
{
closed = 1;
nodes = (
(210,0,l),
(210,196,ls),
(210,312,o),
(228,363,o),
(293,363,cs),
(359,363,o),
(373,312,o),
(373,196,cs),
(373,0,l),
(533,0,l),
(533,196,ls),
(533,312,o),
(551,363,o),
(616,363,cs),
(682,363,o),
(695,312,o),
(695,196,cs),
(695,0,l),
(855,0,l),
(855,285,ls),
(855,413,o),
(764,523,o),
(632,523,cs),
(571,523,o),
(511,500,o),
(465,457,c),
(421,501,o),
(367,523,o),
(310,523,cs),
(277,523,o),
(242,516,o),
(210,502,c),
(210,518,l),
(50,518,l),
(50,0,l)
);
}
);
width = 884;
},
{
associatedMasterId = "4BD00FE4-3084-423F-A840-AB4EC9D41C86";
hints = (
{
horizontal = 1;
place = (-4, 21);
target = up;
type = BottomGhost;
},
{
horizontal = 1;
place = (514, -20);
target = down;
type = TopGhost;
},
{
place = (276, 60);
place = (276, 60);
type = Stem;
},
{
place = (599, 60);
place = (599, 60);
type = Stem;
},
{
place = (921, 60);
place = (921, 60);
type = Stem;
}
);
layerId = "FA875B7D-8E89-4B8B-A215-7D101A7CACA3";
name = "22 Jun 21, 15:29";
shapes = (
{
closed = 1;
nodes = (
(160,0,l),
(160,221,ls),
(160,301,o),
(184,413,o),
(278,413,cs),
(341,413,o),
(373,363,o),
(373,310,cs),
(373,0,l),
(483,0,l),
(483,221,ls),
(483,301,o),
(506,413,o),
(601,413,cs),
(664,413,o),
(695,363,o),
(695,310,cs),
(695,0,l),
(805,0,l),
(805,310,ls),
(805,425,o),
(725,523,o),
(607,523,cs),
(542,523,o),
(480,493,o),
(440,445,c),
(403,494,o),
(345,523,o),
(284,523,cs),
(241,523,o),
(197,509,o),
(160,484,c),
(160,518,l),
(50,518,l),
(50,0,l)
);
}
);
visible = 1;
width = 834;
}
);
note = m;
unicode = 109;
},
{
glyphname = n;
lastChange = "2021-06-21 21:48:47 +0000";
layers = (
{
hints = (
{
horizontal = 1;
origin = (0,19);
target = up;
type = BottomGhost;
},
{
horizontal = 1;
origin = (0,13);
target = (0,4);
type = Stem;
},
{
horizontal = 1;
origin = (0,18);
target = down;
type = TopGhost;
},
{
origin = (0,19);
target = (0,0);
type = Stem;
},
{
origin = (0,8);
target = (0,9);
type = Stem;
}
);
layerId = m01;
shapes = (
{
closed = 1;
nodes = (
(110,0,l),
(110,259,ls),
(110,386,o),
(174,463,o),
(272,463,cs),
(352,463,o),
(411,410,o),
(411,339,cs),
(411,0,l),
(471,0,l),
(471,339,ls),
(471,443,o),
(386,523,o),
(276,523,cs),
(212,523,o),
(149,495,o),
(110,449,c),
(110,518,l),
(50,518,l),
(50,0,l)
);
}
);
width = 511;
},
{
associatedMasterId = m01;
hints = (
{
horizontal = 1;
origin = (0,19);
target = up;
type = BottomGhost;
},
{
horizontal = 1;
origin = (0,13);
target = (0,4);
type = Stem;
},
{
horizontal = 1;
origin = (0,18);
target = down;
type = TopGhost;
},
{
origin = (0,19);
target = (0,0);
type = Stem;
},
{
origin = (0,8);
target = (0,9);
type = Stem;
}
);
layerId = "2CFB8C19-7257-4257-8A20-5CD340022583";
name = "21 Jun 21, 17:45";
shapes = (
{
closed = 1;
nodes = (
(110,0,l),
(110,253,ls),
(110,436,o),
(218,463,o),
(272,463,cs),
(336,463,o),
(411,424,o),
(411,339,cs),
(411,0,l),
(471,0,l),
(471,339,ls),
(471,446,o),
(382,523,o),
(276,523,cs),
(215,523,o),
(151,497,o),
(110,449,c),
(110,518,l),
(50,518,l),
(50,0,l)
);
}
);
visible = 1;
width = 511;
},
{
hints = (
{
horizontal = 1;
place = (-346, 21);
target = up;
type = BottomGhost;
},
{
horizontal = 1;
place = (172, -20);
target = down;
type = TopGhost;
},
{
place = (1391, 60);
place = (1391, 60);
type = Stem;
},
{
place = (1752, 60);
place = (1752, 60);
type = Stem;
}
);
layerId = "0A901A10-6B10-40AA-AC10-6ECA400C9626";
shapes = (
{
closed = 1;
nodes = (
(78,0,l),
(78,271,ls),
(78,473,o),
(209,495,o),
(258,495,cs),
(326,495,o),
(411,452,o),
(411,356,cs),
(411,0,l),
(439,0,l),
(439,356,ls),
(439,455,o),
(357,523,o),
(259,523,cs),
(184,523,o),
(113,483,o),
(78,412,c),
(78,518,l),
(50,518,l),
(50,0,l)
);
}
);
width = 479;
},
{
hints = (
{
horizontal = 1;
place = (-346, 21);
target = up;
type = BottomGhost;
},
{
horizontal = 1;
place = (172, -20);
target = down;
type = TopGhost;
},
{
place = (1418, 60);
place = (1418, 60);
type = Stem;
},
{
place = (1779, 60);
place = (1779, 60);
type = Stem;
}
);
layerId = "75DB7DBE-742D-4351-BF75-A4D495193B35";
shapes = (
{
closed = 1;
nodes = (
(132,0,l),
(132,259,ls),
(132,396,o),
(204,442,o),
(282,442,cs),
(348,442,o),
(403,408,o),
(403,276,cs),
(403,0,l),
(485,0,l),
(485,341,ls),
(485,492,o),
(347,535,o),
(277,535,cs),
(234,535,o),
(177,519,o),
(132,479,c),
(132,530,l),
(50,530,l),
(50,0,l)
);
}
);
width = 525;
},
{
hints = (
{
horizontal = 1;
place = (-346, 21);
target = up;
type = BottomGhost;
},
{
horizontal = 1;
place = (172, -20);
target = down;
type = TopGhost;
},
{
place = (1436, 60);
place = (1436, 60);
type = Stem;
},
{
place = (1797, 60);
place = (1797, 60);
type = Stem;
}
);
layerId = "4BD00FE4-3084-423F-A840-AB4EC9D41C86";
shapes = (
{
closed = 1;
nodes = (
(160,0,l),
(160,228,ls),
(160,321,o),
(195,413,o),
(295,413,cs),
(360,413,o),
(411,375,o),
(411,314,cs),
(411,0,l),
(521,0,l),
(521,314,ls),
(521,435,o),
(422,523,o),
(302,523,cs),
(253,523,o),
(202,508,o),
(160,480,c),
(160,518,l),
(50,518,l),
(50,0,l)
);
}
);
width = 561;
},
{
hints = (
{
horizontal = 1;
place = (-346, 21);
target = up;
type = BottomGhost;
},
{
horizontal = 1;
place = (172, -20);
target = down;
type = TopGhost;
},
{
place = (1466, 60);
place = (1466, 60);
type = Stem;
},
{
place = (1827, 60);
place = (1827, 60);
type = Stem;
}
);
layerId = "88F21F75-214F-41EE-AE9C-B4AA79D6697C";
shapes = (
{
closed = 1;
nodes = (
(210,0,l),
(210,197,ls),
(210,313,o),
(232,363,o),
(312,363,cs),
(394,363,o),
(411,312,o),
(411,196,cs),
(411,0,l),
(571,0,l),
(571,289,ls),
(571,424,o),
(460,523,o),
(328,523,cs),
(288,523,o),
(247,514,o),
(210,497,c),
(210,518,l),
(50,518,l),
(50,0,l)
);
}
);
width = 611;
}
);
note = n;
unicode = 110;
},
{
glyphname = o;
lastChange = "2021-06-21 21:48:47 +0000";
layers = (
{
hints = (
{
horizontal = 1;
origin = (0,11);
target = (1,11);
type = Stem;
},
{
horizontal = 1;
origin = (0,5);
target = (1,5);
type = Stem;
},
{
origin = (0,8);
target = (1,2);
type = Stem;
},
{
origin = (1,8);
target = (0,2);
type = Stem;
}
);
layerId = m01;
shapes = (
{
closed = 1;
nodes = (
(388,-5,o),
(475,128,o),
(475,258,cs),
(475,388,o),
(386,523,o),
(247,523,cs),
(108,523,o),
(20,388,o),
(20,257,cs),
(20,126,o),
(109,-5,o),
(248,-5,cs)
);
},
{
closed = 1;
nodes = (
(155,55,o),
(80,146,o),
(80,258,cs),
(80,371,o),
(155,463,o),
(248,463,cs),
(340,463,o),
(415,371,o),
(415,258,cs),
(415,146,o),
(340,55,o),
(248,55,cs)
);
}
);
width = 495;
},
{
hints = (
{
horizontal = 1;
place = (-346, 21);
target = up;
type = BottomGhost;
},
{
horizontal = 1;
place = (172, -20);
target = down;
type = TopGhost;
},
{
place = (983, 60);
place = (983, 60);
type = Stem;
},
{
place = (1378, 60);
place = (1378, 60);
type = Stem;
}
);
layerId = "0A901A10-6B10-40AA-AC10-6ECA400C9626";
shapes = (
{
closed = 1;
nodes = (
(383,-6,o),
(468,129,o),
(468,256,cs),
(468,385,o),
(381,522,o),
(243,522,cs),
(105,522,o),
(20,385,o),
(20,256,cs),
(20,126,o),
(107,-6,o),
(244,-6,cs)
);
},
{
closed = 1;
nodes = (
(136,22,o),
(48,127,o),
(48,257,cs),
(48,387,o),
(136,494,o),
(244,494,cs),
(352,494,o),
(440,387,o),
(440,257,cs),
(440,127,o),
(352,22,o),
(244,22,cs)
);
}
);
width = 487;
},
{
hints = (
{
horizontal = 1;
place = (-346, 21);
target = up;
type = BottomGhost;
},
{
horizontal = 1;
place = (172, -20);
target = down;
type = TopGhost;
},
{
place = (1383, 60);
place = (1383, 60);
type = Stem;
},
{
place = (1778, 60);
place = (1778, 60);
type = Stem;
}
);
layerId = "75DB7DBE-742D-4351-BF75-A4D495193B35";
shapes = (
{
closed = 1;
nodes = (
(399,-5,o),
(488,133,o),
(488,264,cs),
(488,397,o),
(396,535,o),
(253,535,cs),
(111,535,o),
(20,397,o),
(20,264,cs),
(20,132,o),
(110,-5,o),
(254,-5,cs)
);
},
{
closed = 1;
nodes = (
(184,88,o),
(102,153,o),
(102,264,cs),
(102,375,o),
(183,442,o),
(254,442,cs),
(325,442,o),
(406,375,o),
(406,264,cs),
(406,153,o),
(324,88,o),
(254,88,cs)
);
}
);
width = 508;
},
{
hints = (
{
horizontal = 1;
place = (-346, 21);
target = up;
type = BottomGhost;
},
{
horizontal = 1;
place = (172, -20);
target = down;
type = TopGhost;
},
{
place = (1396, 60);
place = (1396, 60);
type = Stem;
},
{
place = (1791, 60);
place = (1791, 60);
type = Stem;
}
);
layerId = "4BD00FE4-3084-423F-A840-AB4EC9D41C86";
shapes = (
{
closed = 1;
nodes = (
(417,-5,o),
(525,117,o),
(525,258,cs),
(525,400,o),
(416,523,o),
(272,523,cs),
(128,523,o),
(20,400,o),
(20,258,cs),
(20,117,o),
(128,-5,o),
(273,-5,cs)
);
},
{
closed = 1;
nodes = (
(130,343,o),
(194,413,o),
(273,413,cs),
(351,413,o),
(415,343,o),
(415,258,cs),
(415,172,o),
(352,105,o),
(273,105,cs),
(193,105,o),
(130,172,o),
(130,258,cs)
);
}
);
width = 544;
},
{
hints = (
{
horizontal = 1;
place = (-346, 21);
target = up;
type = BottomGhost;
},
{
horizontal = 1;
place = (172, -20);
target = down;
type = TopGhost;
},
{
place = (1398, 60);
place = (1398, 60);
type = Stem;
},
{
place = (1793, 60);
place = (1793, 60);
type = Stem;
}
);
layerId = "88F21F75-214F-41EE-AE9C-B4AA79D6697C";
shapes = (
{
closed = 1;
nodes = (
(418,-5,o),
(528,116,o),
(528,258,cs),
(528,400,o),
(417,523,o),
(274,523,cs),
(130,523,o),
(20,400,o),
(20,258,cs),
(20,115,o),
(131,-5,o),
(274,-5,cs)
);
},
{
closed = 1;
nodes = (
(180,316,o),
(222,363,o),
(274,363,cs),
(326,363,o),
(368,316,o),
(368,258,cs),
(368,200,o),
(327,155,o),
(274,155,cs),
(221,155,o),
(180,200,o),
(180,258,cs)
);
}
);
width = 547;
}
);
note = o;
unicode = 111;
},
{
glyphname = p;
lastChange = "2021-06-21 21:48:47 +0000";
layers = (
{
hints = (
{
horizontal = 1;
origin = (0,4);
target = (1,11);
type = Stem;
},
{
horizontal = 1;
origin = (0,10);
target = (1,5);
type = Stem;
},
{
horizontal = 1;
origin = (0,15);
target = down;
type = TopGhost;
},
{
origin = (0,16);
target = (0,0);
type = Stem;
},
{
origin = (1,8);
target = (0,7);
type = Stem;
}
);
layerId = m01;
shapes = (
{
closed = 1;
nodes = (
(110,-165,l),
(110,81,l),
(156,25,o),
(215,-5,o),
(279,-5,cs),
(403,-5,o),
(505,115,o),
(505,260,cs),
(505,406,o),
(404,523,o),
(279,523,cs),
(214,523,o),
(153,493,o),
(110,439,c),
(110,518,l),
(50,518,l),
(50,-165,l)
);
},
{
closed = 1;
nodes = (
(185,55,o),
(110,147,o),
(110,260,cs),
(110,372,o),
(185,463,o),
(278,463,cs),
(370,463,o),
(445,372,o),
(445,260,cs),
(445,147,o),
(370,55,o),
(278,55,cs)
);
}
);
width = 525;
},
{
hints = (
{
horizontal = 1;
place = (-428, 21);
target = up;
type = BottomGhost;
},
{
horizontal = 1;
place = (255, -20);
target = down;
type = TopGhost;
},
{
place = (1418, 60);
place = (1418, 60);
type = Stem;
},
{
place = (1813, 60);
place = (1813, 60);
type = Stem;
}
);
layerId = "0A901A10-6B10-40AA-AC10-6ECA400C9626";
shapes = (
{
closed = 1;
nodes = (
(78,-165,l),
(78,130,l),
(113,54,o),
(183,-5,o),
(270,-5,cs),
(405,-5,o),
(488,134,o),
(488,260,cs),
(488,386,o),
(407,523,o),
(271,523,cs),
(183,523,o),
(114,466,o),
(78,390,c),
(78,518,l),
(50,518,l),
(50,-165,l)
);
},
{
closed = 1;
nodes = (
(164,23,o),
(78,130,o),
(78,260,cs),
(78,390,o),
(164,495,o),
(269,495,cs),
(374,495,o),
(460,390,o),
(460,260,cs),
(460,130,o),
(374,23,o),
(269,23,cs)
);
}
);
width = 508;
},
{
hints = (
{
horizontal = 1;
place = (-428, 21);
target = up;
type = BottomGhost;
},
{
horizontal = 1;
place = (255, -20);
target = down;
type = TopGhost;
},
{
place = (1428, 60);
place = (1428, 60);
type = Stem;
},
{
place = (1823, 60);
place = (1823, 60);
type = Stem;
}
);
layerId = "75DB7DBE-742D-4351-BF75-A4D495193B35";
shapes = (
{
closed = 1;
nodes = (
(132,-157,l),
(132,59,l),
(177,15,o),
(235,-5,o),
(288,-5,cs),
(431,-5,o),
(518,138,o),
(518,266,cs),
(518,396,o),
(431,535,o),
(287,535,cs),
(233,535,o),
(178,516,o),
(132,471,c),
(132,530,l),
(50,530,l),
(50,-157,l)
);
},
{
closed = 1;
nodes = (
(213,88,o),
(132,155,o),
(132,266,cs),
(132,377,o),
(214,442,o),
(284,442,cs),
(354,442,o),
(436,377,o),
(436,266,cs),
(436,155,o),
(355,88,o),
(284,88,cs)
);
}
);
width = 538;
},
{
hints = (
{
horizontal = 1;
place = (-428, 21);
target = up;
type = BottomGhost;
},
{
horizontal = 1;
place = (255, -20);
target = down;
type = TopGhost;
},
{
place = (1456, 60);
place = (1456, 60);
type = Stem;
},
{
place = (1851, 60);
place = (1851, 60);
type = Stem;
}
);
layerId = "4BD00FE4-3084-423F-A840-AB4EC9D41C86";
shapes = (
{
closed = 1;
nodes = (
(160,-166,l),
(160,40,l),
(201,11,o),
(252,-6,o),
(304,-6,cs),
(446,-6,o),
(555,117,o),
(555,259,cs),
(555,400,o),
(447,522,o),
(303,522,cs),
(251,522,o),
(202,506,o),
(160,477,c),
(160,517,l),
(50,517,l),
(50,-166,l)
);
},
{
closed = 1;
nodes = (
(160,345,o),
(223,412,o),
(303,412,cs),
(382,412,o),
(445,345,o),
(445,259,cs),
(445,174,o),
(381,104,o),
(303,104,cs),
(224,104,o),
(160,174,o),
(160,259,cs)
);
}
);
width = 575;
},
{
hints = (
{
horizontal = 1;
place = (-428, 21);
target = up;
type = BottomGhost;
},
{
horizontal = 1;
place = (255, -20);
target = down;
type = TopGhost;
},
{
place = (1465, 60);
place = (1465, 60);
type = Stem;
},
{
place = (1860, 60);
place = (1860, 60);
type = Stem;
}
);
layerId = "88F21F75-214F-41EE-AE9C-B4AA79D6697C";
shapes = (
{
closed = 1;
nodes = (
(210,-164,l),
(210,15,l),
(240,2,o),
(271,-4,o),
(304,-4,cs),
(447,-4,o),
(558,119,o),
(558,261,cs),
(558,404,o),
(447,524,o),
(304,524,cs),
(271,524,o),
(240,518,o),
(210,506,c),
(210,519,l),
(50,519,l),
(50,-164,l)
);
},
{
closed = 1;
nodes = (
(210,319,o),
(251,364,o),
(304,364,cs),
(357,364,o),
(398,319,o),
(398,261,cs),
(398,203,o),
(356,156,o),
(304,156,cs),
(252,156,o),
(210,203,o),
(210,261,cs)
);
}
);
width = 578;
}
);
note = p;
unicode = 112;
},
{
glyphname = q;
lastChange = "2021-06-21 21:48:47 +0000";
layers = (
{
hints = (
{
horizontal = 1;
origin = (0,12);
target = (1,11);
type = Stem;
},
{
horizontal = 1;
origin = (0,6);
target = (1,5);
type = Stem;
},
{
horizontal = 1;
origin = (0,2);
target = down;
type = TopGhost;
},
{
origin = (0,9);
target = (1,2);
type = Stem;
},
{
origin = (0,16);
target = (0,0);
type = Stem;
}
);
layerId = m01;
shapes = (
{
closed = 1;
nodes = (
(490,-165,l),
(490,518,l),
(430,518,l),
(430,439,l),
(387,493,o),
(326,523,o),
(261,523,cs),
(136,523,o),
(35,406,o),
(35,260,cs),
(35,115,o),
(137,-5,o),
(261,-5,cs),
(325,-5,o),
(384,25,o),
(430,81,c),
(430,-165,l)
);
},
{
closed = 1;
nodes = (
(170,55,o),
(95,147,o),
(95,260,cs),
(95,372,o),
(170,463,o),
(263,463,cs),
(355,463,o),
(430,372,o),
(430,260,cs),
(430,147,o),
(355,55,o),
(263,55,cs)
);
}
);
width = 525;
},
{
hints = (
{
horizontal = 1;
place = (-165, 21);
target = up;
type = BottomGhost;
},
{
horizontal = 1;
place = (0, 60);
place = (0, 60);
type = Stem;
},
{
horizontal = 1;
place = (458, 60);
place = (458, 60);
type = Stem;
},
{
place = (22, 60);
place = (22, 60);
type = Stem;
},
{
place = (417, 60);
place = (417, 60);
type = Stem;
}
);
layerId = "0A901A10-6B10-40AA-AC10-6ECA400C9626";
shapes = (
{
closed = 1;
nodes = (
(473,-165,l),
(473,518,l),
(445,518,l),
(445,390,l),
(409,466,o),
(339,523,o),
(252,523,cs),
(116,523,o),
(35,386,o),
(35,260,cs),
(35,134,o),
(118,-5,o),
(253,-5,cs),
(340,-5,o),
(409,54,o),
(445,130,c),
(445,-165,l)
);
},
{
closed = 1;
nodes = (
(149,23,o),
(63,130,o),
(63,260,cs),
(63,390,o),
(149,495,o),
(254,495,cs),
(359,495,o),
(445,390,o),
(445,260,cs),
(445,130,o),
(359,23,o),
(254,23,cs)
);
}
);
width = 507;
},
{
hints = (
{
horizontal = 1;
place = (-165, 21);
target = up;
type = BottomGhost;
},
{
horizontal = 1;
place = (0, 60);
place = (0, 60);
type = Stem;
},
{
horizontal = 1;
place = (458, 60);
place = (458, 60);
type = Stem;
},
{
place = (32, 60);
place = (32, 60);
type = Stem;
},
{
place = (427, 60);
place = (427, 60);
type = Stem;
}
);
layerId = "75DB7DBE-742D-4351-BF75-A4D495193B35";
shapes = (
{
closed = 1;
nodes = (
(503,-157,l),
(503,530,l),
(421,530,l),
(421,471,l),
(375,516,o),
(320,535,o),
(266,535,cs),
(122,535,o),
(35,396,o),
(35,266,cs),
(35,138,o),
(122,-5,o),
(265,-5,cs),
(318,-5,o),
(376,15,o),
(421,59,c),
(421,-157,l)
);
},
{
closed = 1;
nodes = (
(198,88,o),
(117,155,o),
(117,266,cs),
(117,377,o),
(199,442,o),
(269,442,cs),
(339,442,o),
(421,377,o),
(421,266,cs),
(421,155,o),
(340,88,o),
(269,88,cs)
);
}
);
width = 538;
},
{
hints = (
{
horizontal = 1;
place = (-165, 21);
target = up;
type = BottomGhost;
},
{
horizontal = 1;
place = (0, 60);
place = (0, 60);
type = Stem;
},
{
horizontal = 1;
place = (458, 60);
place = (458, 60);
type = Stem;
},
{
place = (45, 60);
place = (45, 60);
type = Stem;
},
{
place = (440, 60);
place = (440, 60);
type = Stem;
}
);
layerId = "4BD00FE4-3084-423F-A840-AB4EC9D41C86";
shapes = (
{
closed = 1;
nodes = (
(540,-165,l),
(540,518,l),
(430,518,l),
(430,478,l),
(388,507,o),
(339,523,o),
(288,523,cs),
(143,523,o),
(35,401,o),
(35,260,cs),
(35,120,o),
(143,-5,o),
(286,-5,cs),
(338,-5,o),
(389,12,o),
(430,41,c),
(430,-165,l)
);
},
{
closed = 1;
nodes = (
(145,346,o),
(208,413,o),
(288,413,cs),
(367,413,o),
(430,346,o),
(430,260,cs),
(430,175,o),
(366,105,o),
(288,105,cs),
(209,105,o),
(145,175,o),
(145,260,cs)
);
}
);
width = 574;
},
{
hints = (
{
horizontal = 1;
place = (-165, 21);
target = up;
type = BottomGhost;
},
{
horizontal = 1;
place = (0, 60);
place = (0, 60);
type = Stem;
},
{
horizontal = 1;
place = (458, 60);
place = (458, 60);
type = Stem;
},
{
place = (38, 60);
place = (38, 60);
type = Stem;
},
{
place = (433, 60);
place = (433, 60);
type = Stem;
}
);
layerId = "88F21F75-214F-41EE-AE9C-B4AA79D6697C";
shapes = (
{
closed = 1;
nodes = (
(543,-164,l),
(543,519,l),
(383,519,l),
(383,506,l),
(353,518,o),
(321,524,o),
(289,524,cs),
(146,524,o),
(35,404,o),
(35,261,cs),
(35,119,o),
(145,-4,o),
(289,-4,cs),
(321,-4,o),
(353,2,o),
(383,15,c),
(383,-164,l)
);
},
{
closed = 1;
nodes = (
(195,319,o),
(236,364,o),
(289,364,cs),
(342,364,o),
(383,319,o),
(383,261,cs),
(383,203,o),
(341,156,o),
(289,156,cs),
(237,156,o),
(195,203,o),
(195,261,cs)
);
}
);
width = 577;
}
);
note = q;
unicode = 113;
},
{
glyphname = r;
lastChange = "2021-06-21 21:48:47 +0000";
layers = (
{
hints = (
{
horizontal = 1;
origin = (0,11);
target = up;
type = BottomGhost;
},
{
horizontal = 1;
origin = (0,10);
target = (0,4);
type = Stem;
},
{
origin = (0,11);
target = (0,0);
type = Stem;
}
);
layerId = m01;
shapes = (
{
closed = 1;
nodes = (
(110,0,l),
(110,251,ls),
(110,384,o),
(177,458,o),
(288,458,c),
(288,518,l),
(216,518,o),
(152,490,o),
(110,441,c),
(110,518,l),
(50,518,l),
(50,0,l)
);
}
);
width = 298;
},
{
associatedMasterId = m01;
hints = (
{
horizontal = 1;
origin = (0,11);
target = up;
type = BottomGhost;
},
{
horizontal = 1;
origin = (0,10);
target = (0,4);
type = Stem;
},
{
origin = (0,11);
target = (0,0);
type = Stem;
}
);
layerId = "FBF64348-F157-46DB-B992-56C2CBC67979";
name = "21 Jun 21, 17:46";
shapes = (
{
closed = 1;
nodes = (
(110,0,l),
(110,244,ls),
(110,430,o),
(221,458,o),
(288,458,c),
(288,518,l),
(220,518,o),
(154,493,o),
(110,441,c),
(110,518,l),
(50,518,l),
(50,0,l)
);
}
);
visible = 1;
width = 298;
},
{
hints = (
{
horizontal = 1;
place = (-20, 21);
target = up;
type = BottomGhost;
},
{
horizontal = 1;
place = (438, 60);
place = (438, 60);
type = Stem;
},
{
place = (360, 60);
place = (360, 60);
type = Stem;
}
);
layerId = "0A901A10-6B10-40AA-AC10-6ECA400C9626";
shapes = (
{
closed = 1;
nodes = (
(78,0,l),
(78,260,ls),
(78,468,o),
(213,490,o),
(272,490,c),
(272,518,l),
(187,518,o),
(115,479,o),
(78,402,c),
(78,518,l),
(50,518,l),
(50,0,l)
);
}
);
width = 282;
},
{
hints = (
{
horizontal = 1;
place = (-20, 21);
target = up;
type = BottomGhost;
},
{
horizontal = 1;
place = (438, 60);
place = (438, 60);
type = Stem;
},
{
place = (362, 238);
place = (362, 238);
type = Stem;
}
);
layerId = "75DB7DBE-742D-4351-BF75-A4D495193B35";
shapes = (
{
closed = 1;
nodes = (
(132,0,l),
(132,251,ls),
(132,391,o),
(207,437,o),
(306,437,c),
(306,530,l),
(242,530,o),
(180,515,o),
(132,472,c),
(132,530,l),
(50,530,l),
(50,0,l)
);
}
);
width = 316;
},
{
hints = (
{
horizontal = 1;
place = (-20, 21);
target = up;
type = BottomGhost;
},
{
horizontal = 1;
place = (438, 60);
place = (438, 60);
type = Stem;
},
{
place = (383, 238);
place = (383, 238);
type = Stem;
}
);
layerId = "4BD00FE4-3084-423F-A840-AB4EC9D41C86";
shapes = (
{
closed = 1;
nodes = (
(160,0,l),
(160,224,ls),
(160,327,o),
(198,413,o),
(313,413,c),
(313,523,l),
(259,523,o),
(204,509,o),
(160,478,c),
(160,518,l),
(50,518,l),
(50,0,l)
);
}
);
width = 323;
},
{
hints = (
{
horizontal = 1;
place = (-20, 21);
target = up;
type = BottomGhost;
},
{
horizontal = 1;
place = (438, 60);
place = (438, 60);
type = Stem;
},
{
place = (415, 60);
place = (415, 60);
type = Stem;
}
);
layerId = "88F21F75-214F-41EE-AE9C-B4AA79D6697C";
shapes = (
{
closed = 1;
nodes = (
(210,0,l),
(210,196,ls),
(210,284,o),
(238,360,o),
(338,360,c),
(338,520,l),
(294,520,o),
(250,511,o),
(210,493,c),
(210,518,l),
(50,518,l),
(50,0,l)
);
}
);
width = 348;
}
);
note = r;
unicode = 114;
},
{
glyphname = s;
lastChange = "2021-06-22 18:32:09 +0000";
layers = (
{
hints = (
{
horizontal = 1;
origin = (0,37);
target = (0,30);
type = Stem;
},
{
horizontal = 1;
origin = (0,11);
target = (0,18);
type = Stem;
},
{
origin = (0,34);
target = (0,33);
type = Stem;
},
{
origin = (0,27);
target = (0,2);
type = Stem;
},
{
origin = (0,21);
target = (0,8);
type = Stem;
},
{
origin = (0,14);
target = (0,15);
type = Stem;
}
);
layerId = m01;
shapes = (
{
closed = 1;
nodes = (
(320,-4,o),
(408,49,o),
(408,151,cs),
(408,255,o),
(316,280,o),
(229,302,cs),
(140,325,o),
(97,342,o),
(97,387,cs),
(97,435,o),
(143,464,o),
(209,464,cs),
(255,464,o),
(334,450,o),
(334,353,c),
(394,353,l),
(394,466,o),
(314,524,o),
(212,524,cs),
(126,524,o),
(37,483,o),
(37,390,cs),
(37,290,o),
(136,264,o),
(214,244,cs),
(305,221,o),
(348,204,o),
(348,149,cs),
(348,81,o),
(282,56,o),
(223,56,cs),
(154,56,o),
(80,93,o),
(80,169,c),
(20,169,l),
(20,57,o),
(121,-4,o),
(224,-4,cs)
);
}
);
width = 428;
},
{
hints = (
{
horizontal = 1;
place = (-20, 60);
place = (-20, 60);
type = Stem;
},
{
horizontal = 1;
place = (356, 60);
place = (356, 60);
type = Stem;
},
{
place = (207, 60);
place = (207, 60);
type = Stem;
},
{
place = (535, 60);
place = (535, 60);
type = Stem;
}
);
layerId = "0A901A10-6B10-40AA-AC10-6ECA400C9626";
shapes = (
{
closed = 1;
nodes = (
(309,-6,o),
(396,41,o),
(396,141,cs),
(396,242,o),
(305,265,o),
(217,287,cs),
(140,306,o),
(67,325,o),
(67,396,cs),
(67,455,o),
(122,494,o),
(202,494,cs),
(247,494,o),
(354,481,o),
(354,357,c),
(382,357,l),
(382,467,o),
(305,522,o),
(206,522,cs),
(126,522,o),
(39,486,o),
(39,395,cs),
(39,304,o),
(125,282,o),
(209,261,cs),
(293,240,o),
(368,221,o),
(368,138,cs),
(368,53,o),
(288,22,o),
(218,22,cs),
(129,22,o),
(48,72,o),
(48,163,c),
(20,163,l),
(26,51,o),
(110,-6,o),
(214,-6,cs)
);
}
);
width = 415;
},
{
hints = (
{
horizontal = 1;
place = (-20, 60);
place = (-20, 60);
type = Stem;
},
{
horizontal = 1;
place = (356, 60);
place = (356, 60);
type = Stem;
},
{
place = (248, 60);
place = (248, 60);
type = Stem;
},
{
place = (558, 60);
place = (558, 60);
type = Stem;
},
{
place = (230, 60);
place = (230, 60);
type = Stem;
}
);
layerId = "75DB7DBE-742D-4351-BF75-A4D495193B35";
shapes = (
{
closed = 1;
nodes = (
(344,-4,o),
(423,61,o),
(423,154,cs),
(423,232,o),
(380,275,o),
(242,313,cs),
(157,336,o),
(129,355,o),
(129,387,cs),
(129,421,o),
(165,443,o),
(221,443,cs),
(287,443,o),
(327,410,o),
(327,355,c),
(409,355,l),
(409,469,o),
(330,536,o),
(214,536,cs),
(109,536,o),
(37,476,o),
(37,387,cs),
(37,312,o),
(81,271,o),
(214,235,cs),
(302,211,o),
(331,192,o),
(331,158,cs),
(331,117,o),
(290,89,o),
(230,89,cs),
(158,89,o),
(102,129,o),
(102,180,c),
(20,180,l),
(20,73,o),
(108,-4,o),
(231,-4,cs)
);
}
);
width = 443;
},
{
associatedMasterId = "75DB7DBE-742D-4351-BF75-A4D495193B35";
hints = (
{
horizontal = 1;
place = (-20, 60);
place = (-20, 60);
type = Stem;
},
{
horizontal = 1;
place = (356, 60);
place = (356, 60);
type = Stem;
},
{
place = (248, 60);
place = (248, 60);
type = Stem;
},
{
place = (558, 60);
place = (558, 60);
type = Stem;
},
{
place = (230, 60);
place = (230, 60);
type = Stem;
}
);
layerId = "8F256991-0091-48BC-AC08-26AEFCD4C4E5";
name = "21 Jun 21, 18:23";
shapes = (
{
closed = 1;
nodes = (
(330,-4,o),
(423,50,o),
(423,154,cs),
(423,260,o),
(326,289,o),
(242,313,cs),
(181,330,o),
(129,346,o),
(129,387,cs),
(129,421,o),
(165,443,o),
(221,443,cs),
(278,443,o),
(327,418,o),
(327,355,c),
(409,355,l),
(409,507,o),
(283,536,o),
(214,536,cs),
(127,536,o),
(37,491,o),
(37,387,cs),
(37,285,o),
(132,258,o),
(214,235,cs),
(276,218,o),
(331,202,o),
(331,158,cs),
(331,106,o),
(273,89,o),
(230,89,cs),
(176,89,o),
(102,116,o),
(102,180,c),
(20,180,l),
(20,63,o),
(120,-4,o),
(231,-4,cs)
);
}
);
width = 443;
},
{
hints = (
{
horizontal = 1;
place = (-20, 60);
place = (-20, 60);
type = Stem;
},
{
horizontal = 1;
place = (356, 60);
place = (356, 60);
type = Stem;
},
{
place = (259, 43);
place = (259, 43);
type = Stem;
},
{
place = (556, 60);
place = (556, 60);
type = Stem;
}
);
layerId = "4BD00FE4-3084-423F-A840-AB4EC9D41C86";
shapes = (
{
closed = 1;
nodes = (
(371,-5,o),
(458,64,o),
(458,162,cs),
(458,248,o),
(393,295,o),
(258,327,cs),
(167,349,o),
(147,358,o),
(147,377,cs),
(147,397,o),
(188,413,o),
(237,413,cs),
(300,413,o),
(334,388,o),
(334,342,c),
(444,342,l),
(444,451,o),
(362,523,o),
(238,523,cs),
(120,523,o),
(37,461,o),
(37,373,cs),
(37,287,o),
(94,248,o),
(240,217,cs),
(322,200,o),
(348,187,o),
(348,162,cs),
(348,128,o),
(308,105,o),
(250,105,cs),
(181,105,o),
(130,139,o),
(130,185,c),
(20,185,l),
(20,79,o),
(122,-5,o),
(249,-5,cs)
);
}
);
width = 477;
},
{
hints = (
{
horizontal = 1;
place = (-20, 60);
place = (-20, 60);
type = Stem;
},
{
horizontal = 1;
place = (356, 60);
place = (356, 60);
type = Stem;
},
{
place = (263, 60);
place = (263, 60);
type = Stem;
},
{
place = (574, 60);
place = (574, 60);
type = Stem;
},
{
place = (246, 60);
place = (246, 60);
type = Stem;
}
);
layerId = "88F21F75-214F-41EE-AE9C-B4AA79D6697C";
shapes = (
{
closed = 1;
nodes = (
(379,-5,o),
(469,69,o),
(469,175,cs),
(469,240,o),
(422,280,o),
(310,305,cs),
(220,325,o),
(202,333,o),
(202,350,cs),
(202,364,o),
(224,377,o),
(247,377,cs),
(279,377,o),
(297,364,o),
(297,341,c),
(457,341,l),
(457,447,o),
(365,523,o),
(239,523,cs),
(118,523,o),
(35,454,o),
(35,354,cs),
(35,286,o),
(81,249,o),
(202,219,cs),
(288,198,o),
(306,189,o),
(306,171,cs),
(306,156,o),
(282,144,o),
(251,144,cs),
(214,144,o),
(180,167,o),
(180,192,c),
(20,192,l),
(20,80,o),
(120,-5,o),
(251,-5,cs)
);
}
);
width = 488;
},
{
associatedMasterId = "88F21F75-214F-41EE-AE9C-B4AA79D6697C";
hints = (
{
horizontal = 1;
place = (-20, 60);
place = (-20, 60);
type = Stem;
},
{
horizontal = 1;
place = (356, 60);
place = (356, 60);
type = Stem;
},
{
place = (263, 60);
place = (263, 60);
type = Stem;
},
{
place = (574, 60);
place = (574, 60);
type = Stem;
},
{
place = (246, 60);
place = (246, 60);
type = Stem;
}
);
layerId = "F9EB1860-1828-4B4C-BEC4-4FF858DEA812";
name = "22 Jun 21, 15:28";
shapes = (
{
closed = 1;
nodes = (
(362,-5,o),
(469,55,o),
(469,175,cs),
(469,326,o),
(202,293,o),
(202,350,cs),
(202,366,o),
(228,377,o),
(247,377,cs),
(275,377,o),
(297,367,o),
(297,341,c),
(457,341,l),
(457,461,o),
(348,523,o),
(239,523,cs),
(138,523,o),
(35,470,o),
(35,354,cs),
(35,202,o),
(306,230,o),
(306,171,cs),
(306,152,o),
(275,144,o),
(251,144,cs),
(222,144,o),
(180,162,o),
(180,192,c),
(20,192,l),
(19,147,o),
(35,103,o),
(66,69,cs),
(109,22,o),
(177,-5,o),
(251,-5,cs)
);
}
);
width = 488;
},
{
associatedMasterId = "4BD00FE4-3084-423F-A840-AB4EC9D41C86";
hints = (
{
horizontal = 1;
place = (-20, 60);
place = (-20, 60);
type = Stem;
},
{
horizontal = 1;
place = (356, 60);
place = (356, 60);
type = Stem;
},
{
place = (259, 43);
place = (259, 43);
type = Stem;
},
{
place = (556, 60);
place = (556, 60);
type = Stem;
}
);
layerId = "B355D146-D19A-4991-AE8A-4DDA84E000C5";
name = "22 Jun 21, 15:30";
shapes = (
{
closed = 1;
nodes = (
(350,-5,o),
(458,47,o),
(458,162,cs),
(458,347,o),
(147,315,o),
(147,377,cs),
(147,394,o),
(182,413,o),
(237,413,cs),
(283,413,o),
(334,400,o),
(334,342,c),
(444,342,l),
(444,466,o),
(345,523,o),
(238,523,cs),
(145,523,o),
(37,480,o),
(37,373,cs),
(37,186,o),
(348,243,o),
(348,162,cs),
(348,115,o),
(285,105,o),
(250,105,cs),
(204,105,o),
(130,123,o),
(130,185,c),
(20,185,l),
(20,80,o),
(121,-5,o),
(249,-5,cs)
);
}
);
visible = 1;
width = 477;
}
);
note = s;
unicode = 115;
},
{
glyphname = t;
lastChange = "2021-06-21 21:48:47 +0000";
layers = (
{
hints = (
{
horizontal = 1;
origin = (0,19);
target = (0,2);
type = Stem;
},
{
horizontal = 1;
origin = (0,13);
target = (0,14);
type = Stem;
},
{
origin = (0,16);
target = (0,5);
type = Stem;
}
);
layerId = m01;
shapes = (
{
closed = 1;
nodes = (
(250,0,l),
(250,60,l),
(226,60,ls),
(188,60,o),
(158,90,o),
(158,128,cs),
(158,458,l),
(245,458,l),
(245,518,l),
(158,518,l),
(158,683,l),
(98,683,l),
(98,518,l),
(15,518,l),
(15,458,l),
(98,458,l),
(98,128,ls),
(98,57,o),
(155,0,o),
(226,0,cs)
);
}
);
width = 270;
},
{
hints = (
{
horizontal = 1;
place = (-103, 21);
target = up;
type = BottomGhost;
},
{
horizontal = 1;
place = (355, 60);
place = (355, 60);
type = Stem;
},
{
horizontal = 1;
place = (580, -20);
target = down;
type = TopGhost;
},
{
place = (382, 152);
place = (382, 152);
type = Stem;
}
);
layerId = "0A901A10-6B10-40AA-AC10-6ECA400C9626";
shapes = (
{
closed = 1;
nodes = (
(250,0,l),
(250,28,l),
(226,28,ls),
(180,28,o),
(142,66,o),
(142,112,cs),
(142,490,l),
(245,490,l),
(245,518,l),
(142,518,l),
(142,683,l),
(114,683,l),
(114,518,l),
(15,518,l),
(15,490,l),
(114,490,l),
(114,112,ls),
(114,50,o),
(164,0,o),
(226,0,cs)
);
}
);
width = 269;
},
{
hints = (
{
horizontal = 1;
place = (-103, 21);
target = up;
type = BottomGhost;
},
{
horizontal = 1;
place = (355, 60);
place = (355, 60);
type = Stem;
},
{
horizontal = 1;
place = (580, -20);
target = down;
type = TopGhost;
},
{
place = (399, 60);
place = (399, 60);
type = Stem;
}
);
layerId = "75DB7DBE-742D-4351-BF75-A4D495193B35";
shapes = (
{
closed = 1;
nodes = (
(269,0,l),
(269,83,l),
(253,83,ls),
(214,83,o),
(178,103,o),
(178,165,cs),
(178,437,l),
(263,437,l),
(263,530,l),
(178,530,l),
(178,688,l),
(96,688,l),
(96,530,l),
(15,530,l),
(15,437,l),
(96,437,l),
(96,140,ls),
(96,34,o),
(189,0,o),
(233,0,cs)
);
}
);
width = 289;
},
{
hints = (
{
horizontal = 1;
place = (-103, 21);
target = up;
type = BottomGhost;
},
{
horizontal = 1;
place = (355, 60);
place = (355, 60);
type = Stem;
},
{
horizontal = 1;
place = (580, -20);
target = down;
type = TopGhost;
},
{
place = (384, 60);
place = (384, 60);
type = Stem;
}
);
layerId = "4BD00FE4-3084-423F-A840-AB4EC9D41C86";
shapes = (
{
closed = 1;
nodes = (
(250,-5,l),
(250,105,l),
(226,105,ls),
(202,105,o),
(183,124,o),
(183,148,cs),
(183,408,l),
(245,408,l),
(245,518,l),
(183,518,l),
(183,684,l),
(73,684,l),
(73,518,l),
(15,518,l),
(15,408,l),
(73,408,l),
(73,148,ls),
(73,64,o),
(142,-5,o),
(226,-5,cs)
);
}
);
width = 269;
},
{
hints = (
{
horizontal = 1;
place = (-103, 21);
target = up;
type = BottomGhost;
},
{
horizontal = 1;
place = (355, 60);
place = (355, 60);
type = Stem;
},
{
horizontal = 1;
place = (580, -20);
target = down;
type = TopGhost;
},
{
place = (382, 152);
place = (382, 152);
type = Stem;
}
);
layerId = "88F21F75-214F-41EE-AE9C-B4AA79D6697C";
shapes = (
{
closed = 1;
nodes = (
(250,0,l),
(250,160,l),
(226,160,ls),
(216,160,o),
(208,168,o),
(208,178,cs),
(208,388,l),
(245,388,l),
(245,548,l),
(208,548,l),
(208,714,l),
(48,714,l),
(48,548,l),
(15,548,l),
(15,388,l),
(48,388,l),
(48,178,ls),
(48,80,o),
(128,0,o),
(226,0,cs)
);
}
);
width = 269;
}
);
note = t;
unicode = 116;
},
{
glyphname = u;
lastChange = "2021-06-21 21:48:47 +0000";
layers = (
{
hints = (
{
horizontal = 1;
origin = (0,19);
target = (0,10);
type = Stem;
},
{
horizontal = 1;
origin = (0,15);
target = down;
type = TopGhost;
},
{
horizontal = 1;
origin = (0,3);
target = up;
type = BottomGhost;
},
{
origin = (0,16);
target = (0,13);
type = Stem;
},
{
origin = (0,3);
target = (0,4);
type = Stem;
}
);
layerId = m01;
shapes = (
{
closed = 1;
nodes = (
(299,-5,o),
(362,23,o),
(401,69,c),
(401,0,l),
(461,0,l),
(461,518,l),
(401,518,l),
(401,259,ls),
(401,133,o),
(337,55,o),
(239,55,cs),
(159,55,o),
(100,108,o),
(100,179,cs),
(100,518,l),
(40,518,l),
(40,179,ls),
(40,75,o),
(124,-5,o),
(235,-5,cs)
);
}
);
width = 511;
},
{
associatedMasterId = m01;
hints = (
{
horizontal = 1;
origin = (0,19);
target = (0,10);
type = Stem;
},
{
horizontal = 1;
origin = (0,15);
target = down;
type = TopGhost;
},
{
horizontal = 1;
origin = (0,3);
target = up;
type = BottomGhost;
},
{
origin = (0,16);
target = (0,13);
type = Stem;
},
{
origin = (0,3);
target = (0,4);
type = Stem;
}
);
layerId = "1B6B4E40-D2E8-479A-AF7F-64344B251162";
name = "21 Jun 21, 17:46";
shapes = (
{
closed = 1;
nodes = (
(296,-5,o),
(360,21,o),
(401,69,c),
(401,0,l),
(461,0,l),
(461,518,l),
(401,518,l),
(401,265,ls),
(401,82,o),
(293,55,o),
(239,55,cs),
(175,55,o),
(100,94,o),
(100,179,cs),
(100,518,l),
(40,518,l),
(40,179,ls),
(40,71,o),
(128,-5,o),
(235,-5,cs)
);
}
);
visible = 1;
width = 511;
},
{
hints = (
{
horizontal = 1;
place = (-20, 60);
place = (-20, 60);
type = Stem;
},
{
horizontal = 1;
place = (498, -20);
target = down;
type = TopGhost;
},
{
place = (190, 60);
place = (190, 60);
type = Stem;
},
{
place = (551, 60);
place = (551, 60);
type = Stem;
}
);
layerId = "0A901A10-6B10-40AA-AC10-6ECA400C9626";
shapes = (
{
closed = 1;
nodes = (
(295,-5,o),
(366,35,o),
(401,106,c),
(401,0,l),
(429,0,l),
(429,518,l),
(401,518,l),
(401,247,ls),
(401,45,o),
(270,23,o),
(221,23,cs),
(153,23,o),
(68,66,o),
(68,162,cs),
(68,518,l),
(40,518,l),
(40,162,ls),
(40,61,o),
(124,-5,o),
(220,-5,cs)
);
}
);
width = 479;
},
{
hints = (
{
horizontal = 1;
place = (-20, 60);
place = (-20, 60);
type = Stem;
},
{
horizontal = 1;
place = (498, -20);
target = down;
type = TopGhost;
},
{
place = (226, 60);
place = (226, 60);
type = Stem;
},
{
place = (587, 60);
place = (587, 60);
type = Stem;
}
);
layerId = "75DB7DBE-742D-4351-BF75-A4D495193B35";
shapes = (
{
closed = 1;
nodes = (
(291,-5,o),
(348,11,o),
(393,51,c),
(393,0,l),
(475,0,l),
(475,530,l),
(393,530,l),
(393,271,ls),
(393,134,o),
(321,88,o),
(248,88,cs),
(189,88,o),
(122,105,o),
(122,271,cs),
(122,530,l),
(40,530,l),
(40,189,ls),
(40,37,o),
(178,-5,o),
(248,-5,cs)
);
}
);
width = 525;
},
{
hints = (
{
horizontal = 1;
place = (-20, 60);
place = (-20, 60);
type = Stem;
},
{
horizontal = 1;
place = (498, -20);
target = down;
type = TopGhost;
},
{
place = (234, 60);
place = (234, 60);
type = Stem;
},
{
place = (595, 60);
place = (595, 60);
type = Stem;
}
);
layerId = "4BD00FE4-3084-423F-A840-AB4EC9D41C86";
shapes = (
{
closed = 1;
nodes = (
(308,-5,o),
(359,10,o),
(401,38,c),
(401,1,l),
(511,1,l),
(511,519,l),
(401,519,l),
(401,290,ls),
(401,197,o),
(367,105,o),
(266,105,cs),
(201,105,o),
(150,143,o),
(150,204,cs),
(150,519,l),
(40,519,l),
(40,204,ls),
(40,82,o),
(140,-5,o),
(259,-5,cs)
);
}
);
width = 561;
},
{
hints = (
{
horizontal = 1;
place = (-20, 60);
place = (-20, 60);
type = Stem;
},
{
horizontal = 1;
place = (346, 21);
target = up;
type = BottomGhost;
},
{
horizontal = 1;
place = (498, -20);
target = down;
type = TopGhost;
},
{
horizontal = 1;
place = (864, 21);
target = up;
type = BottomGhost;
},
{
place = (-1276, 60);
place = (-1276, 60);
type = Stem;
},
{
place = (-915, 60);
place = (-915, 60);
type = Stem;
},
{
place = (254, 60);
place = (254, 60);
type = Stem;
},
{
place = (615, 60);
place = (615, 60);
type = Stem;
}
);
layerId = "88F21F75-214F-41EE-AE9C-B4AA79D6697C";
shapes = (
{
closed = 1;
nodes = (
(323,-5,o),
(364,4,o),
(401,21,c),
(401,0,l),
(561,0,l),
(561,518,l),
(401,518,l),
(401,321,ls),
(401,205,o),
(379,155,o),
(299,155,cs),
(217,155,o),
(200,206,o),
(200,322,cs),
(200,518,l),
(40,518,l),
(40,229,ls),
(40,94,o),
(151,-5,o),
(283,-5,cs)
);
}
);
width = 611;
}
);
note = u;
unicode = 117;
},
{
glyphname = v;
lastChange = "2021-06-21 21:48:47 +0000";
layers = (
{
hints = (
{
horizontal = 1;
origin = (0,6);
target = up;
type = BottomGhost;
},
{
horizontal = 1;
origin = (0,5);
target = down;
type = TopGhost;
}
);
layerId = m01;
shapes = (
{
closed = 1;
nodes = (
(268,0,l),
(466,518,l),
(401,518,l),
(240,95,l),
(79,518,l),
(16,518,l),
(212,0,l)
);
}
);
width = 480;
},
{
hints = (
{
horizontal = 1;
place = (498, -20);
target = down;
type = TopGhost;
}
);
layerId = "0A901A10-6B10-40AA-AC10-6ECA400C9626";
shapes = (
{
closed = 1;
nodes = (
(234,0,l),
(432,518,l),
(402,518,l),
(223,50,l),
(45,518,l),
(15,518,l),
(212,0,l)
);
}
);
width = 446;
},
{
hints = (
{
horizontal = 1;
place = (498, -20);
target = down;
type = TopGhost;
}
);
layerId = "75DB7DBE-742D-4351-BF75-A4D495193B35";
shapes = (
{
closed = 1;
nodes = (
(285,0,l),
(492,530,l),
(402,530,l),
(251,143,l),
(100,530,l),
(10,530,l),
(217,0,l)
);
}
);
width = 502;
},
{
hints = (
{
horizontal = 1;
place = (498, -20);
target = down;
type = TopGhost;
}
);
layerId = "4BD00FE4-3084-423F-A840-AB4EC9D41C86";
shapes = (
{
closed = 1;
nodes = (
(322,0,l),
(519,518,l),
(402,518,l),
(267,165,l),
(133,518,l),
(15,518,l),
(212,0,l)
);
}
);
width = 533;
},
{
hints = (
{
horizontal = 1;
place = (498, -20);
target = down;
type = TopGhost;
}
);
layerId = "88F21F75-214F-41EE-AE9C-B4AA79D6697C";
shapes = (
{
closed = 1;
nodes = (
(376,0,l),
(573,518,l),
(402,518,l),
(294,235,l),
(186,518,l),
(15,518,l),
(212,0,l)
);
}
);
width = 587;
}
);
note = v;
unicode = 118;
},
{
glyphname = w;
lastChange = "2021-06-21 21:48:47 +0000";
layers = (
{
hints = (
{
horizontal = 1;
origin = (0,12);
target = up;
type = BottomGhost;
},
{
horizontal = 1;
origin = (0,11);
target = down;
type = TopGhost;
},
{
horizontal = 1;
origin = (0,11);
target = (0,1);
type = Stem;
},
{
horizontal = 1;
origin = (0,12);
target = (0,9);
type = Stem;
}
);
layerId = m01;
shapes = (
{
closed = 1;
nodes = (
(233,0,l),
(369,421,l),
(504,0,l),
(560,0,l),
(727,518,l),
(664,518,l),
(532,108,l),
(400,518,l),
(337,518,l),
(205,108,l),
(73,518,l),
(10,518,l),
(177,0,l)
);
}
);
width = 737;
},
{
hints = (
{
horizontal = 1;
place = (498, -20);
target = down;
type = TopGhost;
}
);
layerId = "0A901A10-6B10-40AA-AC10-6ECA400C9626";
shapes = (
{
closed = 1;
nodes = (
(200,0,l),
(352,473,l),
(504,0,l),
(527,0,l),
(694,518,l),
(664,518,l),
(515,56,l),
(367,518,l),
(337,518,l),
(188,56,l),
(39,518,l),
(10,518,l),
(177,0,l)
);
}
);
width = 703;
},
{
hints = (
{
horizontal = 1;
place = (498, -20);
target = down;
type = TopGhost;
}
);
layerId = "75DB7DBE-742D-4351-BF75-A4D495193B35";
shapes = (
{
closed = 1;
nodes = (
(254,0,l),
(379,379,l),
(504,0,l),
(574,0,l),
(749,530,l),
(661,530,l),
(539,161,l),
(418,530,l),
(341,530,l),
(220,161,l),
(98,530,l),
(10,530,l),
(185,0,l)
);
}
);
width = 759;
},
{
hints = (
{
horizontal = 1;
place = (498, -20);
target = down;
type = TopGhost;
}
);
layerId = "4BD00FE4-3084-423F-A840-AB4EC9D41C86";
shapes = (
{
closed = 1;
nodes = (
(286,0,l),
(395,339,l),
(504,0,l),
(613,0,l),
(780,518,l),
(664,518,l),
(558,190,l),
(453,518,l),
(337,518,l),
(231,190,l),
(126,518,l),
(10,518,l),
(177,0,l)
);
}
);
width = 789;
},
{
hints = (
{
horizontal = 1;
place = (498, -20);
target = down;
type = TopGhost;
}
);
layerId = "88F21F75-214F-41EE-AE9C-B4AA79D6697C";
shapes = (
{
closed = 1;
nodes = (
(338,0,l),
(421,257,l),
(504,0,l),
(665,0,l),
(832,518,l),
(664,518,l),
(585,271,l),
(505,518,l),
(337,518,l),
(257,271,l),
(178,518,l),
(10,518,l),
(177,0,l)
);
}
);
width = 841;
}
);
note = w;
unicode = 119;
},
{
glyphname = x;
lastChange = "2021-06-21 21:48:47 +0000";
layers = (
{
hints = (
{
horizontal = 1;
origin = (0,11);
target = up;
type = BottomGhost;
},
{
horizontal = 1;
origin = (0,9);
target = down;
type = TopGhost;
}
);
layerId = m01;
shapes = (
{
closed = 1;
nodes = (
(95,0,l),
(260,219,l),
(426,0,l),
(501,0,l),
(298,269,l),
(485,518,l),
(410,518,l),
(260,319,l),
(111,518,l),
(35,518,l),
(223,269,l),
(20,0,l)
);
}
);
width = 521;
},
{
hints = (
{
horizontal = 1;
place = (178, 21);
target = up;
type = BottomGhost;
},
{
horizontal = 1;
place = (696, -20);
target = down;
type = TopGhost;
}
);
layerId = "0A901A10-6B10-40AA-AC10-6ECA400C9626";
shapes = (
{
closed = 1;
nodes = (
(55,0,l),
(240,246,l),
(426,0,l),
(461,0,l),
(258,269,l),
(445,518,l),
(410,518,l),
(240,292,l),
(70,518,l),
(35,518,l),
(223,269,l),
(20,0,l)
);
}
);
width = 481;
},
{
hints = (
{
horizontal = 1;
place = (178, 21);
target = up;
type = BottomGhost;
},
{
horizontal = 1;
place = (696, -20);
target = down;
type = TopGhost;
}
);
layerId = "75DB7DBE-742D-4351-BF75-A4D495193B35";
shapes = (
{
closed = 1;
nodes = (
(130,0,l),
(287,204,l),
(444,0,l),
(554,0,l),
(342,275,l),
(539,530,l),
(429,530,l),
(287,346,l),
(145,530,l),
(35,530,l),
(232,275,l),
(20,0,l)
);
}
);
width = 574;
},
{
hints = (
{
horizontal = 1;
place = (178, 21);
target = up;
type = BottomGhost;
},
{
horizontal = 1;
place = (696, -20);
target = down;
type = TopGhost;
}
);
layerId = "4BD00FE4-3084-423F-A840-AB4EC9D41C86";
shapes = (
{
closed = 1;
nodes = (
(158,0,l),
(292,178,l),
(426,0,l),
(563,0,l),
(361,269,l),
(548,518,l),
(410,518,l),
(292,361,l),
(173,518,l),
(35,518,l),
(223,269,l),
(20,0,l)
);
}
);
width = 583;
},
{
hints = (
{
horizontal = 1;
place = (178, 21);
target = up;
type = BottomGhost;
},
{
horizontal = 1;
place = (696, -20);
target = down;
type = TopGhost;
}
);
layerId = "88F21F75-214F-41EE-AE9C-B4AA79D6697C";
shapes = (
{
closed = 1;
nodes = (
(220,0,l),
(323,136,l),
(426,0,l),
(626,0,l),
(423,269,l),
(611,518,l),
(410,518,l),
(323,402,l),
(236,518,l),
(35,518,l),
(223,269,l),
(20,0,l)
);
}
);
width = 646;
}
);
note = x;
unicode = 120;
},
{
glyphname = y;
lastChange = "2021-06-21 21:48:47 +0000";
layers = (
{
hints = (
{
horizontal = 1;
origin = (0,15);
target = (0,14);
type = Stem;
},
{
horizontal = 1;
origin = (0,8);
target = down;
type = TopGhost;
}
);
layerId = m01;
shapes = (
{
closed = 1;
nodes = (
(128,-165,ls),
(179,-165,o),
(224,-134,o),
(242,-86,cs),
(472,518,l),
(408,518,l),
(246,93,l),
(84,518,l),
(20,518,l),
(214,8,l),
(186,-65,ls),
(177,-89,o),
(154,-105,o),
(128,-105,cs),
(82,-105,l),
(82,-165,l)
);
}
);
width = 487;
},
{
hints = (
{
horizontal = 1;
place = (-165, 28);
place = (-165, 28);
type = Stem;
},
{
horizontal = 1;
place = (518, -20);
target = down;
type = TopGhost;
},
{
place = (20, 419);
place = (20, 419);
type = Stem;
}
);
layerId = "0A901A10-6B10-40AA-AC10-6ECA400C9626";
shapes = (
{
closed = 1;
nodes = (
(106,-165,ls),
(150,-165,o),
(190,-137,o),
(205,-97,cs),
(439,518,l),
(409,518,l),
(230,46,l),
(50,518,l),
(20,518,l),
(215,7,l),
(179,-87,ls),
(167,-117,o),
(138,-137,o),
(106,-137,cs),
(60,-137,l),
(60,-165,l)
);
}
);
width = 453;
},
{
hints = (
{
horizontal = 1;
place = (-157, 92);
place = (-157, 92);
type = Stem;
},
{
horizontal = 1;
place = (530, -20);
target = down;
type = TopGhost;
},
{
place = (20, 483);
place = (20, 483);
type = Stem;
}
);
layerId = "75DB7DBE-742D-4351-BF75-A4D495193B35";
shapes = (
{
closed = 1;
nodes = (
(146,-157,ls),
(186,-157,o),
(244,-136,o),
(268,-74,cs),
(503,530,l),
(413,530,l),
(262,141,l),
(110,530,l),
(20,530,l),
(217,26,l),
(193,-35,ls),
(183,-61,o),
(156,-64,o),
(131,-64,cs),
(89,-64,l),
(89,-157,l)
);
}
);
width = 518;
},
{
hints = (
{
horizontal = 1;
place = (-165, 110);
place = (-165, 110);
type = Stem;
},
{
horizontal = 1;
place = (518, -20);
target = down;
type = TopGhost;
},
{
place = (20, 496);
place = (20, 496);
type = Stem;
}
);
layerId = "4BD00FE4-3084-423F-A840-AB4EC9D41C86";
shapes = (
{
closed = 1;
nodes = (
(155,-165,ls),
(216,-165,o),
(271,-127,o),
(292,-70,cs),
(516,518,l),
(399,518,l),
(268,175,l),
(138,518,l),
(20,518,l),
(209,21,l),
(189,-31,ls),
(184,-45,o),
(170,-55,o),
(155,-55,cs),
(108,-55,l),
(108,-165,l)
);
}
);
width = 530;
},
{
hints = (
{
horizontal = 1;
place = (-191, 160);
place = (-191, 160);
type = Stem;
},
{
horizontal = 1;
place = (518, -20);
target = down;
type = TopGhost;
},
{
place = (20, 550);
place = (20, 550);
type = Stem;
}
);
layerId = "88F21F75-214F-41EE-AE9C-B4AA79D6697C";
shapes = (
{
closed = 1;
nodes = (
(182,-191,ls),
(253,-191,o),
(317,-146,o),
(342,-80,cs),
(570,518,l),
(399,518,l),
(295,245,l),
(191,518,l),
(20,518,l),
(209,20,l),
(193,-23,ls),
(191,-27,o),
(187,-31,o),
(182,-31,cs),
(135,-31,l),
(135,-191,l)
);
}
);
width = 584;
}
);
note = y;
unicode = 121;
},
{
glyphname = z;
lastChange = "2021-06-21 21:48:47 +0000";
layers = (
{
hints = (
{
horizontal = 1;
origin = (0,9);
target = (0,2);
type = Stem;
},
{
horizontal = 1;
origin = (0,5);
target = (0,6);
type = Stem;
}
);
layerId = m01;
shapes = (
{
closed = 1;
nodes = (
(437,1,l),
(437,61,l),
(103,61,l),
(434,466,l),
(434,519,l),
(54,519,l),
(54,459,l),
(351,459,l),
(20,53,l),
(20,1,l)
);
}
);
width = 457;
},
{
hints = (
{
horizontal = 1;
place = (178, 60);
place = (178, 60);
type = Stem;
},
{
horizontal = 1;
place = (636, 60);
place = (636, 60);
type = Stem;
}
);
layerId = "0A901A10-6B10-40AA-AC10-6ECA400C9626";
shapes = (
{
closed = 1;
nodes = (
(424,0,l),
(424,28,l),
(55,28,l),
(408,490,l),
(408,518,l),
(41,518,l),
(41,490,l),
(373,490,l),
(20,28,l),
(20,0,l)
);
}
);
width = 443;
},
{
hints = (
{
horizontal = 1;
place = (178, 60);
place = (178, 60);
type = Stem;
},
{
horizontal = 1;
place = (636, 60);
place = (636, 60);
type = Stem;
}
);
layerId = "75DB7DBE-742D-4351-BF75-A4D495193B35";
shapes = (
{
closed = 1;
nodes = (
(451,0,l),
(451,94,l),
(147,94,l),
(448,454,l),
(448,531,l),
(53,531,l),
(53,438,l),
(321,438,l),
(20,78,l),
(20,0,l)
);
}
);
width = 471;
},
{
hints = (
{
horizontal = 1;
place = (178, 60);
place = (178, 60);
type = Stem;
},
{
horizontal = 1;
place = (636, 60);
place = (636, 60);
type = Stem;
}
);
layerId = "4BD00FE4-3084-423F-A840-AB4EC9D41C86";
shapes = (
{
closed = 1;
nodes = (
(437,0,l),
(437,110,l),
(165,110,l),
(434,403,l),
(434,518,l),
(54,518,l),
(54,408,l),
(289,408,l),
(20,114,l),
(20,0,l)
);
}
);
width = 456;
},
{
hints = (
{
horizontal = 1;
place = (178, 60);
place = (178, 60);
type = Stem;
},
{
horizontal = 1;
place = (636, 60);
place = (636, 60);
type = Stem;
}
);
layerId = "88F21F75-214F-41EE-AE9C-B4AA79D6697C";
shapes = (
{
closed = 1;
nodes = (
(368,0,l),
(368,160,l),
(201,160,l),
(368,341,l),
(368,518,l),
(31,518,l),
(31,358,l),
(166,358,l),
(20,199,l),
(20,0,l)
);
}
);
width = 387;
}
);
note = z;
unicode = 122;
},
{
glyphname = uni05D0;
lastChange = "2021-06-22 18:35:40 +0000";
layers = (
{
hints = (
{
horizontal = 1;
origin = (0,19);
target = up;
type = BottomGhost;
},
{
horizontal = 1;
origin = (0,15);
target = down;
type = TopGhost;
},
{
horizontal = 1;
origin = (0,5);
target = up;
type = BottomGhost;
},
{
origin = (0,19);
target = (0,0);
type = Stem;
},
{
origin = (0,10);
target = (0,9);
type = Stem;
}
);
layerId = m01;
shapes = (
{
closed = 1;
nodes = (
(95,0,l),
(95,116,o),
(123,247,o),
(188,345,c),
(484,0,l),
(562,0,l),
(431,154,l),
(508,264,o),
(521,388,o),
(521,519,c),
(461,519,l),
(461,407,o),
(453,298,o),
(390,201,c),
(118,519,l),
(39,519,l),
(148,392,l),
(71,285,o),
(35,129,o),
(35,0,c)
);
}
);
width = 597;
},
{
hints = (
{
horizontal = 1;
place = (0, 21);
target = up;
type = BottomGhost;
},
{
horizontal = 1;
place = (519, -20);
target = down;
type = TopGhost;
},
{
place = (35, 28);
place = (35, 28);
type = Stem;
},
{
place = (461, 28);
place = (461, 28);
type = Stem;
}
);
layerId = "0A901A10-6B10-40AA-AC10-6ECA400C9626";
shapes = (
{
closed = 1;
nodes = (
(63,0,l),
(63,122,o),
(95,271,o),
(171,371,c),
(489,0,l),
(526,0,l),
(395,153,l),
(476,262,o),
(489,387,o),
(489,519,c),
(461,519,l),
(461,397,o),
(451,280,o),
(376,175,c),
(81,519,l),
(44,519,l),
(152,392,l),
(73,292,o),
(35,128,o),
(35,0,c)
);
}
);
width = 560;
},
{
hints = (
{
horizontal = 1;
place = (0, 16);
place = (0, 16);
type = Stem;
},
{
horizontal = 1;
place = (531, -20);
target = down;
type = TopGhost;
},
{
place = (54, 83);
place = (54, 83);
type = Stem;
},
{
place = (470, 83);
place = (470, 83);
type = Stem;
}
);
layerId = "75DB7DBE-742D-4351-BF75-A4D495193B35";
shapes = (
{
closed = 1;
nodes = (
(137,0,l),
(137,131,o),
(166,242,o),
(217,323,c),
(501,0,l),
(617,0,l),
(471,166,l),
(536,265,o),
(553,377,o),
(553,531,c),
(470,531,l),
(470,402,o),
(460,313,o),
(412,234,c),
(151,531,l),
(35,531,l),
(158,390,l),
(94,295,o),
(54,155,o),
(54,0,c)
);
}
);
width = 638;
},
{
hints = (
{
horizontal = 1;
place = (0, 21);
target = up;
type = BottomGhost;
},
{
horizontal = 1;
place = (518, -20);
target = down;
type = TopGhost;
},
{
place = (51, 110);
place = (51, 110);
type = Stem;
},
{
place = (439, 110);
place = (439, 110);
type = Stem;
},
{
horizontal = 1;
place = (374, 144);
place = (374, 144);
type = Stem;
}
);
layerId = "4BD00FE4-3084-423F-A840-AB4EC9D41C86";
shapes = (
{
closed = 1;
nodes = (
(161,0,l),
(161,160,o),
(190,241,o),
(221,285,c),
(449,0,l),
(589,0,l),
(461,160,l),
(540,259,o),
(549,397,o),
(549,518,c),
(439,518,l),
(439,423,o),
(433,321,o),
(390,250,c),
(176,518,l),
(35,518,l),
(150,374,l),
(62,272,o),
(51,128,o),
(51,0,c)
);
}
);
width = 623;
},
{
hints = (
{
horizontal = 1;
place = (0, 21);
target = up;
type = BottomGhost;
},
{
horizontal = 1;
place = (519, -20);
target = down;
type = TopGhost;
},
{
place = (35, 160);
place = (35, 160);
type = Stem;
},
{
place = (422, 160);
place = (422, 160);
type = Stem;
},
{
horizontal = 1;
place = (398, 121);
place = (398, 121);
type = Stem;
},
{
horizontal = 1;
place = (0, 150);
place = (0, 150);
type = Stem;
}
);
layerId = "88F21F75-214F-41EE-AE9C-B4AA79D6697C";
shapes = (
{
closed = 1;
nodes = (
(195,0,l),
(195,121,o),
(215,204,o),
(235,253,c),
(420,0,l),
(618,0,l),
(509,150,l),
(581,266,o),
(582,377,o),
(582,519,c),
(422,519,l),
(422,413,o),
(421,353,o),
(402,296,c),
(239,519,l),
(41,519,l),
(130,398,l),
(54,280,o),
(35,137,o),
(35,0,c)
);
}
);
width = 652;
}
);
note = uni05D0;
unicode = 1488;
},
{
glyphname = uni05D1;
lastChange = "2021-06-21 21:48:47 +0000";
layers = (
{
hints = (
{
horizontal = 1;
origin = (0,15);
target = (0,14);
type = Stem;
},
{
horizontal = 1;
origin = (0,7);
target = (0,8);
type = Stem;
},
{
origin = (0,13);
target = (0,2);
type = Stem;
}
);
layerId = m01;
shapes = (
{
closed = 1;
nodes = (
(446,0,l),
(446,60,l),
(397,60,l),
(397,300,ls),
(397,420,o),
(300,518,o),
(179,518,cs),
(20,518,l),
(20,458,l),
(179,458,ls),
(266,458,o),
(337,387,o),
(337,300,cs),
(337,60,l),
(20,60,l),
(20,0,l)
);
}
);
width = 466;
},
{
hints = (
{
horizontal = 1;
place = (0, 28);
place = (0, 28);
type = Stem;
},
{
horizontal = 1;
place = (490, 28);
place = (490, 28);
type = Stem;
},
{
place = (353, 28);
place = (353, 28);
type = Stem;
}
);
layerId = "0A901A10-6B10-40AA-AC10-6ECA400C9626";
shapes = (
{
closed = 1;
nodes = (
(446,0,l),
(446,28,l),
(381,28,l),
(381,316,ls),
(381,428,o),
(291,518,o),
(179,518,cs),
(20,518,l),
(20,490,l),
(179,490,ls),
(275,490,o),
(353,412,o),
(353,316,cs),
(353,28,l),
(20,28,l),
(20,0,l)
);
}
);
width = 465;
},
{
hints = (
{
horizontal = 1;
place = (0, 93);
place = (0, 93);
type = Stem;
},
{
horizontal = 1;
place = (437, 93);
place = (437, 93);
type = Stem;
},
{
place = (330, 82);
place = (330, 82);
type = Stem;
}
);
layerId = "75DB7DBE-742D-4351-BF75-A4D495193B35";
shapes = (
{
closed = 1;
nodes = (
(460,0,l),
(460,93,l),
(412,93,l),
(412,304,ls),
(412,427,o),
(313,530,o),
(187,530,cs),
(20,530,l),
(20,437,l),
(187,437,ls),
(245,437,o),
(330,393,o),
(330,304,cs),
(330,93,l),
(20,93,l),
(20,0,l)
);
}
);
width = 480;
},
{
hints = (
{
horizontal = 1;
place = (0, 110);
place = (0, 110);
type = Stem;
},
{
horizontal = 1;
place = (408, 110);
place = (408, 110);
type = Stem;
},
{
place = (282, 110);
place = (282, 110);
type = Stem;
}
);
layerId = "4BD00FE4-3084-423F-A840-AB4EC9D41C86";
shapes = (
{
closed = 1;
nodes = (
(446,0,l),
(446,110,l),
(392,110,l),
(392,293,ls),
(392,417,o),
(291,518,o),
(167,518,cs),
(20,518,l),
(20,408,l),
(167,408,ls),
(231,408,o),
(282,356,o),
(282,293,cs),
(282,110,l),
(20,110,l),
(20,0,l)
);
}
);
width = 465;
},
{
hints = (
{
horizontal = 1;
place = (0, 160);
place = (0, 160);
type = Stem;
},
{
horizontal = 1;
place = (358, 160);
place = (358, 160);
type = Stem;
},
{
place = (267, 160);
place = (267, 160);
type = Stem;
}
);
layerId = "88F21F75-214F-41EE-AE9C-B4AA79D6697C";
shapes = (
{
closed = 1;
nodes = (
(475,0,l),
(475,160,l),
(427,160,l),
(427,278,ls),
(427,410,o),
(320,518,o),
(187,518,cs),
(20,518,l),
(20,358,l),
(187,358,ls),
(231,358,o),
(267,322,o),
(267,278,cs),
(267,160,l),
(20,160,l),
(20,0,l)
);
}
);
width = 494;
}
);
note = uni05D1;
unicode = 1489;
},
{
glyphname = uni05D2;
lastChange = "2021-06-21 21:48:47 +0000";
layers = (
{
hints = (
{
horizontal = 1;
origin = (0,13);
target = (0,12);
type = Stem;
},
{
horizontal = 1;
origin = (0,6);
target = (0,7);
type = Stem;
}
);
layerId = m01;
shapes = (
{
closed = 1;
nodes = (
(109,0,o),
(197,50,o),
(245,125,c),
(271,0,l),
(332,0,l),
(224,518,l),
(69,518,l),
(69,458,l),
(175,458,l),
(220,242,l),
(220,146,o),
(124,60,o),
(20,60,c),
(20,0,l)
);
}
);
width = 352;
},
{
hints = (
{
horizontal = 1;
place = (0, 28);
place = (0, 28);
type = Stem;
},
{
horizontal = 1;
place = (491, 28);
place = (491, 28);
type = Stem;
},
{
place = (243, 15);
place = (243, 15);
type = Stem;
}
);
layerId = "0A901A10-6B10-40AA-AC10-6ECA400C9626";
shapes = (
{
closed = 1;
nodes = (
(119,0,o),
(221,65,o),
(258,158,c),
(291,0,l),
(319,0,l),
(211,519,l),
(69,519,l),
(69,491,l),
(188,491,l),
(243,227,l),
(243,115,o),
(123,28,o),
(20,28,c),
(20,0,l)
);
}
);
width = 338;
},
{
hints = (
{
horizontal = 1;
place = (0, 93);
place = (0, 93);
type = Stem;
},
{
horizontal = 1;
place = (437, 93);
place = (437, 93);
type = Stem;
},
{
place = (20, 333);
place = (20, 333);
type = Stem;
}
);
layerId = "75DB7DBE-742D-4351-BF75-A4D495193B35";
shapes = (
{
closed = 1;
nodes = (
(102,0,o),
(188,32,o),
(246,105,c),
(268,0,l),
(353,0,l),
(239,530,l),
(68,530,l),
(68,437,l),
(175,437,l),
(216,246,l),
(216,160,o),
(115,93,o),
(20,93,c),
(20,0,l)
);
}
);
width = 373;
},
{
hints = (
{
horizontal = 1;
place = (0, 110);
place = (0, 110);
type = Stem;
},
{
horizontal = 1;
place = (408, 110);
place = (408, 110);
type = Stem;
},
{
place = (20, 333);
place = (20, 333);
type = Stem;
}
);
layerId = "4BD00FE4-3084-423F-A840-AB4EC9D41C86";
shapes = (
{
closed = 1;
nodes = (
(95,0,o),
(170,33,o),
(223,86,c),
(241,0,l),
(353,0,l),
(245,518,l),
(60,518,l),
(60,408,l),
(155,408,l),
(188,251,l),
(184,172,o),
(95,110,o),
(20,110,c),
(20,0,l)
);
}
);
width = 372;
},
{
hints = (
{
horizontal = 1;
place = (0, 160);
place = (0, 160);
type = Stem;
},
{
horizontal = 1;
place = (358, 160);
place = (358, 160);
type = Stem;
},
{
place = (20, 349);
place = (20, 349);
type = Stem;
}
);
layerId = "88F21F75-214F-41EE-AE9C-B4AA79D6697C";
shapes = (
{
closed = 1;
nodes = (
(81,0,o),
(142,21,o),
(193,58,c),
(205,0,l),
(369,0,l),
(260,518,l),
(65,518,l),
(65,358,l),
(130,358,l),
(149,271,l),
(149,204,o),
(75,160,o),
(20,160,c),
(20,0,l)
);
}
);
width = 388;
}
);
note = uni05D2;
unicode = 1490;
},
{
glyphname = uni05D3;
lastChange = "2021-06-21 21:48:47 +0000";
layers = (
{
hints = (
{
horizontal = 1;
origin = (0,7);
target = up;
type = BottomGhost;
},
{
horizontal = 1;
origin = (0,4);
target = (0,5);
type = Stem;
},
{
origin = (0,7);
target = (0,0);
type = Stem;
}
);
layerId = m01;
shapes = (
{
closed = 1;
nodes = (
(363,0,l),
(363,458,l),
(415,458,l),
(415,518,l),
(10,518,l),
(10,458,l),
(303,458,l),
(303,0,l)
);
}
);
width = 435;
},
{
hints = (
{
horizontal = 1;
place = (0, 21);
target = up;
type = BottomGhost;
},
{
horizontal = 1;
place = (490, 28);
place = (490, 28);
type = Stem;
},
{
place = (339, 28);
place = (339, 28);
type = Stem;
}
);
layerId = "0A901A10-6B10-40AA-AC10-6ECA400C9626";
shapes = (
{
closed = 1;
nodes = (
(367,0,l),
(367,490,l),
(435,490,l),
(435,518,l),
(30,518,l),
(30,490,l),
(339,490,l),
(339,0,l)
);
}
);
width = 465;
},
{
hints = (
{
horizontal = 1;
place = (0, 21);
target = up;
type = BottomGhost;
},
{
horizontal = 1;
place = (437, 93);
place = (437, 93);
type = Stem;
},
{
place = (296, 82);
place = (296, 82);
type = Stem;
}
);
layerId = "75DB7DBE-742D-4351-BF75-A4D495193B35";
shapes = (
{
closed = 1;
nodes = (
(378,0,l),
(378,437,l),
(429,437,l),
(429,530,l),
(10,530,l),
(10,437,l),
(296,437,l),
(296,0,l)
);
}
);
width = 449;
},
{
hints = (
{
horizontal = 1;
place = (0, 21);
target = up;
type = BottomGhost;
},
{
horizontal = 1;
place = (408, 110);
place = (408, 110);
type = Stem;
},
{
place = (256, 110);
place = (256, 110);
type = Stem;
}
);
layerId = "4BD00FE4-3084-423F-A840-AB4EC9D41C86";
shapes = (
{
closed = 1;
nodes = (
(366,0,l),
(366,408,l),
(436,408,l),
(436,518,l),
(10,518,l),
(10,408,l),
(256,408,l),
(256,0,l)
);
}
);
width = 455;
},
{
hints = (
{
horizontal = 1;
place = (0, 21);
target = up;
type = BottomGhost;
},
{
horizontal = 1;
place = (358, 160);
place = (358, 160);
type = Stem;
},
{
place = (212, 160);
place = (212, 160);
type = Stem;
}
);
layerId = "88F21F75-214F-41EE-AE9C-B4AA79D6697C";
shapes = (
{
closed = 1;
nodes = (
(372,0,l),
(372,358,l),
(429,358,l),
(429,518,l),
(10,518,l),
(10,358,l),
(212,358,l),
(212,0,l)
);
}
);
width = 448;
}
);
note = uni05D3;
unicode = 1491;
},
{
glyphname = uni05D4;
lastChange = "2021-06-21 21:48:47 +0000";
layers = (
{
hints = (
{
horizontal = 1;
origin = (1,3);
target = up;
type = BottomGhost;
},
{
horizontal = 1;
origin = (0,5);
target = (0,6);
type = Stem;
},
{
origin = (1,3);
target = (1,0);
type = Stem;
},
{
origin = (0,11);
target = (0,0);
type = Stem;
}
);
layerId = m01;
shapes = (
{
closed = 1;
nodes = (
(457,0,l),
(457,301,ls),
(457,421,o),
(360,518,o),
(240,518,cs),
(40,518,l),
(40,458,l),
(240,458,ls),
(327,458,o),
(397,387,o),
(397,301,cs),
(397,0,l)
);
},
{
closed = 1;
nodes = (
(104,0,l),
(104,297,l),
(44,297,l),
(44,0,l)
);
}
);
width = 497;
},
{
hints = (
{
horizontal = 1;
place = (0, 21);
target = up;
type = BottomGhost;
},
{
horizontal = 1;
place = (490, 28);
place = (490, 28);
type = Stem;
},
{
place = (44, 28);
place = (44, 28);
type = Stem;
},
{
place = (413, 28);
place = (413, 28);
type = Stem;
}
);
layerId = "0A901A10-6B10-40AA-AC10-6ECA400C9626";
shapes = (
{
closed = 1;
nodes = (
(441,0,l),
(441,317,ls),
(441,428,o),
(351,518,o),
(240,518,cs),
(40,518,l),
(40,490,l),
(240,490,ls),
(335,490,o),
(413,412,o),
(413,317,cs),
(413,0,l)
);
},
{
closed = 1;
nodes = (
(72,0,l),
(72,297,l),
(44,297,l),
(44,0,l)
);
}
);
width = 480;
},
{
hints = (
{
horizontal = 1;
place = (0, 21);
target = up;
type = BottomGhost;
},
{
horizontal = 1;
place = (437, 93);
place = (437, 93);
type = Stem;
},
{
place = (44, 82);
place = (44, 82);
type = Stem;
},
{
place = (389, 82);
place = (389, 82);
type = Stem;
}
);
layerId = "75DB7DBE-742D-4351-BF75-A4D495193B35";
shapes = (
{
closed = 1;
nodes = (
(471,0,l),
(471,305,ls),
(471,428,o),
(373,530,o),
(247,530,cs),
(40,530,l),
(40,437,l),
(247,437,ls),
(304,437,o),
(389,393,o),
(389,305,cs),
(389,0,l)
);
},
{
closed = 1;
nodes = (
(126,0,l),
(126,319,l),
(44,319,l),
(44,0,l)
);
}
);
width = 511;
},
{
hints = (
{
horizontal = 1;
place = (0, 256);
place = (0, 256);
type = Stem;
},
{
horizontal = 1;
place = (408, 110);
place = (408, 110);
type = Stem;
},
{
place = (40, 110);
place = (40, 110);
type = Stem;
},
{
place = (383, 110);
place = (383, 110);
type = Stem;
}
);
layerId = "4BD00FE4-3084-423F-A840-AB4EC9D41C86";
shapes = (
{
closed = 1;
nodes = (
(493,0,l),
(493,293,ls),
(493,417,o),
(392,518,o),
(268,518,cs),
(41,518,l),
(41,408,l),
(268,408,ls),
(331,408,o),
(383,356,o),
(383,293,cs),
(383,0,l)
);
},
{
closed = 1;
nodes = (
(150,0,l),
(150,256,l),
(40,256,l),
(40,0,l)
);
}
);
width = 532;
},
{
hints = (
{
horizontal = 1;
place = (0, 259);
place = (0, 259);
type = Stem;
},
{
horizontal = 1;
place = (358, 160);
place = (358, 160);
type = Stem;
},
{
place = (40, 160);
place = (40, 160);
type = Stem;
},
{
place = (337, 160);
place = (337, 160);
type = Stem;
}
);
layerId = "88F21F75-214F-41EE-AE9C-B4AA79D6697C";
shapes = (
{
closed = 1;
nodes = (
(497,0,l),
(497,278,ls),
(497,410,o),
(390,518,o),
(257,518,cs),
(40,518,l),
(40,358,l),
(257,358,ls),
(301,358,o),
(337,322,o),
(337,278,cs),
(337,0,l)
);
},
{
closed = 1;
nodes = (
(200,0,l),
(200,259,l),
(40,259,l),
(40,0,l)
);
}
);
width = 536;
}
);
note = uni05D4;
unicode = 1492;
},
{
glyphname = uni05D5;
lastChange = "2021-06-21 21:48:47 +0000";
layers = (
{
hints = (
{
horizontal = 1;
origin = (0,3);
target = up;
type = BottomGhost;
},
{
horizontal = 1;
origin = (0,2);
target = down;
type = TopGhost;
},
{
origin = (0,3);
target = (0,0);
type = Stem;
}
);
layerId = m01;
shapes = (
{
closed = 1;
nodes = (
(120,0,l),
(120,518,l),
(60,518,l),
(60,0,l)
);
}
);
width = 180;
},
{
hints = (
{
horizontal = 1;
place = (0, 21);
target = up;
type = BottomGhost;
},
{
horizontal = 1;
place = (518, -20);
target = down;
type = TopGhost;
},
{
place = (60, 28);
place = (60, 28);
type = Stem;
}
);
layerId = "0A901A10-6B10-40AA-AC10-6ECA400C9626";
shapes = (
{
closed = 1;
nodes = (
(88,0,l),
(88,518,l),
(60,518,l),
(60,0,l)
);
}
);
width = 148;
},
{
hints = (
{
horizontal = 1;
place = (0, 21);
target = up;
type = BottomGhost;
},
{
horizontal = 1;
place = (530, -20);
target = down;
type = TopGhost;
},
{
place = (60, 82);
place = (60, 82);
type = Stem;
}
);
layerId = "75DB7DBE-742D-4351-BF75-A4D495193B35";
shapes = (
{
closed = 1;
nodes = (
(142,0,l),
(142,530,l),
(60,530,l),
(60,0,l)
);
}
);
width = 202;
},
{
hints = (
{
horizontal = 1;
place = (0, 21);
target = up;
type = BottomGhost;
},
{
horizontal = 1;
place = (518, -20);
target = down;
type = TopGhost;
},
{
place = (60, 110);
place = (60, 110);
type = Stem;
}
);
layerId = "4BD00FE4-3084-423F-A840-AB4EC9D41C86";
shapes = (
{
closed = 1;
nodes = (
(170,0,l),
(170,518,l),
(60,518,l),
(60,0,l)
);
}
);
width = 230;
},
{
hints = (
{
horizontal = 1;
place = (0, 21);
target = up;
type = BottomGhost;
},
{
horizontal = 1;
place = (518, -20);
target = down;
type = TopGhost;
},
{
place = (60, 160);
place = (60, 160);
type = Stem;
}
);
layerId = "88F21F75-214F-41EE-AE9C-B4AA79D6697C";
shapes = (
{
closed = 1;
nodes = (
(220,0,l),
(220,518,l),
(60,518,l),
(60,0,l)
);
}
);
width = 280;
}
);
note = uni05D5;
unicode = 1493;
},
{
glyphname = uni05D6;
lastChange = "2021-06-21 21:48:47 +0000";
layers = (
{
hints = (
{
horizontal = 1;
origin = (0,12);
target = up;
type = BottomGhost;
},
{
horizontal = 1;
origin = (0,7);
target = (0,8);
type = Stem;
},
{
origin = (0,12);
target = (0,0);
type = Stem;
}
);
layerId = m01;
shapes = (
{
closed = 1;
nodes = (
(236,0,l),
(236,292,ls),
(236,359,o),
(213,417,o),
(169,458,c),
(287,458,l),
(287,518,l),
(10,518,l),
(10,458,l),
(92,458,o),
(176,407,o),
(176,292,cs),
(176,0,l)
);
}
);
width = 307;
},
{
hints = (
{
horizontal = 1;
place = (0, 21);
target = up;
type = BottomGhost;
},
{
horizontal = 1;
place = (490, 28);
place = (490, 28);
type = Stem;
},
{
place = (192, 28);
place = (192, 28);
type = Stem;
}
);
layerId = "0A901A10-6B10-40AA-AC10-6ECA400C9626";
shapes = (
{
closed = 1;
nodes = (
(220,0,l),
(220,308,ls),
(220,384,o),
(187,452,o),
(121,490,c),
(287,490,l),
(287,518,l),
(10,518,l),
(10,490,l),
(119,490,o),
(192,417,o),
(192,308,cs),
(192,0,l)
);
}
);
width = 306;
},
{
hints = (
{
horizontal = 1;
place = (0, 21);
target = up;
type = BottomGhost;
},
{
horizontal = 1;
place = (437, 93);
place = (437, 93);
type = Stem;
},
{
place = (172, 82);
place = (172, 82);
type = Stem;
}
);
layerId = "75DB7DBE-742D-4351-BF75-A4D495193B35";
shapes = (
{
closed = 1;
nodes = (
(254,0,l),
(254,297,ls),
(254,355,o),
(237,402,o),
(212,437,c),
(304,437,l),
(304,530,l),
(10,530,l),
(10,437,l),
(87,437,o),
(172,400,o),
(172,297,cs),
(172,0,l)
);
}
);
width = 324;
},
{
hints = (
{
horizontal = 1;
place = (0, 21);
target = up;
type = BottomGhost;
},
{
horizontal = 1;
place = (408, 110);
place = (408, 110);
type = Stem;
},
{
place = (151, 110);
place = (151, 110);
type = Stem;
}
);
layerId = "4BD00FE4-3084-423F-A840-AB4EC9D41C86";
shapes = (
{
closed = 1;
nodes = (
(261,0,l),
(261,267,ls),
(261,317,o),
(249,366,o),
(222,408,c),
(336,408,l),
(336,518,l),
(10,518,l),
(10,408,l),
(75,408,o),
(151,371,o),
(151,267,cs),
(151,0,l)
);
}
);
width = 355;
},
{
hints = (
{
horizontal = 1;
place = (0, 21);
target = up;
type = BottomGhost;
},
{
horizontal = 1;
place = (358, 160);
place = (358, 160);
type = Stem;
},
{
place = (126, 160);
place = (126, 160);
type = Stem;
}
);
layerId = "88F21F75-214F-41EE-AE9C-B4AA79D6697C";
shapes = (
{
closed = 1;
nodes = (
(286,0,l),
(286,242,ls),
(286,324,o),
(251,353,o),
(245,358,c),
(335,358,l),
(335,518,l),
(10,518,l),
(10,358,l),
(66,358,o),
(126,328,o),
(126,242,cs),
(126,0,l)
);
}
);
width = 354;
}
);
note = uni05D6;
unicode = 1494;
},
{
glyphname = uni05D7;
lastChange = "2021-06-21 21:48:47 +0000";
layers = (
{
hints = (
{
horizontal = 1;
origin = (0,13);
target = up;
type = BottomGhost;
},
{
horizontal = 1;
origin = (0,12);
target = (0,1);
type = Stem;
},
{
origin = (0,13);
target = (0,0);
type = Stem;
},
{
origin = (0,6);
target = (0,7);
type = Stem;
}
);
layerId = m01;
shapes = (
{
closed = 1;
nodes = (
(110,0,l),
(110,458,l),
(256,458,ls),
(342,458,o),
(413,387,o),
(413,301,cs),
(413,0,l),
(473,0,l),
(473,301,ls),
(473,421,o),
(376,518,o),
(256,518,cs),
(50,518,l),
(50,0,l)
);
}
);
width = 513;
},
{
hints = (
{
horizontal = 1;
place = (0, 21);
target = up;
type = BottomGhost;
},
{
horizontal = 1;
place = (490, 28);
place = (490, 28);
type = Stem;
},
{
place = (50, 28);
place = (50, 28);
type = Stem;
},
{
place = (433, 28);
place = (433, 28);
type = Stem;
}
);
layerId = "0A901A10-6B10-40AA-AC10-6ECA400C9626";
shapes = (
{
closed = 1;
nodes = (
(78,0,l),
(78,490,l),
(260,490,ls),
(355,490,o),
(433,412,o),
(433,317,cs),
(433,0,l),
(461,0,l),
(461,317,ls),
(461,428,o),
(371,518,o),
(260,518,cs),
(50,518,l),
(50,0,l)
);
}
);
width = 500;
},
{
hints = (
{
horizontal = 1;
place = (0, 21);
target = up;
type = BottomGhost;
},
{
horizontal = 1;
place = (437, 93);
place = (437, 93);
type = Stem;
},
{
place = (50, 82);
place = (50, 82);
type = Stem;
},
{
place = (405, 82);
place = (405, 82);
type = Stem;
}
);
layerId = "75DB7DBE-742D-4351-BF75-A4D495193B35";
shapes = (
{
closed = 1;
nodes = (
(132,0,l),
(132,437,l),
(263,437,ls),
(320,437,o),
(405,393,o),
(405,305,cs),
(405,0,l),
(487,0,l),
(487,305,ls),
(487,428,o),
(388,530,o),
(263,530,cs),
(50,530,l),
(50,0,l)
);
}
);
width = 527;
},
{
hints = (
{
horizontal = 1;
place = (0, 21);
target = up;
type = BottomGhost;
},
{
horizontal = 1;
place = (408, 110);
place = (408, 110);
type = Stem;
},
{
place = (50, 110);
place = (50, 110);
type = Stem;
},
{
place = (433, 110);
place = (433, 110);
type = Stem;
}
);
layerId = "4BD00FE4-3084-423F-A840-AB4EC9D41C86";
shapes = (
{
closed = 1;
nodes = (
(160,0,l),
(160,408,l),
(318,408,ls),
(381,408,o),
(433,356,o),
(433,293,cs),
(433,0,l),
(543,0,l),
(543,293,ls),
(543,417,o),
(442,518,o),
(318,518,cs),
(50,518,l),
(50,0,l)
);
}
);
width = 582;
},
{
hints = (
{
horizontal = 1;
place = (0, 21);
target = up;
type = BottomGhost;
},
{
horizontal = 1;
place = (358, 160);
place = (358, 160);
type = Stem;
},
{
place = (50, 160);
place = (50, 160);
type = Stem;
},
{
place = (373, 160);
place = (373, 160);
type = Stem;
}
);
layerId = "88F21F75-214F-41EE-AE9C-B4AA79D6697C";
shapes = (
{
closed = 1;
nodes = (
(210,0,l),
(210,358,l),
(293,358,ls),
(337,358,o),
(373,322,o),
(373,278,cs),
(373,0,l),
(533,0,l),
(533,278,ls),
(533,410,o),
(425,518,o),
(293,518,cs),
(50,518,l),
(50,0,l)
);
}
);
width = 572;
}
);
note = uni05D7;
unicode = 1495;
},
{
glyphname = uni05D8;
lastChange = "2021-06-22 18:36:28 +0000";
layers = (
{
hints = (
{
horizontal = 1;
origin = (0,21);
target = (0,12);
type = Stem;
},
{
horizontal = 1;
origin = (0,17);
target = (0,6);
type = Stem;
},
{
origin = (0,18);
target = (0,15);
type = Stem;
},
{
origin = (0,9);
target = (0,2);
type = Stem;
}
);
layerId = m01;
shapes = (
{
closed = 1;
nodes = (
(426,-5,o),
(509,123,o),
(509,263,cs),
(509,402,o),
(426,518,o),
(276,518,c),
(276,458,l),
(403,458,o),
(449,352,o),
(449,260,cs),
(449,159,o),
(395,55,o),
(279,55,cs),
(160,55,o),
(100,164,o),
(100,272,cs),
(100,518,l),
(40,518,l),
(40,272,ls),
(40,131,o),
(126,-5,o),
(279,-5,cs)
);
}
);
width = 539;
},
{
hints = (
{
horizontal = 1;
place = (-5, 28);
place = (-5, 28);
type = Stem;
},
{
horizontal = 1;
place = (485, 28);
place = (485, 28);
type = Stem;
},
{
place = (40, 28);
place = (40, 28);
type = Stem;
},
{
place = (472, 28);
place = (472, 28);
type = Stem;
}
);
layerId = "0A901A10-6B10-40AA-AC10-6ECA400C9626";
shapes = (
{
closed = 1;
nodes = (
(412,-5,o),
(500,124,o),
(500,262,cs),
(500,396,o),
(416,513,o),
(270,513,c),
(270,485,l),
(419,485,o),
(472,360,o),
(472,257,cs),
(472,124,o),
(383,23,o),
(270,23,cs),
(157,23,o),
(68,124,o),
(68,254,cs),
(68,513,l),
(40,513,l),
(40,254,ls),
(40,121,o),
(130,-5,o),
(271,-5,cs)
);
}
);
width = 530;
},
{
hints = (
{
horizontal = 1;
place = (-5, 93);
place = (-5, 93);
type = Stem;
},
{
horizontal = 1;
place = (437, 93);
place = (437, 93);
type = Stem;
},
{
place = (40, 82);
place = (40, 82);
type = Stem;
},
{
place = (439, 82);
place = (439, 82);
type = Stem;
}
);
layerId = "75DB7DBE-742D-4351-BF75-A4D495193B35";
shapes = (
{
closed = 1;
nodes = (
(386,-5,o),
(521,72,o),
(521,268,cs),
(521,467,o),
(379,530,o),
(270,530,c),
(270,437,l),
(359,437,o),
(439,389,o),
(439,266,cs),
(439,145,o),
(362,88,o),
(285,88,cs),
(206,88,o),
(122,151,o),
(122,278,cs),
(122,530,l),
(40,530,l),
(40,278,ls),
(40,140,o),
(124,-5,o),
(275,-5,cs)
);
}
);
width = 551;
},
{
hints = (
{
horizontal = 1;
place = (0, 110);
place = (0, 110);
type = Stem;
},
{
horizontal = 1;
place = (408, 110);
place = (408, 110);
type = Stem;
},
{
place = (40, 110);
place = (40, 110);
type = Stem;
},
{
place = (419, 110);
place = (419, 110);
type = Stem;
}
);
layerId = "4BD00FE4-3084-423F-A840-AB4EC9D41C86";
shapes = (
{
closed = 1;
nodes = (
(421,0,o),
(529,119,o),
(529,269,cs),
(529,417,o),
(425,518,o),
(274,518,c),
(274,408,l),
(356,408,o),
(419,343,o),
(419,259,cs),
(419,178,o),
(358,110,o),
(285,110,cs),
(212,110,o),
(150,178,o),
(150,259,cs),
(150,517,l),
(40,517,l),
(40,259,ls),
(40,118,o),
(152,0,o),
(286,0,cs)
);
}
);
width = 559;
},
{
hints = (
{
horizontal = 1;
place = (-5, 160);
place = (-5, 160);
type = Stem;
},
{
horizontal = 1;
place = (353, 160);
place = (353, 160);
type = Stem;
},
{
place = (40, 160);
place = (40, 160);
type = Stem;
},
{
place = (398, 160);
place = (398, 160);
type = Stem;
}
);
layerId = "88F21F75-214F-41EE-AE9C-B4AA79D6697C";
shapes = (
{
closed = 1;
nodes = (
(443,-5,o),
(558,115,o),
(558,258,cs),
(558,400,o),
(444,513,o),
(300,513,c),
(300,353,l),
(368,353,o),
(398,298,o),
(398,254,cs),
(398,201,o),
(354,155,o),
(303,155,cs),
(248,155,o),
(200,208,o),
(200,266,cs),
(200,513,l),
(40,513,l),
(40,266,ls),
(40,119,o),
(159,-5,o),
(302,-5,cs)
);
}
);
width = 588;
}
);
note = uni05D8;
unicode = 1496;
},
